<?xml version="1.0" encoding="UTF-8"?>
<svg viewBox="0 0 250 300" xmlns="http://www.w3.org/2000/svg">
 <g transform="matrix(.88161 0 0 .81243 -.23669 51.197)">
  <g stroke-linecap="round">
   <g stroke="#000">
    <path d="m70.443 206.03c-6.0638 0.61056-5.1906 8.1216-4.9187 12.562-0.077614 11.771 0.027496 23.542 0.16872 35.313-9.575-1.2563-19.138-3.859-28.688-4.6562-5.3543 0.64853-6.4483 9.2226-0.65625 10.156 3.7131 1.3107 16.883 1.5337 14.297 3.4561-8.1913 3.7322-17.276 6.0519-25.11 10.263-4.2091 4.1273 1.6341 11.501 6.7151 8.2674 10.034-3.8186 19.971-7.8865 29.972-11.799-0.9477 5.4442-5.7593 10.537-4.75 16.125 2.1769 5.6481 11.602 4.4376 11.781-2.0938 2.5152-6.5232 4.7952-13.142 7.25-19.688 8.9748-3.9889 18.702-6.7486 27.406-11.062 4.3569-3.3616 0.73035-10.896-4.6875-9.0625-7.4185 2.6607-14.724 5.7628-22.031 8.625-0.20395-13.772-0.1991-27.579-0.15625-41.281-0.42754-3.1705-3.4536-5.3922-6.5938-5.125z" fill="#ff7400" fill-rule="evenodd" stroke-width="2.918"/>
    <g transform="matrix(.85527 .51818 -.51818 .85527 22.995 -124.98)" fill="#d24e11" stroke-linejoin="round" stroke-width="4.137">
     <path d="m284.73 62.201c-2.4154-10.61-7.0059-14.965-9.6665-15.061-6.36-0.91597-11.617 2.4947-17.194 4.5485-2.9317 1.9329-6.8471 3.2338-6.0624 14.208 1.3714 10.236 5.0992 21.739 8.525 31.839 7.1122 20.526 17.159 36.953 23.603 36.104 8.3676-0.53761 9.4664-24.173 5.1531-50.363-1.111-6.9052-2.58-14.089-4.3576-21.276z"/>
     <path d="m308.4 64.59c0.43729-10.872-2.8573-16.275-5.4008-17.062-5.9005-2.5441-11.865-0.62351-17.785-0.096622-3.3345 1.1008-7.4538 1.3347-9.5603 12.133-1.3475 10.239-0.75113 22.316-0.080109 32.961 1.5088 21.67 6.9201 40.15 13.362 41.013 8.2179 1.6649 15.447-20.864 18.119-47.273 0.72971-6.9558 1.1864-14.274 1.3461-21.676z"/>
     <path d="m330.67 69.362c2.693-10.542 0.59659-16.513-1.7273-17.812-5.2409-3.7177-11.475-3.0821-17.375-3.8003-3.4907 0.38187-7.5683-0.24773-11.879 9.8747-3.4513 9.7332-5.3846 21.67-6.9462 32.22-3.0397 21.509-1.5976 40.711 4.5229 42.897 7.6907 3.3406 19.456-17.188 27.571-42.46 2.163-6.6511 4.1345-13.713 5.833-20.919z"/>
    </g>
    <path d="m160.01 205.34c-6.8443 0.90782-5.7136 9.1683-5.1875 14.125-0.44807 10.714-0.05014 21.529-0.34375 32.281-8.1499-2.5927-15.95-7.6926-24.469-8.7188-6.459 0.77388-4.6886 10.695 1.2188 10.719 7.897 3.6736 17.359 5.8144 24.287 10.437 3.419 7.636 4.815 16.522 9.4629 23.438 4.2584 3.5737 12.111-1.7813 8.7812-6.9062-1.1994-4.8547-8.1058-15.571 1.2109-9.6315 9.2193 3.2088 18.062 8.0121 27.508 10.288 6.1721 0.066833 6.8086-10.014 0.5625-10.469-7.9583-3.1562-15.917-6.3125-23.875-9.4688 6.1008-1.9169 13.778-0.48398 19.031-4.4062 3.6643-4.121-2.1886-10.502-6.8438-8.125l-25.375 4.3125c-0.080353-14.897 0.80402-30.009-0.28125-44.781-0.98953-2.0914-3.4104-3.3226-5.6875-3.0938z" fill="#ff7400" fill-rule="evenodd" stroke-width="2.918"/>
   </g>
   <g stroke-linejoin="round">
    <g stroke-width="4">
     <path d="m224.98 138.82c0.018036 60.508-49.028 109.57-109.54 109.57-60.508 0-109.56-49.061-109.54-109.57-0.01804-60.508 49.028-109.57 109.54-109.57 60.508 0 109.56 49.061 109.54 109.57z" fill="#e45513" stroke="#000"/>
     <path d="m218.35 101.23c0.076782 1.6816 0.125 3.3933 0.125 5.0938 0 60.464-49.067 109.53-109.53 109.53-47.262 0-87.591-29.999-102.94-71.969 2.6535 58.112 50.674 104.47 109.44 104.47 60.464 0 109.53-49.067 109.53-109.53 0-13.202-2.3382-25.87-6.625-37.594z" fill-opacity=".314"/>
    </g>
    <g stroke="#000">
     <g fill="#f00" fill-rule="evenodd">
      <path d="m120.37-14.331l-4.9284 46.91c10.587-10.454 21.799-20.153 36.623-24.271 41.336-11.482-11.682-49.175-31.695-22.639z" stroke-width="2.7"/>
      <path d="m104.81-23.686l8.892 55.895c6.9638-15.582 14.734-30.497 27.521-40.145 35.654-26.902-25.204-53.043-36.413-15.75z" stroke-width="2.94"/>
     </g>
     <path d="m187.81 70.761c0.012238 41.081-33.287 74.39-74.368 74.39s-74.38-33.309-74.368-74.39c-0.012241-41.081 33.287-74.39 74.368-74.39s74.38 33.309 74.368 74.39z" fill="#e45513" stroke-width="2.716"/>
    </g>
    <g transform="matrix(1.387 0 0 1.387 -38.099 -19.738)">
     <path d="m146.09 56.167c0.002518 8.4803-6.8714 15.356-15.352 15.356-8.4803 0-15.354-6.876-15.352-15.356-0.002525-8.4803 6.8714-15.356 15.352-15.356 8.4803 0 15.354 6.876 15.352 15.356z" fill="#fff" stroke="#000" stroke-width="2.71"/>
     <path d="m132.44 58.876c8.39e-4 2.8268-2.2905 5.1188-5.1172 5.1188-2.8268 0-5.1181-2.292-5.1172-5.1188-8.47e-4 -2.8268 2.2905-5.1188 5.1172-5.1188 2.8268 0 5.1181 2.292 5.1172 5.1188z" stroke-width="47.667"/>
    </g>
    <g transform="matrix(1.387 0 0 1.387 -46.743 -19.738)">
     <path d="m110.37 56.167c0.002525 8.4803-6.8714 15.356-15.352 15.356-8.4803 0-15.354-6.876-15.352-15.356-0.002525-8.4803 6.8714-15.356 15.352-15.356 8.4803 0 15.354 6.876 15.352 15.356z" fill="#fff" stroke="#000" stroke-width="2.71"/>
     <path d="m103.97 58.876c8.39e-4 2.8268-2.2905 5.1188-5.1172 5.1188-2.8268 0-5.1181-2.292-5.1172-5.1188-8.39e-4 -2.8268 2.2905-5.1188 5.1172-5.1188 2.8268 0 5.1181 2.292 5.1172 5.1188z" stroke-width="47.667"/>
    </g>
    <path d="m186.18 45.547l-1.7453 2.6562c0.23167 3.0755 0.31999 6.2026 0.31999 9.375 0 45.174-45.049 82.666-76.183 77.751-25.924-4.0927-56.871-19.663-70.801-52.501 7.089 40.246 53.219 70.073 75.281 69.84 48.913-0.5116 76.183-35.134 76.183-80.309 0-9.3916-1.001-18.41-3.0543-26.812z" fill-opacity=".314" stroke-width="4"/>
    <g fill-rule="evenodd" stroke="#000">
     <path d="m92.475 107.04l18.432 43.418 20.265-38.983c-7.0192-17.714-28.292-19.955-38.697-4.4348z" fill="#f00" stroke-width="2.7"/>
     <path d="m87.795 94.321l12.711 50.43 32.59-36.356c-4.5873-20.454-29.533-27.982-45.302-14.074z" fill="#ffce00" stroke-width="3.099"/>
     <path d="m85.262-28.776l27.313 61.723c1.2765-18.072 3.5383-35.472 12.308-47.438 24.454-33.367-41.705-57.036-39.621-14.285z" fill="#f00" stroke-width="3.062"/>
    </g>
   </g>
  </g>
 </g>
 <g fill="#f00" stroke="#000" stroke-width="5">
  <ellipse cx="224.5" cy="46" rx="17.5" ry="11"/>
  <ellipse cx="209" cy="14" rx="17" ry="11"/>
  <ellipse cx="54.5" cy="34" rx="17.5" ry="11"/>
  <ellipse cx="173.5" cy="66.5" rx="16.5" ry="10.5"/>
  <ellipse cx="215.5" cy="182" rx="11.5" ry="7"/>
  <ellipse cx="228" cy="85.5" rx="15" ry="10.5"/>
  <ellipse cx="124" cy="288.5" rx="13" ry="8.5"/>
  <ellipse cx="89.5" cy="278" rx="17.5" ry="10"/>
  <ellipse cx="17" cy="243" rx="14" ry="10"/>
  <ellipse cx="17.5" cy="16.5" rx="14.5" ry="11.5"/>
  <ellipse cx="156.5" cy="18" rx="18.5" ry="12"/>
  <ellipse cx="20" cy="61.5" rx="18" ry="11.5"/>
  <ellipse cx="229" cy="157" rx="11" ry="7"/>
  <ellipse cx="191.5" cy="237.5" rx="17.5" ry="8.5"/>
  <ellipse cx="174.5" cy="287" rx="15.5" ry="11"/>
  <ellipse cx="233.5" cy="292.5" rx="13.5" ry="8.5"/>
  <ellipse cx="220.5" cy="259.5" rx="15.5" ry="7.5"/>
  <ellipse cx="232" cy="207" rx="14" ry="11"/>
 </g>
</svg>
