<?xml version="1.0" encoding="UTF-8"?>
<!DOCTYPE svg PUBLIC "-//W3C//DTD SVG 1.1//EN" "http://www.w3.org/Graphics/SVG/1.1/DTD/svg11.dtd">
<!-- Creator: CorelDRAW X6 -->
<svg xmlns="http://www.w3.org/2000/svg" xml:space="preserve" width="186.592mm" height="181.823mm" version="1.1" style="shape-rendering:geometricPrecision; text-rendering:geometricPrecision; image-rendering:optimizeQuality; fill-rule:evenodd; clip-rule:evenodd"
viewBox="0 0 19106 18617"
 xmlns:xlink="http://www.w3.org/1999/xlink">
 <defs>
  <style type="text/css">
   <![CDATA[
    .fil5 {fill:#1B1C1C}
    .fil6 {fill:#4E3130}
    .fil7 {fill:#53524D}
    .fil8 {fill:#877878}
    .fil3 {fill:#949A9D}
    .fil2 {fill:#CCACAC}
    .fil0 {fill:#CCD6D7}
    .fil4 {fill:#F7F7F7}
    .fil1 {fill:#FAD0CE}
   ]]>
  </style>
 </defs>
 <g id="Vrstva_x0020_1">
  <metadata id="CorelCorpID_0Corel-Layer"/>
  <g id="_1067287408">
   <path class="fil0" d="M1791 12042c1110,-498 1261,1168 659,1218 162,-117 128,-617 25,-840 -109,-235 -437,-375 -684,-378zm8198 -1247l306 6c-9,21 -22,28 -28,62l-177 30c-26,-49 -14,-48 -101,-97zm691 -896c-74,-430 223,-647 526,-706 426,-83 650,179 727,504 195,822 -1124,956 -1254,202zm-797 -1639c-36,-329 75,-530 389,-580 330,-54 513,153 519,464 12,671 -829,845 -908,116zm-3550 -293c-268,545 -1019,107 -728,-492 231,-476 1054,-170 728,492zm4408 -3015c601,-17 1344,631 1366,1116 -236,-316 -915,-937 -1366,-1116zm-6543 476c116,-406 830,-1124 1464,-949 -460,125 -1305,725 -1464,949zm-361 -808c-15,-815 839,-1944 1236,-2366 1199,-1278 3709,-2222 5265,-1811 664,176 2203,586 2496,1198 -505,-209 -909,-737 -2517,-982 -1815,-276 -3898,544 -5129,1769 -626,623 -1000,1195 -1350,2192zm2318 -3646c-168,0 -126,2 -243,59 -52,25 -105,71 -171,118 -161,114 -191,94 -310,303 46,125 30,40 -90,68 -714,-448 -2431,-1071 -3256,-265 -122,119 -481,658 -465,903 -33,-137 -62,-118 71,-76l114 -69c15,-148 139,-245 252,-326 136,-98 167,-142 310,-195 452,-169 958,-122 1385,104 677,359 559,585 903,602 195,-62 136,-163 303,-230 -211,97 -784,996 -968,1366 -275,556 -475,1165 -531,1875 -95,1187 381,3068 935,3852 297,-69 209,-275 566,-357 584,-135 924,556 675,898 -210,289 -355,95 -509,472 113,293 427,439 531,640 -32,157 -62,125 95,90l106 20 244 136c11,-12 32,-44 37,-32l93 -91c4,-768 -37,-441 -122,-933 337,651 185,1366 -192,1969 -599,959 -1110,673 -1890,620 -192,-54 -27,-19 -98,30 264,177 583,482 575,941 -141,-409 -286,-627 -635,-926l-310 -255c-235,-100 -413,-221 -652,-356 -331,-186 -665,-71 -1024,-95 -10,8 -26,7 -31,23l-590 251 -88 176c-58,124 -29,17 -58,173l214 18 10 -185 548 11c8,14 21,42 28,49 4,4 14,22 19,27 125,124 100,93 238,114 57,28 67,-136 127,158 32,154 -23,434 -133,522 -227,183 -223,-28 -228,-33l57 45c8,-42 -29,-122 -37,-95 -7,22 -45,-30 -65,-49 -117,-98 -9,43 -83,-150 -76,-198 96,48 -78,-171l-138 33c4,286 92,182 95,353 1,55 -35,379 -24,595 181,18 335,89 498,48 144,-36 86,-16 160,-89 49,-99 72,-145 262,-208 450,-149 820,-83 1210,96 505,232 942,433 1534,538 642,114 1172,30 1679,-235 400,-209 930,-601 1061,-1028 -339,-625 -1314,-1006 -1577,-958 994,-55 1350,606 1611,856l91 75c145,-382 561,-1007 784,-1436 187,-361 189,-367 498,-610 322,-253 291,-365 491,-687 90,170 62,350 -26,548 -111,247 6,67 -147,219l-225 148c-57,44 -94,65 -153,119l-127 122c-8,7 -24,21 -36,31l-73 247c281,-39 341,-101 585,-191 -379,248 -751,111 -770,638l250 33c580,75 1395,-191 1864,-413 316,-149 1273,-665 1375,-846 11,-17 26,-61 31,-51l109 -217c-1,-103 0,-184 47,-278 101,-198 172,-174 218,-192 120,-276 346,-569 509,-867 191,-350 277,-636 335,-1067 144,-1062 -174,-1512 -425,-2355 -23,-23 -137,42 -127,-480 3,-151 22,-279 15,-414 -277,-23 -111,33 -366,54 -133,11 -93,30 -219,-20 -157,-63 -90,-35 -167,-133l-229 -252c84,38 68,22 130,82 44,43 69,75 119,122l288 24 1776 -1565c299,-201 581,-305 826,-524l45 -45c157,-131 -10,15 413,-128 1856,-628 2055,820 2030,870 80,405 132,699 172,1137 41,445 148,832 178,1166 178,129 98,157 231,256 -425,-1192 -77,-2872 -852,-3725 -366,-402 -1050,-528 -1766,-445 -566,65 -1593,468 -1860,468l-151 4c-120,-40 -13,66 -187,-100 -130,-124 -60,-51 -127,-195 -226,-174 -451,-368 -710,-551 -781,-555 -1549,-937 -2585,-1094 -2218,-338 -3643,745 -4031,770z"/>
   <path class="fil0" d="M8782 12303c-721,1866 -1632,1798 -1790,2226 -128,346 -524,1689 -520,1915 66,141 -82,39 180,134 60,22 76,11 137,42 249,129 32,-28 160,139 285,25 591,121 917,143 360,25 737,-16 1067,6 277,-645 288,-2214 300,-2969 6,-413 -80,-795 -34,-1157 106,153 139,323 141,510 -42,285 107,1466 191,1774l231 -1623c15,-80 28,-164 48,-245 2,-8 41,-141 42,-143 46,-126 27,-77 61,-135 -27,1154 -558,2718 -303,3833 1284,311 1852,2 2711,-39l174 -141c-2,-362 -958,-3409 -881,-3852 249,272 869,2669 871,3032 16,-12 147,-127 208,-199 86,-103 126,-176 193,-282 126,-198 225,-366 334,-600 102,-220 162,-476 219,-721 50,-214 67,-672 183,-816l-33 -491c-151,-175 -214,-280 -359,-446 -170,-194 -225,-199 -525,-247 -1054,-168 -2632,381 -3921,352z"/>
   <path class="fil1" d="M14299 4714c848,87 1626,1138 1563,2128 56,68 14,-55 88,137 41,108 27,30 41,161 11,109 -28,348 -37,476l-74 -117c-198,-463 108,-289 -296,-1039 -204,-379 -53,-329 -327,-620 -294,-311 -536,-702 -945,-887 -189,-85 -257,-96 -393,-232l-516 -2 -123 114c333,706 675,949 869,2109l81 604c157,473 824,213 831,207l56 -367c6,-315 26,-330 142,-467 88,600 -16,1459 -204,1693l-161 484 416 -104 1113 -51c-116,-246 -197,-247 -232,-404 -37,-166 40,-385 107,-512 35,-421 -40,-910 258,-1225l-142 939 266 -50c356,23 963,-50 1316,-110 430,-74 771,-160 1018,-431 -12,-340 -174,-350 -208,-594 -230,-159 -602,-576 -639,-951 -93,-405 -193,-678 -232,-1156 -204,-212 -258,-595 -601,-806 -292,-181 -1276,-318 -1732,122 -293,283 -70,525 -976,764l-283 142c-14,11 -33,27 -44,44z"/>
   <path class="fil2" d="M14256 3681c-116,249 -124,85 -343,327 23,-99 -99,-93 343,-327zm-1791 972l-20 47c77,98 9,71 167,133 126,50 86,31 219,20 255,-21 89,-77 366,-54 7,135 -12,263 -15,414 -10,522 103,457 127,480l29 -134c63,440 1068,2022 151,3584 -88,150 -451,728 -600,840 -46,18 -117,-6 -218,192 -47,93 -48,175 -47,278 36,173 18,200 98,322 86,131 49,-43 172,187 618,42 660,-332 1357,-461 619,-114 1047,-122 1152,-719l-283 -204c-85,0 -298,153 -263,-429 38,-644 81,-504 197,-537 188,-234 291,-1093 204,-1693 -116,137 -136,152 -142,467l-56 367c-7,6 -675,266 -831,-207l-81 -604c-194,-1159 -536,-1403 -869,-2109l123 -114c176,-119 241,-101 492,-89 194,9 241,5 406,83 11,-18 30,-33 44,-44l283 -142c906,-239 682,-481 976,-764 456,-440 1439,-303 1732,-122 343,212 397,594 601,806 -69,-1027 -274,-2015 -1472,-1907 -1014,91 -1635,755 -2207,1141l197 -185c465,-404 857,-723 1520,-937 1276,-413 1551,284 1872,726 25,-51 -174,-1498 -2030,-870 -424,143 -257,-3 -413,128l-45 45c-246,219 -527,324 -826,524l-1776 1565 -288 -24z"/>
   <path class="fil1" d="M1312 3140c-82,955 -449,1617 -896,2186 -305,389 -531,590 18,876 380,198 663,282 1118,387 266,-45 853,90 1017,286 11,-14 32,-46 34,-40l17 -207c117,-395 154,-1059 339,-1541 119,-309 125,-97 205,-548 166,-933 848,-1628 858,-1781 -40,-127 -34,-91 -87,-173 -426,-650 -1815,-721 -2374,204 -95,157 -97,222 -248,351z"/>
   <path class="fil0" d="M4500 16993c536,28 268,-199 883,533 1010,1202 1636,941 3356,953 472,3 927,80 1403,98 490,18 980,15 1465,36 827,36 1675,-133 1872,-1086 667,83 1064,398 1718,65 411,-209 708,-793 406,-1323l-132 191c-208,384 -278,609 -707,935 -272,220 -831,-221 -1118,-400 -207,-130 -318,-206 -526,-357 -182,-133 -347,-284 -415,-6 -7,12 -18,17 -19,37 -2,28 -26,65 -29,81 -2,13 -4,159 -3,211 -10,421 170,682 22,1025 -308,79 -522,-47 -1256,224 -9,3 -28,12 -42,18 -15,11 62,37 -142,83 -125,28 -1086,-219 -1416,-272l247 -93c138,-36 47,37 158,-69 40,-339 195,-471 34,-798 -347,48 -109,8 -238,131 -100,96 63,-15 -91,94 -152,108 140,-3 -137,64 -201,293 -199,393 33,624 -209,-88 -200,-109 -318,-256 -58,64 -191,238 -288,304 -481,438 -2732,146 -2989,-528 -23,-235 19,-642 109,-839 -43,-214 -127,-223 -217,-414 -234,53 -607,274 -822,394 -313,173 -401,160 -626,252 -14,6 -32,13 -45,19l-131 72z"/>
   <path class="fil2" d="M4424 2406c-224,-102 -479,-281 -693,-397 213,3 560,199 693,397zm-2617 -388l-114 69c-133,-42 -104,-62 -71,76 -37,161 -26,85 -96,237 -37,80 -55,112 -85,209 -55,177 -80,345 -129,531 152,-128 154,-194 248,-351 559,-925 1948,-854 2374,-204 54,82 48,46 87,173 -10,153 -692,848 -858,1781 -80,451 -86,240 -205,548 -185,482 -222,1146 -339,1541 35,74 27,15 36,157l-24 189c-75,363 -92,354 -285,323 -272,77 -643,155 -811,292 91,326 489,319 1049,449 333,78 856,255 1139,257l143 33c-153,-1044 -1307,-2803 186,-5281 128,-213 310,-418 370,-642 202,-62 119,-28 233,-203 -344,-17 -227,-243 -903,-602 -427,-226 -933,-273 -1385,-104 -144,54 -174,98 -310,195 -113,81 -237,177 -252,326z"/>
   <path class="fil3" d="M12320 16714c-107,126 -915,253 -1238,273 -528,32 -1002,-64 -1504,-97 -18,286 -95,527 10,776l206 -300c278,-67 -15,45 137,-64 153,-109 -10,2 91,-94 129,-123 -109,-83 238,-131 161,327 6,460 -34,798 -14,91 11,61 -45,140l550 74c24,-304 16,-361 110,-560 77,-54 32,-13 111,-99 147,-159 19,-108 185,-201 145,93 79,9 170,208l117 246 86 354 515 -117c-45,-205 -92,-196 -7,-340l57 -539c313,54 146,135 394,210 14,9 41,-7 48,12 39,111 4,-37 110,43l24 -346c-1,-52 1,-198 3,-211 3,-16 26,-53 29,-81 2,-20 13,-25 19,-37 -83,-60 -241,187 -39,-232 -77,-57 -130,-481 -182,-644 -2,-363 -622,-2760 -871,-3032 -77,443 878,3489 881,3852l-174 141z"/>
   <path class="fil3" d="M2323 13664c734,-224 848,59 1314,74 230,6 1264,501 1713,608 2744,651 3162,-2074 3902,-3091 62,-198 106,-243 316,-271l225 -148c153,-152 37,29 147,-219 88,-198 116,-378 26,-548 -200,322 -169,434 -491,687 -309,243 -311,249 -498,610 -223,429 -638,1054 -784,1436l-91 -75c-261,-250 -617,-911 -1611,-856 262,-48 1238,333 1577,958 -131,427 -661,818 -1061,1028 -507,265 -1037,349 -1679,235 -591,-105 -1029,-306 -1534,-538 -390,-179 -760,-245 -1210,-96 -190,63 -214,109 -262,208z"/>
   <path class="fil3" d="M12485 10722c134,66 131,-117 110,80 -118,70 -33,18 -117,80 -81,60 -1770,1386 -3039,1181 -358,-58 -50,18 -193,-82l-250 -33c-79,79 -33,9 -115,141 -100,161 -46,73 -98,214 1289,30 2867,-519 3921,-352 300,48 355,53 525,247 145,166 208,271 359,446 -6,-551 -183,-1098 -286,-1607l-408 -74c-123,-230 -86,-57 -172,-187 -79,-122 -62,-149 -98,-322l-109 217c-5,-10 -20,34 -31,51z"/>
   <path class="fil3" d="M13890 16436c-133,294 -192,89 -255,442 195,154 461,361 679,291 -45,-292 13,56 -70,-239l-13 -208c286,-29 296,172 591,244 145,170 1,37 217,124l253 -493 -199 -82 -200 -196c-431,-280 -230,-345 283,-347 -129,-88 191,-84 -255,-98 39,27 514,163 611,197 55,-266 117,-292 -2,-525 -316,-53 -444,23 -651,-202l225 -248c244,-29 62,-13 173,-135l-735 -243c-4,492 -422,1487 -653,1718z"/>
   <path class="fil4" d="M3838 4622c351,-997 724,-1569 1350,-2192 1230,-1224 3314,-2045 5129,-1769 1608,245 2012,773 2517,982 -293,-612 -1831,-1023 -2496,-1198 -1556,-411 -4066,533 -5265,1811 -396,422 -1251,1551 -1236,2366z"/>
   <path class="fil3" d="M3970 14514l186 155c111,69 16,-36 171,109 -309,150 -190,166 -682,235 -222,2 -116,54 -114,252 0,32 53,274 62,330 208,-23 335,-124 497,-76l340 22c65,320 -116,48 -237,454l-319 194c83,273 176,280 383,472 18,-146 70,-190 176,-284 141,-125 211,-124 390,-154 -40,340 -82,120 -104,464 95,43 13,34 140,30 60,-2 113,-19 169,-41 145,-58 216,-109 373,-168 -59,-296 38,-55 -130,-274 -54,-71 -114,-132 -163,-200 -307,-364 -590,-1187 -581,-1747 -123,14 -177,20 -298,57 -55,17 -82,23 -130,50 -135,79 -64,1 -130,120z"/>
   <path class="fil5" d="M15531 15546c119,233 57,259 2,525 -96,-34 -572,-170 -611,-197 446,14 126,10 255,98 157,15 189,52 294,126 37,377 -36,515 -378,417l199 82 -253 493c-216,-87 -73,46 -217,-124 62,231 15,227 -58,428 -310,54 -376,-56 -450,-225 -219,70 -485,-136 -679,-291l-719 -480c116,-212 231,-329 357,-556 115,-208 141,-406 279,-561l168 -778 823 215 735 243c-111,122 70,106 -173,135 345,-40 793,-13 426,450zm-2636 -4583l408 74c103,509 279,1056 286,1607l33 491c53,928 -214,2636 -842,3205 -95,86 -17,52 -113,58 -203,420 -44,172 39,232 68,-278 233,-127 415,6 207,151 319,228 526,357 287,179 845,620 1118,400 430,-326 500,-550 707,-935l132 -191c-4,-371 144,-606 80,-1143 -512,-322 -1266,-594 -1968,-710 76,-882 61,-1040 635,-1460 -306,100 -371,245 -563,451 -55,-434 -62,-840 -136,-1276 -66,-388 -203,-753 -251,-1117 545,-389 696,-294 1370,-462 818,-205 504,-562 887,-871 -369,96 -52,62 -275,-37 -192,-86 -30,-73 -261,-63l283 204c-105,598 -533,605 -1152,719 -698,129 -739,503 -1357,461z"/>
   <path class="fil3" d="M6848 17602c-99,159 -59,78 -212,164 301,160 478,198 809,254 -17,-309 61,-470 173,-676l124 -134c157,-122 87,-55 177,-83 203,189 74,214 234,382 122,226 35,384 4,619 186,-17 515,-6 535,-181l-17 -427c2,-97 -1,-135 32,-231 50,-144 49,-100 90,-150 202,79 91,87 304,182l213 388c137,-196 133,-489 163,-777 -469,78 -846,116 -1326,85 -405,-26 -749,-147 -1123,-170 -17,163 -19,277 -73,432 -19,55 -61,136 -68,156 -59,165 -22,-14 -39,167z"/>
   <path class="fil5" d="M2965 8507c-24,-128 -46,-156 -92,-273l851 62c-283,-2 -806,-180 -1139,-257 -560,-130 -959,-123 -1049,-449 167,-137 538,-215 811,-292 -271,-46 -566,61 -837,142 15,-311 4,-531 -156,-735 94,-94 -51,-38 198,-116 -455,-105 -738,-189 -1118,-387 -549,-285 -323,-487 -18,-876 447,-570 814,-1231 896,-2186 49,-186 74,-355 129,-531 30,-97 49,-129 85,-209 70,-153 59,-76 96,-237 -16,-246 343,-785 465,-903 825,-807 2542,-184 3256,265 120,-28 136,57 90,-68 -248,-31 -2933,-1833 -3881,379 -294,686 -385,1501 -588,2225 -425,1518 -2006,1830 121,2488 254,78 307,170 369,454 81,372 -39,410 -75,722 475,535 1295,197 1587,784z"/>
   <path class="fil5" d="M5568 14486c644,66 769,27 1332,-58l-546 1949c-393,-504 -696,-1054 -786,-1891zm-1931 -748c292,122 676,286 930,449 -270,113 -695,135 -962,301 -323,201 -112,677 -157,1039 102,124 55,69 122,251 68,185 30,143 115,269l-58 -402c214,-95 246,-145 462,-125 -163,-48 -290,52 -497,76 -9,-55 -62,-298 -62,-330 -2,-198 -108,-250 114,-252 -97,-74 -231,-236 -120,-413 84,-135 267,-92 445,-85 66,-119 -6,-41 130,-120 47,-27 74,-33 130,-50 121,-37 175,-43 298,-57 278,-53 611,36 875,177l49 455c38,56 20,15 68,127 120,277 116,440 316,799 99,178 104,148 146,318l-581 344c-157,60 -229,110 -373,168 -55,22 -109,40 -169,41 -127,4 -45,12 -140,-30 -90,158 -138,211 -361,250l-4 67 146 -10 131 -72c13,-6 30,-13 45,-19 225,-91 313,-78 626,-252 215,-119 588,-341 822,-394 90,191 174,200 217,414l32 -37c5,-19 18,-64 23,-74 60,-109 37,-63 75,-115 -4,-227 392,-1569 520,-1915 159,-429 1069,-361 1790,-2226 51,-141 -2,-54 98,-214 82,-132 36,-62 115,-141 19,-527 391,-390 770,-638 -244,90 -303,152 -585,191l73 -247c-741,1017 -1158,3742 -3902,3091 -450,-107 -1483,-603 -1713,-608z"/>
   <path class="fil0" d="M5568 14486c90,837 393,1387 786,1891l546 -1949c-563,86 -688,124 -1332,58z"/>
   <path class="fil5" d="M13947 2142c266,1 1294,-402 1860,-468 716,-83 1400,43 1766,445 775,853 428,2532 852,3725 39,27 57,13 119,114 11,17 82,202 83,205 45,131 90,237 179,391 34,244 196,254 208,594 -246,272 -587,357 -1018,431 -352,61 -960,133 -1316,110l940 9c-49,169 -146,269 -99,387 241,-967 2233,-18 1367,-1606 -626,-1149 -457,-1524 -628,-2891 -131,-1053 -476,-1824 -1492,-2016 -1033,-196 -2005,256 -2822,571z"/>
   <path class="fil5" d="M4657 2202c-114,175 -32,141 -233,203 -60,224 -242,430 -370,642 -1493,2478 -339,4237 -186,5281l131 243c187,327 342,649 548,953l669 856c-521,-185 24,-230 -1105,-593 -502,-161 -869,-270 -827,-887 149,-55 271,-117 407,-129 -126,1 -179,19 -303,59 -255,83 -26,120 -277,52 292,806 262,775 1145,1053 440,139 421,191 710,398 278,198 403,118 694,385 -103,-201 -418,-347 -531,-640 -180,-128 -275,-292 -417,-485 -114,-156 -238,-345 -315,-528 -555,-784 -1030,-2665 -935,-3852 57,-710 256,-1319 531,-1875 183,-370 757,-1269 968,-1366 -167,67 -108,168 -303,230z"/>
   <path class="fil0" d="M13552 15280c-39,255 0,427 77,660 49,148 139,389 261,495 232,-231 649,-1226 653,-1718l-823 -215 -168 778z"/>
   <path class="fil6" d="M9340 13292c-127,198 35,1490 54,1702 40,447 115,1383 60,1831l-521 83c-330,-22 -707,19 -1067,-6 -326,-22 -631,-118 -917,-143l-5 45 85 42c374,23 718,144 1123,170 479,31 856,-7 1326,-85 -30,287 -26,580 -163,777l-213 -388c178,206 196,491 120,717 97,-65 230,-240 288,-304 118,147 110,169 318,256 -232,-231 -234,-331 -33,-624l-206 300c-105,-249 -28,-490 -10,-776 502,34 976,129 1504,97 324,-20 1132,-147 1238,-273 -859,41 -1427,351 -2711,39 -255,-1115 277,-2680 303,-3833 -34,58 -15,9 -61,135 -1,2 -40,135 -42,143 -20,81 -33,165 -48,245l-231 1623c-84,-309 -232,-1489 -191,-1774z"/>
   <path class="fil2" d="M10680 9900c130,754 1448,620 1254,-202 -77,-325 -301,-587 -727,-504 -303,59 -600,276 -526,706z"/>
   <path class="fil0" d="M4527 14287c-10,560 274,1383 581,1747 33,-2 57,48 176,-105 63,-81 91,-166 133,-288 92,-266 75,-417 35,-721l-49 -455c-264,-141 -597,-230 -875,-177z"/>
   <path class="fil2" d="M4397 9066c77,184 201,373 315,528 141,194 237,357 417,485 154,-377 299,-184 509,-472 250,-343 -90,-1033 -675,-898 -357,83 -269,288 -566,357z"/>
   <path class="fil2" d="M3690 8772c-136,12 -258,74 -407,129 -42,617 326,726 827,887 1129,363 585,408 1105,593l-669 -856c-206,-305 -361,-627 -548,-953 -358,111 298,-200 -116,98 -127,92 175,10 -193,103z"/>
   <path class="fil2" d="M12484 15754c53,163 105,587 182,644 96,-6 18,28 113,-58 628,-569 895,-2276 842,-3205 -116,144 -133,602 -183,816 -58,246 -117,502 -219,721 -108,234 -208,403 -334,600 -68,106 -107,179 -193,282 -60,72 -192,187 -208,199z"/>
   <path class="fil5" d="M6156 975c388,-26 1812,-1108 4031,-770 1036,158 1803,540 2585,1094 259,184 484,377 710,551l40 8c-1418,-1464 -3186,-2171 -5299,-1727 -338,71 -627,52 -984,84l330 71c-12,6 -70,36 -87,43l-630 250c-241,109 -492,280 -696,395z"/>
   <path class="fil2" d="M8933 16908l521 -83c55,-448 -20,-1384 -60,-1831 -19,-211 -181,-1504 -54,-1702 -2,-187 -35,-357 -141,-510 -46,362 40,744 34,1157 -12,755 -23,2324 -300,2969z"/>
   <path class="fil3" d="M16298 8025c47,104 89,108 185,149 236,8 707,233 931,339 1,-15 3,-189 4,-196l47 -149c107,38 68,43 58,-83 -47,-118 50,-219 99,-387l-940 -9 -266 50 142 -939c-299,315 -224,804 -258,1225z"/>
   <path class="fil6" d="M6233 10842c-19,221 9,109 -75,221 -66,411 -339,845 -583,1047l294 -1132 -9 -149 -106 -20c42,97 -269,1247 -353,1480 -551,349 -1270,134 -1801,-123 -254,-123 -459,-257 -738,-376 -219,-93 -551,-116 -782,-58 -331,83 -135,51 -197,106 360,24 694,-91 1024,95 239,135 417,256 652,356 186,51 352,84 469,210 780,53 1291,339 1890,-620 377,-604 529,-1318 192,-1969 85,493 126,166 122,933z"/>
   <path class="fil3" d="M2347 7297c193,31 209,40 285,-323l24 -189c-9,-142 -1,-82 -36,-157l-17 207c-1,-7 -23,26 -34,40 -165,-196 -751,-331 -1017,-286 -249,78 -105,22 -198,116 161,203 171,423 156,735 271,-81 566,-188 837,-142z"/>
   <path class="fil5" d="M10143 7931c309,93 237,403 -67,284 -1,-2 -108,51 -39,-172 35,-115 3,-32 106,-113zm-259 330c79,728 921,555 908,-116 -6,-311 -189,-518 -519,-464 -314,51 -425,251 -389,580z"/>
   <path class="fil2" d="M15862 6842c-45,189 -33,-175 -65,-305 -88,-353 -287,-820 -491,-1100 -263,-359 -740,-609 -1388,-715 136,136 204,146 393,232 409,184 651,575 945,887 274,291 123,241 327,620 405,750 98,576 296,1039l74 117c9,-128 48,-367 37,-476 -13,-131 1,-53 -41,-161 -73,-192 -31,-70 -88,-137z"/>
   <path class="fil0" d="M4354 17004l4 -67c-185,-66 -90,25 -130,-131 -138,-57 -85,-11 -206,-142 -31,-33 -94,-114 -131,-164 -102,-140 -171,-237 -205,-454 -85,-126 -47,-83 -115,-269 -67,-182 -21,-127 -122,-251 -64,367 -515,473 -138,1025 232,340 621,455 1044,452z"/>
   <path class="fil2" d="M13635 16878c63,-354 122,-148 255,-442 -122,-106 -212,-347 -261,-495 -77,-234 -116,-405 -77,-660 -138,155 -164,353 -279,561 -126,227 -241,345 -357,556l719 480z"/>
   <path class="fil3" d="M15121 9578c232,-10 69,-23 261,63 223,100 -94,134 275,37l456 -571c-158,-8 -311,-6 -472,-9 -26,0 -158,-4 -176,-8 -187,-46 -47,44 -156,-99l-416 104 161 -484c-117,33 -160,-106 -197,537 -34,582 178,429 263,429z"/>
   <path class="fil2" d="M16423 8941c335,-40 691,-56 914,-193 -66,-229 -147,-246 -376,-346 -146,-64 -345,-182 -477,-227 -97,-42 -138,-45 -185,-149 -67,127 -144,346 -107,512 35,157 116,158 232,404z"/>
   <path class="fil5" d="M5936 7497c108,375 -306,428 -219,19l219 -19zm398 471c325,-662 -497,-968 -728,-492 -291,599 461,1037 728,492z"/>
   <path class="fil7" d="M9221 18038c-258,19 -298,35 -529,-91 -21,176 -350,164 -535,181 31,-235 118,-393 -4,-619 2,191 50,455 -118,576 -180,131 -351,66 -502,-48 -74,-287 -16,-447 85,-694 -111,206 -189,367 -173,676 -331,-56 -508,-94 -809,-254 153,-86 113,-4 212,-164 -206,64 -350,28 -518,-29 -94,-365 162,-593 363,-730l-277 187c-15,10 -46,48 -57,34 -12,-16 -41,24 -63,35l77 -464 -32 37c-90,197 -133,605 -109,839 258,674 2508,966 2989,528z"/>
   <path class="fil2" d="M5108 16034c49,67 109,129 163,200 167,219 71,-22 130,274l581 -344c-42,-170 -48,-140 -146,-318 -199,-359 -196,-523 -316,-799 -48,-112 -30,-71 -68,-127 40,305 57,456 -35,721 -42,122 -70,206 -133,288 -119,153 -143,104 -176,105z"/>
   <path class="fil3" d="M2965 8507c3,74 0,146 26,212 58,147 57,103 119,165 252,69 23,32 277,-52 124,-41 177,-58 303,-59 368,-93 65,-11 193,-103 413,-297 -243,13 116,-98l-131 -243 -143 -33 -851 -62c46,117 68,145 92,273z"/>
   <path class="fil1" d="M10841 17530c-59,241 -105,331 -20,582 52,71 -6,104 214,145 146,27 219,-10 343,-30l48 -544 -117 -246c-91,-200 -25,-116 -170,-208 -166,93 -38,42 -185,201 -80,86 -35,45 -111,99z"/>
   <path class="fil5" d="M14256 3681c572,-387 1192,-1050 2207,-1141 1198,-108 1403,880 1472,1907 39,477 140,751 232,1156l27 -15c-29,-334 -137,-721 -178,-1166 -40,-438 -92,-732 -172,-1137 -321,-442 -596,-1140 -1872,-726 -662,215 -1055,533 -1520,937l-197 185z"/>
   <path class="fil3" d="M15376 13029c121,-5 138,5 235,-51 196,-113 112,-45 160,-254 -113,-63 -342,-128 -447,-162 -184,173 -174,-104 -497,-46 -243,44 -176,266 -137,455 267,126 360,68 686,58z"/>
   <path class="fil1" d="M12020 17580c33,396 324,499 595,294 126,-238 5,-439 -144,-623 -248,-75 -81,-156 -394,-210l-57 539z"/>
   <path class="fil5" d="M9245 11981c143,100 -165,24 193,82 1269,204 2958,-1122 3039,-1181 84,-62 -1,-10 117,-80 21,-197 24,-14 -110,-80 -103,182 -1060,697 -1375,846 -469,222 -1284,487 -1864,413z"/>
   <path class="fil1" d="M6848 17602c16,-181 -21,-1 39,-167 7,-20 49,-101 68,-156 54,-155 57,-269 73,-432l-85 -42 -250 38c-201,137 -457,365 -363,730 167,57 311,93 518,29z"/>
   <path class="fil0" d="M8691 17946c231,126 271,110 529,91 75,-226 57,-511 -120,-717 -213,-95 -102,-102 -304,-182 -41,51 -40,7 -90,150 -33,96 -30,134 -32,231l17 427z"/>
   <path class="fil5" d="M13309 5694c250,844 569,1293 425,2355 -59,432 -145,717 -335,1067 -162,298 -389,591 -509,867 149,-111 512,-690 600,-840 917,-1562 -87,-3145 -151,-3584l-29 134z"/>
   <path class="fil1" d="M1330 12478l324 99c-11,16 -39,65 -43,75l-15 104 138 -33c-161,-73 -19,-10 -100,-69 213,75 241,122 261,390 20,19 58,70 65,49 9,-26 46,53 37,95l-57 -45c357,60 352,-436 233,-647 -137,-22 -113,9 -238,-114 -5,-5 -16,-23 -19,-27 -6,-7 -20,-36 -28,-49l-548 -11 -10 185z"/>
   <path class="fil5" d="M16423 8941l-1113 51c109,143 -31,53 156,99 18,4 150,8 176,8 161,2 314,1 472,9 520,-143 902,62 1352,-320l-2 -619 -47 149c-1,7 -3,181 -4,196 -223,-105 -694,-331 -931,-339 133,45 332,163 477,227 228,101 310,117 376,346 -224,137 -579,153 -914,193z"/>
   <path class="fil4" d="M2450 13260c603,-50 452,-1715 -659,-1218 247,3 575,143 684,378 103,222 137,722 -25,840z"/>
   <path class="fil6" d="M13918 4723c648,106 1125,355 1388,715 205,280 403,747 491,1100 33,131 20,494 65,305 64,-990 -715,-2041 -1563,-2128 -166,-78 -212,-74 -406,-83 -251,-12 -316,-30 -492,89l516 2z"/>
   <path class="fil0" d="M3686 16046c192,45 322,71 507,-51 121,-406 302,-134 237,-454l-340 -22c-216,-19 -248,30 -462,125l58 402z"/>
   <path class="fil1" d="M15093 16514c342,98 415,-40 378,-417 -105,-74 -137,-111 -294,-126 -514,2 -714,67 -283,347l200 196z"/>
   <path class="fil0" d="M7675 17927c-111,-221 -56,-390 126,-538 8,3 184,-26 226,309 23,185 -36,245 -93,350 -171,-60 -201,16 -91,-164 -172,69 -57,78 -168,44zm-58 -584c-101,247 -159,407 -85,694 151,114 322,179 502,48 167,-121 120,-385 118,-576 -159,-168 -31,-193 -234,-382 -91,28 -20,-39 -177,83l-124 134z"/>
   <path class="fil0" d="M14314 17169c74,169 141,280 450,225 73,-201 120,-197 58,-428 -294,-72 -305,-273 -591,-244l13 208c83,295 24,-53 70,239z"/>
   <path class="fil1" d="M3645 15012c492,-69 373,-85 682,-235 -155,-145 -61,-40 -171,-109l-186 -155c-178,-7 -361,-51 -445,85 -110,178 23,339 120,413z"/>
   <path class="fil1" d="M15531 15546c367,-463 -81,-490 -426,-450l-225 248c207,225 335,149 651,202z"/>
   <path class="fil0" d="M4256 16661l-29 145c14,7 35,1 40,22l65 66c7,9 17,29 25,43 223,-39 270,-92 361,-250 23,-343 64,-123 104,-464 -179,29 -249,29 -390,154 -106,94 -158,138 -176,284z"/>
   <path class="fil0" d="M6158 11064l-289 -85 -294 1132c244,-202 516,-636 583,-1047z"/>
   <path class="fil7" d="M12472 17251c148,183 269,385 144,623 -271,205 -562,102 -595,-294 -85,144 -38,135 7,340l-515 117 -86 -354 -48 544c14,-6 32,-14 42,-18 734,-272 948,-145 1256,-224 148,-344 -32,-604 -22,-1025l-24 346c-106,-80 -71,68 -110,-43 -7,-19 -34,-4 -48,-12z"/>
   <path class="fil5" d="M4199 5430c159,-224 1004,-824 1464,-949 -635,-175 -1348,543 -1464,949z"/>
   <path class="fil5" d="M10742 4953c451,179 1130,800 1366,1116 -22,-485 -765,-1133 -1366,-1116z"/>
   <path class="fil1" d="M7675 17927c110,34 -4,25 168,-44 -110,180 -80,104 91,164 57,-106 116,-165 93,-350 -41,-335 -218,-306 -226,-309 -182,149 -237,318 -126,538z"/>
   <path class="fil3" d="M6374 16634l-77 464c22,-11 51,-50 63,-35 11,15 42,-24 57,-34l277 -187 250 -38 5 -45c-128,-167 89,-10 -160,-139 -61,-31 -77,-20 -137,-42 -262,-95 -114,7 -180,-134 -39,52 -16,6 -75,115 -6,10 -18,55 -23,74z"/>
   <path class="fil6" d="M10226 17876c-111,106 -21,34 -158,69l-247 93c330,53 1291,300 1416,272 204,-46 127,-71 142,-83 -124,20 -197,57 -343,30 -220,-41 -162,-74 -214,-145 -85,-251 -39,-342 20,-582 -94,199 -87,257 -110,560l-550 -74c57,-79 31,-49 45,-140z"/>
   <path class="fil6" d="M15376 13029c-326,9 -419,68 -686,-58 -39,-189 -106,-411 137,-455 322,-58 313,219 497,46 -286,-78 -470,-283 -744,31 -57,205 -7,398 162,500 220,133 470,30 635,-63z"/>
   <path class="fil8" d="M18167 5603c38,375 410,793 639,951 -89,-155 -134,-260 -179,-391 -1,-3 -73,-188 -83,-205 -62,-101 -80,-87 -119,-114 -133,-98 -53,-126 -231,-256l-27 15z"/>
   <path class="fil6" d="M3686 16046c33,217 103,314 205,454 36,50 100,131 131,164 121,130 68,85 206,142l29 -145c-207,-192 -299,-199 -383,-472l319 -194c-185,122 -316,96 -507,51z"/>
   <path class="fil3" d="M4028 12498c-117,-126 -283,-158 -469,-210l310 255c349,298 495,516 635,926 8,-458 -311,-764 -575,-941 72,-48 -94,-84 98,-30z"/>
   <path class="fil8" d="M1596 12756l15 -104c4,-11 32,-59 43,-75l-324 -99 -214 -18c49,177 -179,39 181,208 95,45 211,76 298,88z"/>
   <path class="fil4" d="M10036 8044c-69,223 38,169 39,172 304,119 377,-191 67,-284 -103,80 -71,-2 -106,113z"/>
   <path class="fil7" d="M1940 13142c5,5 0,216 228,33 109,-88 164,-368 133,-522 -61,-294 -71,-131 -127,-158 119,212 124,707 -233,647z"/>
   <path class="fil4" d="M5936 7497l-219 19c-87,409 327,356 219,-19z"/>
   <path class="fil6" d="M4424 2406c-133,-198 -481,-394 -693,-397 214,117 469,296 693,397z"/>
   <path class="fil3" d="M5869 10979l289 85c84,-112 56,0 75,-221l-93 91c-5,-12 -26,20 -37,32l-244 -136 9 149z"/>
   <path class="fil5" d="M1262 12111l590 -251c5,-15 21,-15 31,-23 -154,-1 -217,19 -370,89 -25,11 -146,75 -155,81 -115,81 -73,67 -96,103z"/>
   <path class="fil7" d="M1116 12460c29,-156 0,-49 58,-173l88 -176c-89,44 -166,61 -215,177 -21,49 -27,38 -6,101 72,206 4,19 74,72z"/>
   <path class="fil7" d="M14256 3681c-442,234 -320,228 -343,327 219,-241 227,-78 343,-327z"/>
   <path class="fil8" d="M13796 2146c-34,-40 -84,-109 -98,-125 -11,-13 -43,-54 -56,-67 -76,-75 -19,-24 -120,-95l-40 -8c67,144 -3,71 127,195 173,166 66,60 187,100z"/>
   <path class="fil7" d="M1734 12723c173,218 2,-27 78,171 74,193 -34,52 83,150 -20,-268 -47,-314 -261,-390 80,60 -61,-3 100,69z"/>
   <path class="fil7" d="M9253 11255c12,-10 28,-24 36,-31l127 -122c59,-53 96,-75 153,-119 -210,28 -254,73 -316,271z"/>
   <path class="fil7" d="M9990 10795c87,49 75,48 101,97l177 -30c6,-34 18,-41 28,-62l-306 -6z"/>
   <path class="fil7" d="M12446 4701l20 -47c-49,-47 -75,-79 -119,-122 -63,-61 -46,-44 -130,-82l229 252z"/>
   <path class="fil6" d="M4358 16937c-8,-15 -18,-35 -25,-43l-65 -66c-5,-21 -27,-15 -40,-22 41,155 -54,65 130,131z"/>
   <polygon class="fil6" points="1693,2086 1807,2017 "/>
  </g>
 </g>
</svg>
