<?xml version="1.0" encoding="UTF-8"?>
<svg width="263.21" height="322.43" enable-background="new 0 0 263.208 322.434" viewBox="0 0 263.208 322.434" xmlns="http://www.w3.org/2000/svg">
 <g fill-rule="evenodd">
  <path d="m90.179,220.72c1.836,10.154 5.293,22.681 5.616,31.647 .217,8.853 2.053,19.44 2.592,23.542 .649,4.213 1.298,23.762.108,28.406s-4.535,13.714 1.297,15.768c9.611,3.563 19.98,2.16 27.108-.108 2.7-.865 4.104-2.269 4.429-3.781 .43-2.268-.865-6.479-2.054-8.747-.647-1.189-1.511-3.132-1.728-4.752-1.188-7.238-2.484-15.121.324-12.853 3.887,3.024 10.908,4.106 14.366,1.404 1.942-1.621 1.942,1.295 1.729,6.048-.108,2.593-6.049,11.124-4.428,19.44 1.295,6.59 23.003,5.726 28.512,1.729 5.509-3.889-.434-11.449-.108-26.027 .217-8.211 10.262-59.512 8.425-89.105-.864-13.716 4.967-39.313 9.288-63.614 2.374-13.825-12.638-74.412-18.252-77.114-16.52-7.896-133.38-40.513-139-18.048 .541,5.832-2.051,14.257-1.188,15.769 .757,1.512 4.212,11.34 3.348,15.769-.972,4.427-.756,12.204-2.268,18.469-1.512,6.263-2.916,13.608-2.916,24.624 0,11.126-2.375,11.88-1.729,19.009 .756,7.021-7.128,26.892-11.34,31.43-4.211,4.642-3.78,7.56-7.991,10.582-4.212,2.918-4.752,6.265-3.564,7.237s0,2.916 0,2.916 2.376,1.295 3.78-2.916c1.404-4.319.972,1.62.972,1.62s2.592-3.997 2.808-8.208c.216-4.322 9.181-8.856 17.173-29.81 .433,7.885 4.86,29.377 8.641,35.966s9.612,12.636 14.688,20.844c5.292,8.208.432,19.548 2.053,23.868 1.728,4.428 2.268,6.804 4.86,13.934 2.16,5.726 2.483,11.124 4.32,16.958 1.295,3.888.755,7.129 1.728,14.039 .755,5.078.108,2.16 1.08,10.693s-.647,8.747-1.08,15.443c-.433,7.561 1.836,6.374 6.587,8.425 3.781,1.837 7.884,1.621 13.069,1.189 5.184-.216 14.041-1.403 13.393-5.939-1.08-8.208-2.592-8.964-3.456-12.527-1.188-4.97-2.483-9.723-3.564-20.199-1.403-13.283-1.728-7.882-2.376-17.713-.65-9.49 4.427-27.75 4.751-35.31z" fill="#697680" stroke="#000" stroke-linecap="round" stroke-linejoin="round" stroke-miterlimit="2.4142" stroke-width=".432"/>
  <path d="m120.1,196.21c4.212,3.563-2.808-10.37-1.944-10.801 4.536-2.268 2.053-11.773-1.621-11.665-5.508.108 3.78-9.181-5.938-8.1-3.673.322 4.32-5.184-8.641-2.376 .646,0-10.801-28.189-11.233-35.424-.54-7.238-16.092-32.943-16.092-32.943 4.321-3.997 9.828-3.888 23.112,3.35 14.149,7.777 43.851-8.21 58.537,3.563 13.934,11.232 16.958,36.612 18.036,40.934 2.595,9.829-6.695,29.271-8.961,35.641-1.62,4.32-5.186,18.684-3.565,28.082 .864,5.292-.215,11.449-2.808,15.985-5.4,9.829 7.668-5.726-.434,7.561-1.403,2.268-4.211,5.939-3.779,8.639 .216.973 9.827-11.88-1.296,7.129-.973,1.729-.539,4.319-.864,6.912-.215,2.16-1.404,9.287-.108,7.129 8.424-14.583-.322,5.075-1.296,7.452-4.104,10.259 3.78,2.807.217,11.338-3.888,9.289-2.916,16.849-3.779,19.55-1.729,5.724 4.103,7.991-.648,8.639-1.836.217 1.078,10.91 2.485,9.075 2.374-3.241 6.154-1.514 7.343,1.295 1.943,4.967-.434,4.21-7.129,3.888-4.535-.108-8.316-1.729-9.396-3.78-1.297-2.485-.108-11.666 3.131-17.28 .973-1.621.864-3.566.973-5.94 .217-3.027-.864-4.431-1.621-3.566-.972,1.081-3.346,2.16-6.695,1.837-6.373-.542-7.776-4.105-9.722-2.918-1.511.972.217,11.126.649,13.069 .972,5.834 3.131,4.644 3.888,12.635 .324,2.702-2.269,3.672-3.24,3.997-6.156,2.593-12.096,2.916-19.657,2.376-5.509-.324-1.079-3.78.648-2.376 1.729,1.512 5.184-.325 6.372-3.455s1.837-3.458 4.32-3.566c2.483-.214 5.077-3.563 3.349-5.076-1.944-1.728-1.512-2.16.864-1.404 1.62.648-.108-2.593-.864-3.671-1.188-1.729-2.7-2.593-4.32-4.753-1.837-2.593-2.268-3.671-.324-2.159 2.161,1.512 3.133,4.105 4.536,2.915 2.376-1.943 1.943-4.75 1.943-8.208-.106-2.915-2.376-4.322-4.104-6.048-4.427-4.428-4.319-6.804.863-1.621 2.378,2.376 1.081-10.584-.214-11.665-4.321-4.103-2.484-5.292.214-3.13 3.457,2.699.864-2.702-.972-4.753-3.348-3.563-4.643-9.395-2.268-8.102 2.376,1.189 4.86-11.338.756-15.768-4.212-4.319-5.832-8.747-2.593-6.048 3.349,2.81 4.213-2.699 2.81-4.859-1.405-2.268-3.023-4.969-.864-3.888 2.268,1.081 4.428-3.889 2.484-7.452-1.837-3.566-1.081-7.129-4.968-10.91-3.78-3.888-2.162-5.509.324-2.591 2.482,3.021 5.184,2.266 5.184-.217 0-3.54-4.32-9.16-1.08-6.45z" fill="#3a444d"/>
  <path d="m162.11,320.19c4.536-1.081 8.748-2.162 7.667-8.424-1.078-6.373-3.024-13.934-1.943-23.437 1.081-9.506 4.536-31.861 5.292-37.693 .648-5.726 2.808-26.677 3.024-34.885 .108-8.21-.756-18.47.865-30.133 1.728-11.665 6.912-40.069 8.099-46.336 1.296-6.371-3.563-26.458-3.672-29.483-.108-2.918-9.396-18.039-11.771-17.605-2.484.54-.542,22.464 1.188,25.922 1.837,3.455 5.832,34.021 5.075,38.879-.647,4.645.217,14.367.217,18.145 0,3.889-.973,8.964-1.188,11.34-.108,2.268-1.188-.647-2.054-3.133-.862-2.699-1.942-1.62-.322,3.241 1.404,4.753 2.699,8.641 1.726,10.259-.97,1.729 1.082,6.481-.43,6.806-1.513.217-2.378-5.509-2.699-3.888-.434,1.62 1.187,6.587 2.268,9.073 1.187,2.484 1.727,10.692.432,10.476-1.188-.323-1.513.864-.757,2.807 .648,1.837-.864,8.75-.539,10.91 .217,2.268.322,7.344-1.082,5.075-1.295-2.16-2.697-2.591-1.511,1.729 1.298,4.211.973,14.795 0,13.286-1.62-2.702-2.377-2.054-1.62,1.079 .863,3.241.972,8.964 0,11.449s-1.944-.325-.757,4.428c1.082,4.645.217,6.265-.864,4.967-1.078-1.404-1.727-1.295-.97,1.082 .863,2.268.538,6.479-.108,9.181s-1.838,11.663-1.188,14.147c.756,2.485.864,3.563-.756,2.918-1.621-.758-3.132.537-1.298,1.51 1.945.972 4.753,3.24 3.779,4.969-.97,1.618-.861,2.052.108,2.374 .974.542 1.082,2.81.865,3.566-.434,1.187-.974-2.485-3.889-2.377s-3.78,4.645-4.428,6.049c-.77,1.25-2.06,2.98 3.23,1.68z" fill="#536570"/>
  <path d="m170.53 113.58c2.484 8.855 14.689 28.834 3.458 50.222-5.292 10.259-14.474 15.876-9.829 7.019 8.855-16.849 4.32-32.617 0-40.717-4.428-8.425-4.211-10.91-1.837-14.365 2.38-3.56 7.24-5.51 8.21-2.16z" fill="#f2ede1" stroke="#000" stroke-linecap="round" stroke-linejoin="round" stroke-miterlimit="2.4142" stroke-width=".144"/>
  <path d="m130.68,290.82c-4.43-2.701-4.645-1.19-4.645-1.621-.432-8.533.864-13.177 0-16.418-.756-2.591.864-7.668 0-11.338-.756-3.133 1.296-8.644-.108-14.584s.756-9.828-1.836-13.5c-2.7-3.563-5.939-7.56-2.809-5.507 3.025,1.943 3.89-1.295 3.673-8.964-.216-7.56-.647-7.885-1.62-12.421-.972-4.644.217-5.939 1.404-.756 1.188,5.292 3.996,3.997 3.349-.217-.757-4.319-6.806-18.792-4.753-17.494 2.16,1.292 3.564,5.29 4.536,8.208 .864,3.022.433-5.617-2.159-10.801-2.592-5.294-2.377-11.557-4.969-13.177s-2.376-8.641-6.156-10.799c-.107-2.053 5.4-1.081 1.943-4.538-3.024-3.022-3.671-6.913.108-2.699 5.725,6.156 2.053-.54 1.945-2.269-.433-7.991 7.774-5.939 9.72-2.051 1.943,3.997 19.009,45.9 22.032,73.226 1.404,12.313-2.698,24.515-2.59,35.533 0,3.347-1.298,6.588-1.621,9.614-.217,2.699-1.188,6.262-.217,6.479 1.188.322-.108,4.967-1.729,9.072-.971,2.374-.214,5.507-.971,6.265-3.66,3.78-10.47,2.05-12.52.76z" fill="#181e21"/>
  <path d="m102.06,110.45c-1.079,6.154-3.349,14.471-3.888,24.732-.324,5.509-.433,11.018 1.188,18.578 5.4,26.136 30.671,29.052 22.248,22.573-7.128-5.292-13.068-20.844-12.744-31.753 .108-3.458.322-7.777.863-10.693 1.188-6.696 2.917-12.096 4.32-14.689 2.05-3.67-10.59-16.42-11.99-8.75z" fill="#f2ede1" stroke="#000" stroke-linecap="round" stroke-linejoin="round" stroke-miterlimit="2.4142" stroke-width=".144"/>
  <path d="m161.14,122.01c.973,3.563 6.805,11.663 8.316,23.112 1.296,10.37-1.295,19.115-5.075,26.246-.756,1.401-1.512,3.669.973.97 2.482-2.807 8.208-13.283 6.91-27.973-1.187-12.744-6.049-18.684-7.127-21.492s-1.62-6.373.432-7.56c2.159-1.083 4.86-.542 5.509,1.187-.865-3.023-1.081-3.997-1.838-4.213-1.72-.34-10.03,2.04-8.09,9.71z" fill="#d1cdc3"/>
  <path d="m113.51,119.74c-.215.322-2.914,5.182-4.643,16.307-1.512,9.72-.757,22.681 8.315,35.856 2.593,3.997 2.269,3.026-1.187,0-3.997-3.563-11.665-18.251-10.8-31.753 1.078-16.956 5.399-23.437 4.318-25.271-1.404-2.376-5.4-4.428-7.344-3.458 .217-.97.972-2.482 1.728-2.591 .75-.12 12.63,3.77 9.61,10.9z" fill="#d1cdc3"/>
  <path d="m31.318,76.536c-.541,4.213-1.405,15.445-2.809,22.25-1.296,6.913-2.484,11.879-2.484,21.494 0,9.612-2.699,13.175-.756,25.058 1.296-10.154 2.484-21.708 5.724-23.114 3.348-1.404 4.429,5.184 6.372-6.587 1.944-11.88 7.345-6.913 7.345-11.558s3.348-8.747 6.372-9.395c3.023-.544-19.764-18.149-19.764-18.149z" fill="#7e8f99"/>
  <path d="m104.54,7.415c.971.54 1.512,1.187 4.536-.108 3.023-1.295 15.876-7.668 27.109-7.126 11.232.431 21.386,7.56 23.868,9.287 2.376,1.729 2.701,1.295 4.321-.865 1.617-2.051 4.858-4.103 8.747-4.319s8.208,2.701 11.774,2.915c3.671.217 5.289,2.377 18.466,2.808 15.446.648 21.277-1.079 27.865,4.645 6.591,5.726 19.551,17.174 24.734,24.842 5.185,7.561 9.072,10.368 5.939,13.5-3.023,3.024-7.56,1.187-13.499,7.235-5.4,5.509-8.967,2.593-13.717,6.371-4.862,3.783-2.269,10.587-3.566,11.126-1.296.432-6.479,4.75-7.991,8.642s-4.858,10.584-12.096,11.124c-3.133.217-3.889,5.94-5.509,8.208-1.728,2.376-4.429,3.563-6.371,4.536-2.052.973-3.241,2.051-4.861,3.889-1.729,1.943-1.729,5.4-5.832,5.292-2.916-.108-16.416-25.813-18.253-25.166-1.187.434-.973,2.702 0,4.753 1.082,2.485 3.781,12.636 1.729,14.473-.54.539-3.996-1.621-7.668,1.618-3.671,3.349-3.888,9.397-3.996,10.37-.54,2.16-1.296,6.479-.974,10.693 .434,4.642-2.591,9.503-2.051,10.259 .647.756.973,3.78.325,8.856-.217,2.484 1.187,8.208-.217,12.313-.974,3.024.864,5.94.108,8.316-1.082,3.566.108,23.006-1.729,27.219 0,3.347.756,10.474-.431,12.527-.649.865 0,9.289-1.406,12.096-1.403,2.808-1.617,4.103-2.808,5.292-.539.431-.108,3.563-1.295,4.858-1.188,1.298.217,1.946-2.701,4.322-2.159,1.729-.647,3.35-3.455,5.615-.648.647-2.377,4.213-4.211,4.861-1.729.54-3.133,2.808-6.699,3.241-3.456.54-9.61,2.376-11.987,3.347s-9.396,2.269-7.992-.756c1.403-3.024 3.241-5.94 3.024-12.421-.107-4.967 3.779-6.045 7.021-4.534 1.62.647 1.188-1.945 3.995-3.241 1.621-.647.433-4.861 3.997-7.452 1.295-.973.756-9.614 2.593-13.286 2.052-3.563-1.081-10.476-1.081-14.796 .215-4.322-3.025-13.825-2.376-19.442 .215-2.807-2.916-9.828-2.269-14.903 .216-1.837-2.16-7.019-1.943-11.449-1.837-2.59-3.998-9.611-3.024-15.336-2.592-2.051-3.024-6.911-2.377-13.5-2.592-1.621-3.022-7.774-5.507-7.666-1.728,0-1.406-2.702-2.809-4.861-3.023-4.862-7.344-5.618-9.611-5.94-1.729-.217-3.241-6.696-2.054-10.37 .324-.754-.539-3.347-.971-3.238-2.054.539-5.186,10.69-7.237,13.931s-9.18,16.849-10.478,16.202c-3.995-2.269-12.096-2.81-12.635-9.937-.217-4.536-4.969-7.343-9.828-14.039-2.161-3.026-7.453-4.322-8.533-4.97-2.376-1.729-8.64-3.563-11.447-3.455-2.376,0-4.753-11.448-12.746-21.602-5.833-7.343-6.911-3.455-9.396-5.939-1.729-1.726-1.512-5.832-3.672-6.157-9.493-1.617-13.598-8.638-12.733-11.229 .973-3.455 2.485-7.56 5.617-9.937 3.024-2.268 15.012-14.687 20.413-21.708 5.399-7.129 10.152-9.937 18.36-7.56s9.937-.217 15.013-.65c5.184-.537 9.396-7.666 15.336-4.75 1.404.756 4.428-2.054 8.965,0 4.427,2.051 6.047,1.081 8.855.756 3.457-.539 6.589.216 11.337,2.376z" fill="#798b93" stroke="#000" stroke-linecap="round" stroke-linejoin="round" stroke-miterlimit="2.4142" stroke-width=".36"/>
  <path d="m97.848,42.084c3.779-7.56 3.023-10.584 9.18-16.741 6.157-6.048 9.612-16.847 5.185-12.853-3.564,3.132-4.428,1.837-7.776,6.048s-5.184,11.34-5.399,14.364c-.217,3.024-2.809-1.943-2.592,2.593 .216,4.428-1.621,4.645-2.376.431-.974-4.967 3.563-4.428 3.021-8.642-.43-4.319-3.238-9.937-3.021-6.587 .215,3.241.971,10.584-1.621,6.804s-4.212-6.696-4.428-11.016c-.217-4.213-5.292-8.533-9.828-9.72-4.429-1.189-5.185.108-8.209,1.621-.54.214-1.188.645-4.104,2.482-1.945,1.19-4.969.434-7.237,1.404-4.428,2.162-6.696.216-10.584.973-5.832,1.189-11.125.647-15.12,1.081-3.996.54-11.665,10.801-12.853,15.335-1.188,4.428 3.457,1.298 5.616,3.458 2.052,2.16-7.992,10.799-7.237,14.147 .649,3.241 7.454-.214 11.666-2.376s5.939-1.835 5.184,2.593c-.648,4.428 3.348,4.211 3.564.973 .216-3.349 3.996,2.266 6.047-1.729 2.161-3.997 5.725-16.202 7.561-12.421s0,6.373-.755,8.425c-.648,2.16 3.564,2.16 5.724-1.835 2.053-3.997 9.397-7.777 7.452-4.213-1.835,3.566 0,5.4 3.349,4.645 3.24-.648 7.776-.214 5.399.756s-5.939,3.78-5.939,5.184c0,1.406 23.33,19.765 24.3,11.771 .859-7.991 2.803-10.799 5.828-16.955z" fill="#536570"/>
  <path d="m94.498,78.807c.433-2.054-3.347-4.647-3.347-9.831s.432-7.452.648-9.937c.215-2.591 1.295-7.56 3.023-10.69 2.375-4.321 1.945-7.343-.432-10.153s-2.592-3.455-3.456-4.75c-2.376-3.783-6.265-4.97-7.236-11.235-.972-6.371-7.561-11.557-9.937-11.557-2.268,0 .108,6.159-4.537,5.942-8.316-.434-14.903-4.536-14.255.217 .215,1.187-3.78.97-5.725,1.293-5.185.973-3.133-3.347-5.831-2.482-5.186,1.621-4.429,3.347-9.505,3.672-2.053.217-6.049,2.052-8.641,7.021s1.512,2.268 3.673.431 8.64.864 9.396,3.24c.648,2.269 5.184,3.458-2.376,4.859-6.048,1.19-4.212,3.566-7.02,5.942-2.809,2.268-10.908,6.479-4.537,4.859 6.805-1.62 10.261-7.019 11.989-5.615 4.319,3.347 1.62,4.967 3.348,4.75 1.62-.215 2.809-3.669 2.376-6.479-.541-2.807 2.592-5.078 4.645-6.265 2.159-1.187 6.587-1.727 10.8-4.319 4.212-2.482 10.8-3.133 11.017.216 .215,2.916-1.945,6.048-1.621,7.775 .324,1.406 6.157-1.079 8.965,1.512s10.799,5.833 10.584,9.614c-.108.864-3.456-.648-7.237-.648-3.347,0-10.152-1.621-13.5,1.621-3.24,3.238-5.833,3.995-8.424,2.374s-6.804.217-7.021,3.457c-.323,3.35-.323,5.398-3.563,6.371s-7.777,7.561-3.997,5.4c3.78-2.051 7.993-2.807 9.937-6.373 1.835-3.455 4.86-1.187 7.452-.431s6.588,2.593 8.425,1.62c1.944-.864.324,4.428-2.485,7.777s-5.507,7.561-12.527,9.181-10.477,3.672-10.045,4.211c1.188,1.834 7.237-1.404 9.613-1.621 2.377-.214 7.775-1.835 5.401,2.376-1.405,2.376 1.619,3.997 4.211-1.187 2.592-5.186 5.616-8.533 6.804-7.777s-1.188,2.16-.216,5.4c.972,3.349-2.809,4.213-.972,7.991 1.944,3.782 5.4,3.565 4.753,8.424-.756,4.967-.108,8.533 2.052,10.907 3.24,3.782 9.181,2.593 11.232,3.457 3.131,1.295 2.592.217 5.292-2.807 2.592-2.916 3.348-3.672 4.212-5.726 1.403-2.916 2.592-5.184 3.564-4.967-.431-4.098-4.861-13.925-4.969-17.056z" fill="#424e59"/>
  <path d="m165.03,22.427c1.512-1.512 2.591-1.837 2.16.973s5.617,10.476 9.397,6.263 10.043-10.584 15.227-11.771c5.186-1.079.755,1.943-1.835,3.997-2.594,2.16-3.133,4.537 1.62,4.537 4.211,0 10.151-.973 3.994,3.238-6.045,4.213-9.071,3.027-8.422,6.157 .647,3.023 10.043,3.349 15.012,6.804 7.561,5.186 16.524,18.036 2.591,15.015-13.822-3.024-12.205.97-9.395,1.834 2.807.972 7.773,3.78 4.211,7.343-3.455,3.566-1.404,4.43 4.536.756 5.834-3.78 9.397-2.16 11.988-4.32 2.593-2.051 8.749-1.187 9.828-3.024 1.403-2.376-3.672-7.777-.215-6.373 3.995,1.62 4.429,5.617 7.019,5.4 5.4-.431 5.726-6.048 10.371-7.019 4.642-.973 5.83-6.048 9.611-5.617s1.944-4.213-.217-7.021c-2.16-2.916-12.311-16.524-8.531-12.852 3.672,3.672 9.287,8.964 12.42,13.933 3.132,5.075 6.373,8.316 5.834,10.259-.434,2.054-3.566,2.377-6.59,3.241-2.916.756-6.266,2.051-8.856,4.537-2.593,2.484-6.804,4.644-10.045,5.075-3.133.325-12.852,7.994-15.12,10.91s-23.438,14.473-32.075,10.907c-24.41-10.151-11.666-30.889-17.823-38.449-2.051-2.482-1.295-6.154-2.807-9.072-1.189-2.268-2.269-3.347-4.105-6.154-2.376-3.674-4.858-6.159-10.367-11.018-1.837-1.512-7.993-5.075-3.241-4.645 3.133.434-4.644-5.939.108-3.78 4.32,1.945 3.241,4.213 4.645,5.615 2.591,2.593 2.377,1.621 1.943-2.157-.539-3.782.325-3.888 1.512-1.081 1.298,3.024 3.78,3.455 3.566,5.292-.2,1.943 1.09,3.24 2.07,2.267z" fill="#536570"/>
  <path d="m169.13,94.141c1.621-3.563 10.046,11.34 11.126,13.5 7.02,12.638 6.264,4.644 12.527-1.295 1.946-1.727-1.403-3.133 4.537-6.048 5.509-2.699 1.837-4.967 11.341-5.509 7.993-.431 13.716-15.226 14.58-17.172 .757-1.836.757-3.78 2.484-4.536 1.618-.865 4.319-3.349 6.805-5.4 2.485-2.16 3.889-3.024 6.696-3.672 2.807-.756 5.184-.217 9.936-4.97 3.995-3.995 7.345-3.778 11.341-5.831 3.994-2.16.323-5.832-1.189-7.883-1.512-2.162-.97,2.268-1.512,4.319-.54,1.943-3.672,4.211-8.531,4.753-4.969.431-8.965,2.16-9.288,4.103-.434,1.837-4.537,4.644-7.668,3.78-3.241-.97-1.836,2.918-4.971,4.536-3.021,1.621-4.426,3.133-6.587,6.157-2.052,3.024-4.859,3.24-8.64,3.997-3.779.647-3.564-1.403.865-2.376 4.535-.971 1.726-3.347 7.343-5.832 5.615-2.593-3.996-3.349-6.372.215-2.378,3.457-8.856,1.836-14.365,7.021-5.4,5.186-9.181-10.154-11.232-16.958-2.159-6.802 2.594-10.042 8.425-7.774 5.94,2.376-.217-4.428-6.156-7.452-5.831-3.133-6.804-7.994-5.293-10.587 1.297-2.59 9.829-3.563 4.429-4.319-3.672-.431-2.377-.865-4.212-1.834-1.944-.973-7.56,4.967-9.936,6.804-2.377,1.943-9.72-3.672-9.182-7.129 .648-4.751-1.078-1.404-3.888-3.886-.864-.865-3.241-9.075-3.347-3.349 0,4.211-8.642-1.729-8.642-1.729s6.156,4.753 10.367,9.181c1.838,1.836 7.347,9.289 8.103,11.232 .864,2.593 2.375,10.584 1.403,15.768-1.836,10.154 3.781,12.744 2.052,17.931-2.701,8.533-4.536,8.964-4.861,12.202-.44,5.409.85,7.243 1.5,10.05z" fill="#424e59"/>
  <path d="m167.51,84.746c.322,7.127 1.403,13.069 3.347,17.389-1.296-2.268-6.049-5.292-5.832-11.126 .325-8.533-3.563-4.642-3.563-9.934 0-5.078-3.349-4.969-3.782-7.777-.431-2.594.325-4.753-3.455-9.397-3.024-3.78-3.35-8.531 2.808-14.04 4.538-3.997 9.937.431 10.801-4.969 .54-3.35-.217-8.747-.217-8.747 3.024,3.563 3.888,13.286 2.593,19.008-1.081,4.211.54,9.073 2.16,12.311 1.513,2.918-.757,6.051-2.052,9.937-1.09,2.912-2.93,4.425-2.82,7.34z" fill="#5f7378"/>
  <path d="m93.203,52.668c1.836-7.129 5.184-7.56 7.021-4.752 1.944,2.807 6.156.973 9.937,5.184s5.184,13.177 2.376,16.957-6.372,4.967-5.616,7.885c1.944,7.56-3.456,6.804-2.592,12.636 1.295,8.208-3.673,7.668-3.673,7.668s-.107-.54-1.836-6.374c-2.051-6.479-3.24-11.446-6.48-15.012-3.348-3.563-1.944-3.889-1.512-6.805 .54-3.13.54-6.804 1.079-10.584 .536-3.453.753-4.857 1.292-6.803z" fill="#5f7378"/>
  <path d="m134.35,163.05c-2.159.65-4.967,1.945-4.967.972 0-.108-.109-.542-.109-.972-.216-1.079-.216-2.376.756-2.808 1.405-.539.541-1.946-.539-1.512-1.079.54-2.16-1.081-.647-1.836 1.403-.865 4.86-2.808 7.885-3.131 3.022-.216 6.589-1.081 4.427-1.512s-8.641.648-10.367,1.512c-1.729.971-4.105.432-4.321-1.729s1.08-4.103-.755-4.43c-1.729-.322-.973-4.425-.108-5.398s4.104-3.672 6.911-4.645c4.322-1.512 2.053-1.404-.323-.756-1.188.325-2.053.217-2.917.864-.971.648-1.187-.325-2.267-.108-1.081.325-.973-2.16-2.16-2.16-1.296,0 1.835-2.702 5.076-3.566 3.24-.756-1.836-.323-4.861,1.621-3.132,2.054-2.267-1.079.541-2.591s3.563-2.485 5.292-2.807c1.729-.434 2.809-1.729-.324-.65-4.104,1.406-7.56,4.428-7.02,2.81 .432-1.729 4.536-4.97 8.206-5.509 3.566-.648-2.591-2.268-3.454-2.162-.757.11 4.86-2.482 1.62-1.509s-5.725,2.159-6.804,2.699-2.593.216-3.133-1.618c-.648-1.945-.972-2.918 2.376-4.969 3.78-2.485 5.4-.542 5.616-1.512s2.051,0 3.89-1.512c1.835-1.621-1.514-.432-3.673-.432-2.053,0-2.161-.649-4.536-.324-2.484.324-3.997.324-5.076-1.404-.974-1.729 1.296-1.946 0-3.674-1.296-1.621 4.751-3.13 7.02-3.238 2.16-.108-2.483-.54-4.428.108-1.837.647-1.188-.648.432-1.295 1.513-.542 3.888-1.407 1.944-1.19-1.838.217-5.077,1.082-3.564,0 1.62-1.081 4.752-2.051 3.24-2.484-1.729-.54-4.86.217-4.32-.973 .647-1.187.108-1.835 4.32-2.157 4.211-.434 5.399-2.376-1.62-1.621-7.128.648-4.536-1.512-4.969-2.81-.539-1.51-.539-4.103 2.16-4.32 2.483-.217 6.805-1.621 8.856-1.621 2.16,0 1.944-1.943-3.348-1.295-5.509.756-8.315,2.269-8.856,1.079-.433-1.188-.972-1.835-1.188-3.78-.216-1.834-1.403,2.81-.757,5.187 .757,2.268 1.406,3.886.648,6.154-.648,2.376 1.081,3.027.649,3.674-.541.756-1.081,2.482-1.081,4.319s.864,4.213-.108,4.428-1.512-2.699-2.052-5.94c-.54-3.563-1.619-2.807-1.403.756 .324,3.455.108,8.099-.108,6.479-.324-1.618-1.729-4.211-2.699-4.428-.864-.323 2.916,3.674-1.621,1.837-4.429-1.837-4.968-2.594-5.293-4.322-.754,1.189-.107,7.777 2.052,8.532 1.838.648 4.213.434 7.346,3.241 3.241,2.916 3.456,5.4 3.779,6.265 .433,1.404 1.081,1.295 1.621,1.295 .433.108 1.62.865 2.269,2.916 1.08,3.024 2.592,4.97 3.132,4.97-.432,4.319-.756,10.365 2.268,13.5 .432.431-1.835,6.479 3.132,15.335-.323,2.268.432,4.321.973,5.833 .431,1.404.863,4.645.863,6.049-.433,4.967 2.484,11.771 2.268,14.578-.323,3.674.541,8.103 1.944,12.53 .756,2.699.432,6.588.542,8.208 .105.973.539,2.376 1.186,4.969 2.053,9.395-1.08,10.368-1.296,12.203-.54,5.4-.215,8.533-2.159,10.154-1.835,1.403-2.268,5.183-2.7,6.37-.324,1.298-1.729.325-3.889,3.997-.432.756-3.887-2.16-6.588.433-2.592,2.594.54,5.832-3.24,14.257-.755,1.836-1.188,2.268-1.079,2.807 .217.865 1.512.973 2.592.865 3.456-.108 5.617-1.404 10.476-2.699 7.561-2.162 8.424-1.512 10.479-3.132 3.133-2.376 3.454-1.515 4.319-2.916-3.024,1.295-6.587,1.834-10.801.214-4.32-1.618-6.049-3.78-6.157-2.916s2.592,2.485 3.457,2.81c.756.322-1.62.864-3.672-1.19-1.944-1.943-2.592-3.349-1.188-3.349s2.053-2.485 2.484-1.187c.432,1.187 1.728,2.376 4.211,3.024 2.485.54-.106-.864-.971-2.051-.757-1.081.324-.542 2.051.431 1.73.865 1.297.431-.864-1.295-2.051-1.837-2.483-2.485-1.295-3.781 1.188-1.295.973-2.701 2.268-1.728 1.297.864 2.809.539 5.186.756s5.617-1.187 2.699-1.079-6.588-.864-6.804-2.376c-.215-1.621.541-1.946.541-1.946 .539-1.403.861-2.051 1.835-1.295 .863.864 2.701.217 2.484-.216-.325-.431 1.187-.214.54-1.404-.54-1.187 2.593,1.295 5.617.108s1.512-2.051.213-1.403c-1.187.647-2.482,1.187-3.237.322-.757-.756-1.513.434-2.593-1.404-.432-.756-3.024,1.404-2.591-.431 .43-1.943.321-2.593 1.295-2.377s7.126,1.835 10.15-.216c-1.51.108-6.91.65-8.746-.214-1.838-.973-2.595-2.162-1.082-1.729 1.62.54 3.888.54 4.753,0 .864-.433-3.671.54-4.645-.647-.864-1.19 3.779-2.594 4.861-3.675 .973-.97-6.374,9.289-3.996-1.187 .108-.539 5.938.756 6.912-.539 .433-.756-4.536.325-5.94-1.189-1.62-1.512-1.512-3.024-.539-2.916s5.831.108 5.185-.322c-.648-.542-5.726-.325-5.617-1.406 .108-.97.972-4.211.108-5.292-.974-1.079.646-2.16 4.752-2.377 2.699-.105 3.348-1.404.54-1.079-2.808.431-5.615-.108-6.374-1.187-.756-.973-.756-7.129.434-7.452 1.187-.434 2.268-1.081.325-1.081-2.055,0-2.81-1.404-2.055-2.807 .865-1.406 1.513-2.376 3.458-2.593 2.051-.217 3.672-1.512 1.188-1.295-2.376.215-4.105.106-5.184.431-.974.431-.434-6.804-1.621-6.912-1.08-.108-1.187-2.052.864-2.591 2.16-.54 5.724-3.458 7.344-3.458 1.513,0 1.513-.97-1.403-.756-2.808.217-7.021,2.053-7.885,1.298-.757-.65.649-3.133 3.456-3.675 3.024-.431 5.292-.972 3.78-1.187-1.511-.108-3.997.434-5.292.756-1.189.323 2.269-1.943 5.185-2.807s2.701-1.189 0-.756c-2.699.539-6.157,2.268-6.805,3.021-.756.65-.864-1.618.539-2.805 1.298-1.189 2.593-4.97 6.481-5.942 3.564-.862-.108-1.404-1.403-.862-.43.13-1.62.56-2.81.89z" fill="#61747b"/>
  <path d="m158.76,10.87c1.404,1.837-.756,5.4 4.861,8.425 5.614,3.132 3.563,7.344 6.371,7.561s-1.943-8.75-2.16-11.555c-.217-2.81 2.16-7.994 10.37-4.97 8.314,3.132 15.982,5.509 20.195,4.32 4.32-1.188 4.75,2.593 8.316,1.189 3.455-1.404 8.64,2.266 13.392,1.404 4.646-.973 11.666,3.024 15.445,5.831s3.133,1.19-.648-2.051c-3.781-3.346-12.528-6.587-15.983-5.939-3.565.756-5.184.217-5.184.217s-1.838-2.271-4.214-1.406c-2.376.973-3.996,1.189-3.996,1.189s-2.161-1.837-5.724-2.377c-1.838-.216-2.808.973-2.808.973s-1.406-2.376-4.86-2.162c-3.564.325-8.965,0-10.802-1.834-1.942-1.837-11.446-4.32-15.013-1.729-3.454,2.593-3.023,4.32-6.155,2.051-3.564-2.482-5.185-3.238-5.724-3.238 2.03,1.511 3.33,2.915 4.3,4.101z" fill="#536570"/>
  <path d="m231.77,29.448c-3.566.864-9.828,6.154-15.877,5.184-6.156-.973-16.526.431-7.56,1.834 8.854,1.406 15.552,6.59 19.762,10.37s12.638-4.213 5.187-5.187c-7.561-.97-1.945-3.777 3.238-3.777 5.19.001 7.02-11.233-4.75-8.424z" fill="#536570"/>
  <path d="m163.3,31.069c-4.428-5.94-9.072-8.966-13.283-12.53-4.32-3.563-5.4-7.777-4.105-5.832 1.081,1.729 4.32,3.672 4.105,1.944-.325-1.727-1.838-2.269-3.133-3.889-1.081-1.295-1.836-2.59.757-1.295 2.591,1.512 7.882,5.292 6.047,2.376-2.81-4.645 8.965,5.184 7.992,2.376-.864-2.81-3.997-6.048-7.992-7.56-3.996-1.295-9.827-5.617-17.604-5.617-7.668,0-8.965,1.404-8.965,1.404s4.429-.648 4.859.217c.325.973 5.079,1.187 6.698.973 1.62-.217 5.4.756 6.157,1.943 .753,1.081-2.163,1.081-1.946,3.782 .325,2.482.54,5.94 2.053,7.774 2.053,2.376 3.456,4.105 7.129,6.373 2.376,1.404 5.614,5.184 7.885,7.669 3.024,3.347 3.672,5.398 5.075,5.184 1.37-.216.4-2.485-1.76-5.292z" fill="#93a4aa"/>
  <path d="m105.52,8.497c.433.214-4.967,2.699-5.723,4.103-.648,1.403-.648.325-.648-1.189 0-1.404 1.728-3.13-.757-3.563-2.483-.54-6.155-1.079-8.316-.106-2.159.862-3.995-.542-6.587-1.837-2.593-1.298-4.645-1.189-6.48-.756-1.836.323-2.484-.542-2.484-.542s1.512.434 3.997-.322c3.779-1.19 4.751.322 7.56,1.295 5.076,1.728 9.181-1.295 13.823.647 4.205,1.836 5.175,2.053 5.615,2.27z" fill="#93a4aa"/>
  <path d="m101.95,35.063c-1.404,3.566-6.266,10.801-6.049,11.991s2.375-4.43 5.184-4.43 1.62-2.16 3.995-4.536c2.378-2.268 1.406.325.649,1.945-.649,1.618 2.161.647 3.133-3.132 .863-3.675 2.592-7.238.216-6.157-2.269,1.189-.757-2.485 3.24-5.506 3.995-3.135 5.185-7.023 4.969-11.343-.217-4.211.431-8.855-2.053-7.019-3.024,2.157-2.809,5.076-.756,3.347 1.62-1.512 1.62-.325 1.403,3.024-.215,3.24-1.512,6.913-4.428,9.289-2.8,2.376-7.12,7.127-9.5,12.527z" fill="#85939b"/>
  <path d="m167.83,109.7c2.054,0 4.753.756 4.319,2.699-.323,2.485-3.563-1.404-7.991,2.162-2.916,2.375-3.024,5.184-3.888,7.883-.217,1.079-1.729,9.072-1.513,12.418 .539,7.021-2.377,10.479-1.943,11.235 1.618,2.591 0,8.424.648,14.795 .647,6.265-1.404,7.021-.434,11.126 .973,4.32-.54,2.808-.323,11.663 .108,7.344-.647,17.928-1.295,19.442-.217.431.756,10.582-.108,11.88-.756.97-1.081,5.723-1.081,9.72 0,2.051-2.268,7.018-3.024,7.668-1.08,1.079-.217,3.347-1.726,5.398-.974,1.298-.217,1.946-1.62,3.241-.865,1.081-1.838,1.081-2.593,3.888-.54,2.051-1.296,2.16-1.944,3.024-.759.972-1.837,2.593-2.701,3.349-2.268,2.59-8.858,1.509-6.591,1.729 2.488.214 5.079-3.241 2.92-3.132-2.053.108-3.564-2.054-1.513-1.406 2.159.542 2.699-.431 3.78-.97 1.08-.65-1.513-.217-2.916-1.298s1.943-.973 4.645-1.079 2.159-1.512 3.238-2.268c.974-.648.217-1.62-1.942-1.512-2.053.216-.757-.973 1.62-.973s3.563-2.16 2.159-1.729c-1.403.542-3.024-.431-2.268-.214 .864.214 3.132-.65 3.563-1.298 .434-.54-1.404-.216-3.563-.108-2.052.108 1.513-.753 2.915-.864 1.512-.106 2.594-2.699 1.729-2.483-.972.108-3.563-.325-3.348-1.081 .217-.864 2.159-.97 4.213-1.403 2.159-.54 2.376-2.266 2.051-3.239-.973-2.701 1.838-8.316 1.943-9.181 .108-.756-2.59-.325-5.076.431-2.482.647-.972-.864.865-1.187 1.834-.433 2.593-1.403 3.563-1.945 .864-.431.864-6.479.325-7.991s-.54-2.81-3.672-2.593c-3.024.217-2.81-1.081-2.054-.973 .65.111 2.916-.108 4.753-.753 1.942-.542.647-2.053.864-2.593 .217-.647-.108-5.509-3.241-5.509-3.023,0-1.834-.971.648-.864s3.24-.106 2.484-.756c-.864-.54.108-2.916.325-4.428 .214-1.512-2.593-4.967-6.157-4.75-4.969.322-4.752-.542-1.081-1.19 1.621-.217 5.184-.431 6.913-.217 1.62.217.647-5.723.539-7.343s-5.076-1.187-6.479-1.837c-1.619-.864 1.837-.756 4.753-1.187 2.916-.539 2.808-2.916 1.079-3.563-1.835-.54.325-3.997.756-5.401s-2.591-2.268-5.401-2.268-4.318-.217-2.376-.973c2.055-.864 6.266-.647 7.563-.539 1.295.108 1.618-1.621 1.078-2.81-.647-1.187 0-4.319-4.858-4.428-4.753-.105-4.321-1.187-1.945-1.404 2.268-.214 7.235.865 5.831-.864s.973-5.398-1.835-6.154c-2.808-.864-.542-1.189.54-1.512 1.081-.217 1.62.214 1.62-.759s.864-2.376.107-4.21c-.646-1.943-5.075-2.591-8.531-2.377-3.456.217-3.024-.214-1.296-.973 1.726-.648 6.912-.756 8.208-.323 2.051.54 4.104-3.563 2.915-4.859-2.376-2.701-9.504-1.62-9.287-2.81 .323-1.187 5.724-.539 8.423.108 2.701.756.756-.973-2.699-1.621-3.563-.647.432-1.62 3.024-.864 2.591.864 3.994-.108 1.62-1.835-2.377-1.728-7.994-1.511-11.017-2.701s-6.589.756-6.589-.322 6.913-1.837 10.585-.973 6.695,2.051 4.644.216c-1.944-1.729-10.261-1.729-14.905-1.189-4.537.648-.647-2.916 6.59-3.238 7.344-.325 8.315-1.512 11.88-.864 1.187.214 0-3.133.325-5.401 .431-2.27-1.513-2.593-3.241-2.593s-2.916-.647-.648-1.187c2.377-.434 4.751.54 4.32-1.404-.539-1.837-.864-6.373-4.645-6.912-4.645-.648-4.211-1.621-.864-1.621 3.24,0 6.804,1.621 6.59-3.78-.325-5.401 1.188-7.238.864-5.185-.217,2.16.54,6.263.54,8.639 0,2.268-.974,3.349-.974,3.349s1.62,2.699.865,4.319c-.648,1.621 1.942,9.829 3.132,5.076 1.187-4.642 1.187-8.206 2.052-7.777 .972.542.542,5.617-.432,7.777s.757,1.404 1.403,0c.757-1.404 1.836-.217.54,1.945-1.46,1.98-.17.8.8.8z" fill="#697a81"/>
  <path d="m97.09,62.497c-1.187,1.189-1.295,2.376-.215,1.729 1.188-.54.864,1.837 2.485,3.347 1.942,1.837 3.887,1.404 5.616-1.51 .862-1.62 1.188-.325 1.835-.219 .757.111.324-.862-1.405-2.913-1.85-2.163-3.9-4.648-8.33-.434z" fill="#242c2f"/>
  <path d="m105.95,67.141c-.754.756-1.728,1.729-2.159,1.729s-2.808,1.726-4.645.862c-1.945-.971-3.564-1.835-3.888-2.482-.433-.756-.973.54 1.08,2.051 1.942,1.62 3.456,2.593 5.075,1.729 1.729-.973 3.457-.217 4.536-1.945 1.08-1.621 1.513-1.835 1.945-1.835 .53,0-.87-1.187-1.95-.109z" fill="#364247" stroke="#4a5a5f" stroke-linecap="round" stroke-linejoin="round" stroke-miterlimit="2.4142" stroke-width=".36"/>
  <path d="m107.03,60.984c-1.296-1.62-1.621-1.837-3.563-2.916-2.053-1.079-4.753,0-5.725,1.187-1.403,1.404-2.376,2.593-3.671,2.054-1.298-.433-1.621-.756 0-.865 1.618-.216 3.021-1.081 3.995-2.593 .973-1.621 4.104-2.916 5.184-2.268 .973.647 4.213,2.376 4.752,4.536 .65,2.269.11,2.378-.97.865z" fill="#364247" stroke="#4a5a5f" stroke-linecap="round" stroke-linejoin="round" stroke-miterlimit="2.4142" stroke-width=".36"/>
  <path d="m160.38,64.981c-.217-.217-.974.108-.757-.973 .217-.323-.108-.648 0-1.512 .432-1.943 2.916-3.349 3.889-3.024 .647.322 1.943.216 1.943.216s.538.214.65.648c.104.54-.865.54-.757,1.079 .432,1.515.861,3.241-.65,4.861-.647.65-1.619.756-2.591,0-.42-.433-1.29-.647-1.72-1.295z" fill="#242c2f"/>
  <path d="m159.09,60.984c.539-1.081 3.13-2.916 4.536-2.807 1.403.106 2.373-.325 1.943-1.295-.54-.973-.108-.973.646-1.837 .865-.973 1.729-3.349 1.082-3.457s-1.403,2.484-3.35,3.349c-1.835.756-5.509,3.672-6.153,6.265-.77,2.59.42,1.186 1.29-.218z" fill="#364247" stroke="#4a5a5f" stroke-linecap="round" stroke-linejoin="round" stroke-miterlimit="2.4142" stroke-width=".36"/>
  <path d="m158.76,64.226c1.513,2.59 4.214,3.455 4.753,3.455s.431,2.376-.539,1.512c-.974-.756-2.376-1.295-2.701-1.837-.323-.54.433,1.621 1.297,2.054 .754.54 0,1.512-1.08,0-1.08-1.405-1.62-3.998-1.73-5.184z" fill="#364247" stroke="#4a5a5f" stroke-linecap="round" stroke-linejoin="round" stroke-miterlimit="2.4142" stroke-width=".36"/>
  <path d="m102.28,63.469c1.835,2.374-2.27,3.78-2.053.865-.432.108-.432.108-.756.108-.216,1.401.756,3.671 3.455,2.59 1.297-.434 1.081-3.132.108-3.889-.33.218-.33.218-.76.326z" fill="#4d5c60"/>
  <path d="m162.32,62.822c.217,3.241 2.81,2.376 1.62-.756 .325,0 .434-.217.756,0 .65.97.434,3.347-.756,3.778-1.62.542-2.482-1.187-2.374-2.699 .32-.109.43-.215.75-.323z" fill="#4d5c60"/>
  <path d="m98.495,66.494c-.647-1.295-.756-2.485-1.405-2.268-.646.325-1.078.325-.971-.108 .108-.54 1.296-1.729 2.159-2.269 .974-.539 2.809-1.62 4.429-.972 1.513.647 2.916,2.916 3.564,3.566 .648.756 1.081,1.401.756,1.401s-.433,0-.863-.431c-.433-.322-.649-.105-.865.217-.322.325-.755,1.187-1.079,1.404 .324-.647.757-1.404.433-3.024-.217-1.079-1.621-3.024-2.917-2.16-1.512,1.082-3.024,1.082-3.457,1.512-.318.538.005,2.592.222,3.132z" fill="#121718"/>
  <path d="m161.46,65.629c-.972-1.729-1.62-.973-1.62-3.349 .215-1.079 2.051-2.16 2.916-2.376 .864-.214 1.187,0 1.512,0h.973s1.51.434-.108.865c-.434,0-.973.108-1.837.108-.973.108-2.16.972-2.698,1.729-.42.755.66,2.159.87,3.023z" fill="#121718"/>
  <path d="m117.18,73.406c-1.943,1.081-2.916-6.59 0-10.262 3.24-3.997 23.438-4.967 30.025-1.62 6.589,3.241 7.237,14.582 2.593,11.774-4.74-2.916-23.65-4.322-32.61.108z" fill="#85939b"/>
  <path d="m115.02,46.081c2.27-.325 7.993-1.189 11.231-5.617 3.35-4.536 5.402.973 9.288-2.16 1.945-1.512 4.755,2.376 8.211,3.997 5.184,2.376 8.1,2.808 11.123,2.808 3.133,0 3.997-1.621-.647-3.239-4.75-1.728-8.316-.433-13.283-6.158-4.861-5.615-8.211-5.398-10.694-4.967-2.592.539-2.159,4.319-5.185,5.723-3.023,1.406-3.023,6.048-10.259,6.804-7.34.647-3.78,3.24.22,2.809z" fill="#85939b"/>
  <path d="m117.94,52.343c5.4-5.184 24.52-5.398 29.92-2.16 4.858,2.916 4.428,8.855.321,7.129-5.722-2.377-21.385-3.35-27,0-5.62,3.241-7.13-1.294-3.24-4.969z" fill="#85939b"/>
  <path d="m102.92,114.34c-1.512,6.371-4.212,19.331-3.563,29.807 .755,11.124 4.968,19.765 7.02,21.385 1.513,1.187-4.645-10.801-4.753-23.653 0-4.75.433-9.397 1.08-13.5 .757-4.645 1.945-8.747 2.808-12.097 .54-2.27-2.16-3.79-2.6-1.95z" fill="#fff"/>
  <path d="m173.34,122.98c2.052,5.4 8.748,20.846 1.835,37.37-2.052,4.75.864-3.35 1.189-11.773 .323-9.935-3.563-19.007-5.075-24.085-1.52-4.98.64-5.08 2.04-1.52z" fill="#fff"/>
  <path d="m168.81,93.818c3.022-1.189 5.83,5.184 10.259,11.88 1.08,1.729 3.241,6.913 1.297,0-1.297-4.753 6.911-4.753 4.646-7.452-1.729-2.051-4.105-4.97-1.729-7.238 2.376-2.374-4.645-6.588-1.62-6.156 3.024.325 3.779-4.32-1.729-7.561-5.292-3.347-4.967-5.506-3.779-7.666 1.188-2.054 5.184-.325 4.645-3.027-.432-2.699-4.861-2.913-5.292-6.046-.432-3.026.325-4.536-.54-7.128-2.054-6.805-5.186-9.829-5.186-9.829 1.728,3.241 1.189,5.617.541,11.879-.756,6.157.215,5.94 2.052,11.232 1.513,4.213-.972,9.29-3.347,13.719-2.91,5.289-.65,8.856-.21,13.391z" fill="#323e44"/>
  <path d="m99.144,93.818c-.107,0 .217,1.295.217,2.052-2.809.539-3.457,7.885-6.59,7.668-3.24-.217-6.588-6.048-5.292-8.1 1.296-2.162 1.621-7.777-1.403-7.668s-5.293-1.946-2.376-3.888c3.023-2.052 1.836-10.154.54-11.774s-5.832.973-6.697,1.837c-.971.97-5.615-.756-.107-2.593 3.673-1.187 5.076-3.132 7.344-3.132 1.404,0 2.377-1.621.324-2.913-1.943-1.298-3.24-1.406-3.779-3.891-.433-2.482-5.078-3.669-7.021-3.347-1.837.214-5.292-.65 0-2.051s8.641.973 10.152,1.729c1.512.862 5.292-.542 5.184-3.133s-2.592-6.048-5.831-7.455c-3.457-1.404-12.961-1.512-10.37-2.699s9.073-2.81 7.453-5.184c-2.375-3.565-1.837-14.364-.647-8.857 1.08,5.292 3.996,8.857 6.588,10.261 2.592,1.512 9.721,4.103 7.561,8.75-2.16,4.533-3.24,11.879-3.024,16.307 .108,4.858-1.405,6.157-1.297,7.561 .108,2.051 2.594,3.132 3.89,6.912 1.4,3.778 2.373,11.661 5.181,13.606z" fill="#323e44"/>
  <path d="m97.739,310.91c-.108,1.834 1.297,1.834 2.159,1.403 1.837-.756 3.565,3.132 3.781,5.509 .108,1.835 2.159,2.482 2.268.648 .108-1.835 1.297-6.157 4.537-5.509 3.131.647 3.888,4.644 4.429,6.265s3.995.54 4.318-.647c.324-1.079.757-6.59 4.213-6.696 2.483,0 3.672,2.16 4.104,3.997 .541,2.268 2.483,2.482-3.348,4.642-3.995,1.297-15.553,1.945-22.032.108-4.755-1.29-6.267-3.56-4.431-9.71z" fill="#536570"/>
  <path d="m106.6,321.27c-.431-.215.433-7.669 3.565-7.344 3.024.217 4.428,7.668 3.563,7.777-.75.1-5.94.21-7.12-.44z" fill="#a2a995"/>
  <path d="m120.2,321.06c-.541-.108.539-7.56 3.131-7.993 2.7-.432 4.969,5.509 4.104,5.939-1.5.86-6.15,2.26-7.23,2.05z" fill="#a2a995"/>
  <path d="m103.14,262.73c-1.62,1.837-3.348-1.727-2.592-3.995 1.512-4.213 2.592-5.184 2.916-7.021 .216-.756-1.62,1.189-3.24,3.455-1.296,1.729-1.08-5.614.107-8.53 1.729-4.428 4.646-8.316 4.104-9.181-.647-1.079-2.7,3.455-4.968,7.346-1.081,1.943-.432-3.783 0-4.753 1.513-3.135 1.403-4.645-.107-2.271-2.271,3.458-1.838-1.834-1.082-3.238 1.298-2.593 2.485-4.536 2.702-5.723 1.188-4.861-3.565,4.534-4.429,3.021-.973-1.621.108-5.184 1.727-8.425 1.945-3.886 2.27-6.154.108-3.455-1.835,2.376-4.427,3.997-3.672,1.834 .648-2.265 4.861-10.582 1.729-5.939-1.081,1.729-4.213-.214-.541-5.398 2.483-3.349 4.645-7.238 1.403-4.105-3.671,3.563-7.451.108-6.371-2.482 3.995-8.641-6.265-9.722-5.725-13.286s7.128-7.668 9.828-7.994c2.809-.322-4.86-2.159-10.368,5.184 0-8.422 1.943-10.69 4.104-14.579 2.161-3.78-4.104,3.024-4.967,7.774-.756,4.647-3.025-4.75-.756-8.53 2.159-3.888 2.698-6.048 4.318-5.834 1.729.325 0-3.563-3.563,1.946s-3.35,6.913-3.35,6.913-4.643-10.154-4.32-15.337c.217-5.184 2.161-9.072-.323-8.533s-1.836-4.642-1.404-7.666c.647-3.458 1.727-13.286-1.837-10.479-5.508,4.43-8.1,16.093-9.071,20.954-1.082,5.184-4.645,8.1-4.105,1.081 .431-7.131 5.4-28.623.431-20.846-4.859,7.669-10.692,21.169-10.152,31.428 .539,10.477-4.968,3.566-4.429-3.563 .649-7.019 5.833-26.244 7.453-30.133 1.727-3.888-7.128-2.16-15.876,25.271-5.94,18.361-2.485,28.515.756,32.942 3.348,4.428 9.72,11.988 12.635,17.605 2.269,4.103 2.809,7.666 1.729,16.524-1.188,8.747 3.565,16.307 6.048,24.192 1.621,5.184.541,4.645 2.701,11.449 1.404,4.428 1.404,9.934 3.347,27 .757,7.127-4.644,19.765.54,22.033 5.292,2.16 7.237,2.916 11.664,2.916 .757,0 4.862,0 4.537-.539-.432-.973-1.512-7.452-5.508-7.885-3.455-.217-3.24,4.536-5.075,3.997-1.728-.431-1.945-1.837-2.7-3.672-.648-1.512-2.486-1.729-2.486-2.054-.431-2.699-.754-4.211.649-5.292 1.295-.971 2.916-.862 5.184-1.834 2.484-.971 4.212-2.808 0-1.298-5.616,2.054-7.127-.537-4.644-1.726 2.483-1.082 3.023-2.377 1.08-2.377-1.945,0-1.295-2.376-.432-3.457 1.835-2.049 5.724-3.347 6.48-4.75 .864-1.295-3.024.756-5.076,1.621-1.729.864-3.888-2.916-1.835-4.43 4.751-3.886 3.78-4.751 1.835-3.564-1.835,1.082-2.268-1.295-1.08-2.915 1.404-1.943 1.08-3.347 2.808-4.428 1.837-1.295 2.809-3.024-.216-1.62-3.024,1.403-4.104,4.753-4.429,1.512-.216-3.347-.432-2.807.756-5.4 1.945-4.319 3.673-5.4 2.917-5.506-1.836-.325-3.673,3.347-4.752,4.103-1.081.865-2.052-3.563-.54-5.617s1.294-4.859 0-2.805c-2.053,3.13-3.457-1.406-1.297-4.322 2.269-3.238 2.377-4.967.649-3.024-1.837,1.943-1.621.756-1.946-.647-.647-3.564 2.809-7.021 3.024-9.073 .325-3.023-3.455,4.645-4.32,2.269-.539-1.837-.107-3.889 1.621-5.834 3.671-4.425 3.132-5.507-.864-1.834-2.052,1.943-.864-1.512.539-3.564 1.946-2.918 5.294-7.021 5.617-8.424 .433-1.512-2.16.864-4.968,4.859-1.728,2.593-2.916-9.612-2.7-12.419 .108-1.189.648-5.078 7.451,1.619 3.457,3.349 7.993-6.154 8.749,5.294 .432,6.479-.756,2.699 1.081,5.184 1.187,1.512-3.132.323 0,3.347 1.836,1.728 4.644,4.752 1.944,3.24-2.917-1.62-1.836,1.621-1.08,2.269 1.188.973 2.592,7.991.864,6.048-2.484-2.808-2.809-.325-.541,2.485 1.837,2.268 2.809,6.262.217,4.211-3.023-2.482-3.348-.54-.648,2.268 2.052,2.16 3.348,5.834 3.348,5.834s1.188,1.726-.755,1.404c-1.944-.325-3.78-.325-1.62,1.512 3.995,3.346 5.292,12.852 2.375,11.34-1.619-.864-3.78-.539-1.079,1.943 2.483,2.268 6.371,10.153 4.752,11.773-1.079.971-5.399-1.514-3.24.862 2.484,2.81 5.724,3.24 4.536,6.373-1.511,3.997 3.348,9.503.432,8.208-3.996-1.618-5.076-1.187-1.511.864 3.131,1.837 3.888,3.349 5.183,4.97 1.405,1.618-1.619-.542-3.348,3.455-.433.973-1.404,3.889-1.943,5.401-.54,1.079-2.485.97-3.025.756-2.915-2.051-.863,1.187-.646,1.187 .54,0 .54-.108 1.187-.108 3.89.108 13.609-1.403 12.638-5.832-.973-4.645-1.081-5.939-2.592-9.937-1.513-3.994-3.564-14.904-3.997-19.115-.433-4.322-.972-9.723-1.512-11.882-.541-2.051-1.513-8.747-1.08-15.443 .216-4.319 2.268-15.012 3.563-22.358 .864-4.21 1.081-7.343 1.404-7.452 1.188,3.455 4.752,19.982 5.4,26.244 .757,6.156.865,14.795 2.699,25.057 1.729,10.37 1.62,27.325.865,30.999-.648,3.67-1.621,7.56-1.404,9.179 .108,1.62.972.325 1.404-2.699 .648-3.024 3.133-4.536 3.996-6.051 2.699-4.103 2.916-5.615.648-3.777-2.808,2.268-2.701-3.78-1.944-4.539 2.484-2.482 1.944-3.13.541-1.943-1.189,1.082-.649-2.16 0-3.24 1.943-3.133 5.723-9.935 1.511-5.615-1.619,1.621-2.7-1.081-2.484-3.78 .433-4.645 4.969-9.181 3.024-8.858-2.483.217-3.888,6.699-3.888,1.621 0-2.913 1.079-5.94 2.483-8.316 1.73-2.68 1.51-3.12.11-1.61z" fill="#536570"/>
  <path d="m90.179,219.86c-.973-3.563-1.404-8.208-.323-8.747 1.08-.648.106-.865-.972-1.837s-.541-8.1-3.673-10.693c-3.24-2.591-2.483-10.801-2.7-12.419-.757-.216-2.375-3.566-2.375-7.452 0-3.78-2.594-7.343-4.537-12.855-2.484-7.018-3.565,6.268-1.945,10.91 1.621,4.752 5.185,11.987 2.161,11.015-5.509-1.618-7.344-3.886-10.152-5.723-4.105-2.699 0,5.723 4.644,9.611 3.673,2.918 3.132,6.373-.54,9.075-4.104,3.024-4.968,9.395-.541,6.588 4.428-2.699 6.589-3.024 8.533-2.162 1.944.755.324,3.241-.54,7.668s-.324,9.614.864,5.187c1.079-4.322 1.62-5.187 3.563-5.187 1.945,0-1.402,4.105-.432,9.289 .973,4.97 3.241,4.213 1.514,6.479-1.837,2.376 2.159,3.891 1.188,7.023-.864,3.239.432,4.968-1.188,4.428s-.433,1.295.539,1.942c.973.756.324,4.103-.539,4.32-.865.108-.865,1.081 0,1.837 .863.864 1.403,5.939.432,6.371s-.864,1.729.107,2.054c.973.214 2.483,6.048 2.483,6.048s-1.511-7.129 0-17.063c1.513-9.94 3.997-23.66 4.429-25.71z" fill="#323b43"/>
  <path d="m159.95,320.52c-.65-.108.54-6.913 3.131-7.344s4.86,4.969 3.996,5.401c-1.62.86-6.05,2.15-7.13,1.94z" fill="#a2a995"/>
  <path d="m149.26,320.73c-.434-.216.539-6.265 3.672-6.048 3.132.325 4.211,6.373 3.454,6.479-.75.11-5.93.22-7.12-.43z" fill="#a2a995"/>
  <path d="m140.62,317.82c-.323-.431.647-4.536 3.133-4.105 2.376.434 3.132,6.696 2.376,6.805s-4.33-1.08-5.51-2.7z" fill="#a2a995"/>
  <path d="m97.631,317.71c-.324-.539.108-4.861 2.593-4.319 2.483.431 3.24,7.235 2.483,7.235-.75.11-4.205-1.18-5.069-2.91z" fill="#a2a995"/>
  <path d="m71.819,311.88c-.541-.325.323-7.668 3.455-7.454 3.133.325 4.429,7.777 3.674,7.885-.757-.01-5.942.1-7.129-.44z" fill="#a2a995"/>
  <path d="m85.535,311.01c-.648,0 .432-7.56 3.132-7.994 2.593-.431 4.86,5.4 3.997,5.942-1.62.87-6.05,2.27-7.129,2.05z" fill="#a2a995"/>
  <path d="m62.854,307.66c-.324-.54.217-5.29 2.592-4.428 1.945.756 2.809,6.698 2.053,6.804-.757.01-3.78-.53-4.645-2.37z" fill="#a2a995"/>
  <path d="m102.82,109.48c1.945.217 4.753,1.404 5.292,1.837 2.485,1.727 4.429,3.671 5.077,6.154 1.296,5.076 2.268.325 4.427,5.618 .757,1.943 2.161,4.211 2.161,4.211s-2.593-7.235-2.161-8.855 .757-1.837 1.62-2.16c.757-.216 2.052-1.081 0-.647s-2.375-.756-2.592-2.699c-.216-1.946.649-3.133 0-3.891-.539-.862-.108-2.16.757-2.482 .756-.323 1.188-.756.323-.65-.756.111-.863-1.187.324-1.618 1.188-.325 1.62-.864.541-.647-.974.217-1.405-1.19-.109-1.729 1.188-.539 1.188-.973-.215-.973s-1.837-2.593-1.188-3.238c.647-.756 1.836-.756.433-1.081-1.404-.431-1.836-.973-1.729-3.133 .107-2.268-.863-5.292-.863-5.292s.647,4.428.106,5.4c-.432.973-.106,2.377.541,3.35 .54.97-1.405,2.484-.647,6.048 .647,3.669.431,5.398-.649,5.184-1.079-.324-2.052-.541-2.483-2.701s-.757-1.618-.648-.214c.107,1.295-.108,3.886-.756,3.777-.54-.106-1.081-1.403-1.403-2.16-.325-.862-1.08-.539-.865.434 .433,2.916-6.048.54-7.021.214 .22.55.66,1.96 1.74,1.96z" fill="#4b5b65"/>
  <path d="m159.09,130.43s-1.837-3.783-.973-4.213c.756-.434 1.729-3.564.539-4.32-1.295-.647-3.455-1.837-1.727-1.729 1.835.108 2.16-1.62-.217-2.485s-5.075-1.081-3.671-1.729c1.295-.756 4.753.325 6.156.325s.105-1.512-.108-3.563c-.325-2.054.539-4.969 0-5.834-.65-1.079-1.295-1.187-.434-1.726s0-6.157 0-6.157 1.404,4.645 1.189,6.479c-.108,1.729.54,4.645 1.295,4.645 .648,0 2.485-.323 2.699-2.052 .325-1.834.864.215.434,1.404-.434,1.082.108,1.295.864.325 .648-.864 1.078.648.108,1.404-.973.865 0,1.295 1.51.54 1.515-.648 5.294-.431 5.294.973 0,.865-1.188.323-2.376.323-1.08-.106-4.753-.431-7.346,3.78-2.58,4.23-3.01,12.43-3.22,13.62z" fill="#4b5b65"/>
  <path d="m23.758,138.21c.107,2.59 1.619,10.476 1.727,13.5" fill="none" stroke="#000" stroke-linecap="round" stroke-linejoin="round" stroke-miterlimit="2.4142" stroke-width=".432"/>
  <path d="m132.73,255.93c-3.456.54-9.61,2.376-11.987,3.347s-9.396,2.269-7.992-.756c1.403-3.024 3.241-5.94 3.024-12.421-.107-4.967 3.779-6.045 7.021-4.534 1.62.647 1.188-1.945 3.995-3.241" fill="none" stroke="#000" stroke-linecap="round" stroke-linejoin="round" stroke-miterlimit="2.4142" stroke-width=".576"/>
  <path d="m100.55,65.412c-.863.217-1.188-.214-1.188-.431s.538,0 1.295-.325c.64-.322.43.651-.11.756z" fill="#ced5d6"/>
  <path d="m162,64.009c.757-.108.865-.648.865-.756-.108-.322-.542.217-1.296.217s-.1.647.44.539z" fill="#ced5d6"/>
 </g>
</svg>
