<?xml version="1.0" encoding="UTF-8"?>
<svg enable-background="new 0 0 415.875 416.136" viewBox="0 0 415.875 416.136" xmlns="http://www.w3.org/2000/svg">
 <path d="m331.96,257.113c.507,4.412-2.003,6.465-2.976,10.403-.887,3.591-.92,8.698-2.232,12.632-4.215,12.625-6.709,25.576-9.519,38.672-2.233,10.408-4.617,22.747-4.617,33.408 0,8.424-7.192,28.922-1.488,35.671 .736.871 9.715,2.505 11.573,3.742 3.938,2.622 6.006,4.48 7.771,8.89 2.946,7.36-1.393,14.205-8.185,7.431-.427-.426-5.391,2.229-7.44,2.229-3.953,0-7.22-2.866-9.671-2.972-2.047-.088-3.794,3.393-7.44,2.972-3.15-.364-9.257-4.972-10.416-5.944-4.185,8.262-16.772,7.429-23.807,7.429-10.069,0-29.241,4.499-25.296-10.402 .935-3.531 3.4-4.77 4.464-8.918 1.752-6.832-.487-17.008-1.488-23.778-3.003-20.316-11.818-39.793-16.808-59.722-2.517-10.053-.306-20.534-12.952-20.534-7.07,0-13.697-6.822-20.831-7.43-9.76-.832-7.705,2.401-11.904,11.89-4.052,9.157-6.094,21.041-11.113,29.397-9.006,14.995-17.476,33.873-9.002,50.803 1.649,3.295 2.475,7.065 4.519,10.128 3.588,5.374 3.988.603 6.668,1.815 7.224,3.27 10.414,5.941 14.136,13.376 5.267,10.521-22.515,8.902-29.016,8.919 4.531,9.16-8.926,9.743-13.392,4.456-2.373,5.487-13.555,2.104-16.368,0-18.871,4.37-15.678-35.885-18.958-48.988-1.274-5.091-4.188-10.482-4.85-14.917-1.016-6.816 4.464-10.602 4.464-16.349 0-16.086-.558-31.95-4.464-47.557-12.38,18.739-37.493,31.646-59.519,26.751-18.943-4.21-35.548-26.205-40.175-44.587 4.261,2.112 8.664,1.487 13.392,1.487-2.648-1.03-4.873-3.229-7.44-4.46 11.516-5.514 28.271,5.479 28.271,18.275 0,6.591-1.925,14.166 2.976,18.882 4.726,4.549 18.14,2.525 23.863,1.099 18.765-4.677 26.45-20.236 29.472-38.348 1.565-9.384 3.964-17.947 1.452-27.148-2.771-10.149-4.695-20.341-6.427-30.722-6.306-37.798-.604-71.408 36.548-89.959 17.611-8.794 36.019-3.669 54.823-3.669 8.272,0 20.346-1.337 22.073-9.965 1.459-7.289 4.805-18.282 12.289-21.245-1.791,1.227-4.005,2-5.952,2.972 3.709-7.408 8.108-19.023 16.368-22.292-4.748.047-8.396,2.116-10.416,5.944 4.39-10.695 13.266-16.065 20.832-23.78 6.96-7.096 16.364-13.249 22.319-20.805-4.664.173-8.576,1.37-11.903,4.457 8.083-7.309 9.843-11.445 21.104-12.853 5.569-.696 12.16-3.744 17.582-3.496 5.876.268 11.98,3.568 17.856,4.46-3.639-2.911-6.301-7.135-11.904-5.944 7.413,0 14.988-.926 20.832,4.456-1.783-4.485-5.514-7.702-10.416-7.428 5.093,0 10.27-.746 14.88,1.484-2.019-2.571-4.523-4.58-7.44-5.944 9.338-1.429 19.845,4.983 23.81,13.375-.04-3.926-1.689-7.562-4.464-10.404 8.074,1.463 18.099,16.388 20.832,23.78 .515-5.723-.934-10.833-1.488-16.348 2.552,5.054 4.729,10.644 4.464,16.348 1.245-3.736 1.245-8.154 0-11.89 5.418,5.764 5.525,13.55 2.976,20.806 4.128-8.242 7.937-16.013 14.88-22.292-5.041,7.554-11.911,17-10.416,26.752 .717-2.654 1.973-4.922 2.977-7.432-.626,3.235-.149,6.463 1.487,8.917 2.977-5.944 5.952-11.888 8.929-17.833-4.854,5.64-4.947,13.784-5.952,20.805 1.549-2.261 2.723-2.492 4.464-4.457-1.306,2.393-1.807,5.014-2.976,7.428 3.36-2.667 6.031-6.353 7.439-10.402-.041,3.926-1.688,7.562-4.464,10.402 3.43.266 6.256-.709 8.928-2.972-1.875,3.21-4.988,4.038-8.928,4.46 2.868,1.929 6.709,1.883 10.416,1.486-1.585.798-2.88,2.172-4.464,2.972h4.464c-.394.029-2.744.254-2.977,0 3.985,6.351 5.625,18.108 11.075,22.871 6.594,5.762 22.012,15.421 24.637,23.202 1.089,3.226-5.712,29.494-10.416,31.208 2.374,4.506 1.488,9.839 1.488,14.864l-1.488-2.972c-1.37,4.779-1.797,9.896-1.488,14.86l-1.487-4.458c-.872,2.631-1.809,3.985-1.488,7.43-.598-1.637-1.104-2.844-1.488-4.458l-2.976,2.972c-.136-2.326-1.209-3.84-1.488-5.944-.604,2.191-.968,1.434-1.488,4.458-.069-1.995-1.24-3.957-1.487-5.944-.808,1.124-2.141,1.868-2.977,2.972-1.3-2.893-2.021-5.046-2.976-8.916l-1.488,2.972v-4.46c-.89,1.03-1.958,2.068-2.976,2.972l-1.488-4.457c-.599,1.841-1.299,2.071-1.487,4.457-.182-2.012-1.241-3.938-1.488-5.944l-1.488,2.972v-4.458l-1.487,2.974-1.488-2.974c1.147,3.442 1.303,7.099 0,10.402-1.792-2.702-2.752-2.96-4.464-5.944 1.503,6.186.055,11.181 0,17.836-.593-3.379-1.24-4.646-2.977-7.432 2.745,9.905 1.879,20.396-1.487,29.725-.955-2.496-2.46-4.744-2.977-7.432 0,12.521.068,23.517-2.976,35.668-.498-4.262-.91-10.075-4.464-11.888 0,14.152-8.064,31.532 2.976,43.099-4.928-2.801-8.812-7.984-10.415-13.374-1.769,7.228-1.244,21.237 5.951,26.75-3.66-1.752-5.897-4.955-5.951-8.918-5.888,3.168-2.103,17.596-5.952,23.78 .504-5.889-2.598-10.935-4.466-16.346m-55.054,34.181c0,32.838 3.291,63.717 0,96.605-9.354-30.096-13.392-63.627-13.392-95.118 4.443,2.66 9.145,1.073 13.392-1.487m-138.382-23.777c0,21.559-4.96,38.753-8.928,59.447 0-21.201 6.485-39.095 8.928-59.447" fill="#e0b81d" fill-rule="evenodd"/>
 <path d="m331.96,257.113c.507,4.412-2.003,6.465-2.976,10.403-.887,3.591-.92,8.698-2.232,12.632-4.215,12.625-6.709,25.576-9.519,38.672-2.233,10.408-4.617,22.747-4.617,33.408 0,8.424-7.192,28.922-1.488,35.671 .736.871 9.715,2.505 11.573,3.742 3.938,2.622 6.006,4.48 7.771,8.89 2.946,7.36-1.393,14.205-8.185,7.431-.427-.426-5.391,2.229-7.44,2.229-3.953,0-7.22-2.866-9.671-2.972-2.047-.088-3.794,3.393-7.44,2.972-3.15-.364-9.257-4.972-10.416-5.944-4.185,8.262-16.772,7.429-23.807,7.429-10.069,0-29.241,4.499-25.296-10.402 .935-3.531 3.4-4.77 4.464-8.918 1.752-6.832-.487-17.008-1.488-23.778-3.003-20.316-11.818-39.793-16.808-59.722-2.517-10.053-.306-20.534-12.952-20.534-7.07,0-13.697-6.822-20.831-7.43-9.76-.832-7.705,2.401-11.904,11.89-4.052,9.157-6.094,21.041-11.113,29.397-9.006,14.995-17.476,33.873-9.002,50.803 1.649,3.295 2.475,7.065 4.519,10.128 3.588,5.374 3.988.603 6.668,1.815 7.224,3.27 10.414,5.941 14.136,13.376 5.267,10.521-22.515,8.902-29.016,8.919 4.531,9.16-8.926,9.743-13.392,4.456-2.373,5.487-13.555,2.104-16.368,0-18.871,4.37-15.678-35.885-18.958-48.988-1.274-5.091-4.188-10.482-4.85-14.917-1.016-6.816 4.464-10.602 4.464-16.349 0-16.086-.558-31.95-4.464-47.557-12.38,18.739-37.493,31.646-59.519,26.751-18.943-4.21-35.548-26.205-40.175-44.587 4.261,2.112 8.664,1.487 13.392,1.487-2.648-1.03-4.873-3.229-7.44-4.46 11.516-5.514 28.271,5.479 28.271,18.275 0,6.591-1.925,14.166 2.976,18.882 4.726,4.549 18.14,2.525 23.863,1.099 18.765-4.677 26.45-20.236 29.472-38.348 1.565-9.384 3.964-17.947 1.452-27.148-2.771-10.149-4.695-20.341-6.427-30.722-6.306-37.798-.604-71.408 36.548-89.959 17.611-8.794 36.019-3.669 54.823-3.669 8.272,0 20.346-1.337 22.073-9.965 1.459-7.289 4.805-18.282 12.289-21.245-1.791,1.227-4.005,2-5.952,2.972 3.709-7.408 8.108-19.023 16.368-22.292-4.748.047-8.396,2.116-10.416,5.944 4.39-10.695 13.266-16.065 20.832-23.78 6.96-7.096 16.364-13.249 22.319-20.805-4.664.173-8.576,1.37-11.903,4.457 8.083-7.309 9.843-11.445 21.104-12.853 5.569-.696 12.16-3.744 17.582-3.496 5.876.268 11.98,3.568 17.856,4.46-3.639-2.911-6.301-7.135-11.904-5.944 7.413,0 14.988-.926 20.832,4.456-1.783-4.485-5.514-7.702-10.416-7.428 5.093,0 10.27-.746 14.88,1.484-2.019-2.571-4.523-4.58-7.44-5.944 9.338-1.429 19.845,4.983 23.81,13.375-.04-3.926-1.689-7.562-4.464-10.404 8.074,1.463 18.099,16.388 20.832,23.78 .515-5.723-.934-10.833-1.488-16.348 2.552,5.054 4.729,10.644 4.464,16.348 1.245-3.736 1.245-8.154 0-11.89 5.418,5.764 5.525,13.55 2.976,20.806 4.128-8.242 7.937-16.013 14.88-22.292-5.041,7.554-11.911,17-10.416,26.752 .717-2.654 1.973-4.922 2.977-7.432-.626,3.235-.149,6.463 1.487,8.917 2.977-5.944 5.952-11.888 8.929-17.833-4.854,5.64-4.947,13.784-5.952,20.805 1.549-2.261 2.723-2.492 4.464-4.457-1.306,2.393-1.807,5.014-2.976,7.428 3.36-2.667 6.031-6.353 7.439-10.402-.041,3.926-1.688,7.562-4.464,10.402 3.43.266 6.256-.709 8.928-2.972-1.875,3.21-4.988,4.038-8.928,4.46 2.868,1.929 6.709,1.883 10.416,1.486-1.585.798-2.88,2.172-4.464,2.972h4.464c-.394.029-2.744.254-2.977,0 3.985,6.351 5.625,18.108 11.075,22.871 6.594,5.762 22.012,15.421 24.637,23.202 1.089,3.226-5.712,29.494-10.416,31.208 2.374,4.506 1.488,9.839 1.488,14.864l-1.488-2.972c-1.37,4.779-1.797,9.896-1.488,14.86l-1.487-4.458c-.872,2.631-1.809,3.985-1.488,7.43-.598-1.637-1.104-2.844-1.488-4.458l-2.976,2.972c-.136-2.326-1.209-3.84-1.488-5.944-.604,2.191-.968,1.434-1.488,4.458-.069-1.995-1.24-3.957-1.487-5.944-.808,1.124-2.141,1.868-2.977,2.972-1.3-2.893-2.021-5.046-2.976-8.916l-1.488,2.972v-4.46c-.89,1.03-1.958,2.068-2.976,2.972l-1.488-4.457c-.599,1.841-1.299,2.071-1.487,4.457-.182-2.012-1.241-3.938-1.488-5.944l-1.488,2.972v-4.458l-1.487,2.974-1.488-2.974c1.147,3.442 1.303,7.099 0,10.402-1.792-2.702-2.752-2.96-4.464-5.944 1.503,6.186.055,11.181 0,17.836-.593-3.379-1.24-4.646-2.977-7.432 2.745,9.905 1.879,20.396-1.487,29.725-.955-2.496-2.46-4.744-2.977-7.432 0,12.521.068,23.517-2.976,35.668-.498-4.262-.91-10.075-4.464-11.888 0,14.152-8.064,31.532 2.976,43.099-4.928-2.801-8.812-7.984-10.415-13.374-1.769,7.228-1.244,21.237 5.951,26.75-3.66-1.752-5.897-4.955-5.951-8.918-5.888,3.168-2.103,17.596-5.952,23.78 .504-5.889-2.598-10.935-4.466-16.346" fill="none" stroke="#000" stroke-linecap="square" stroke-miterlimit="9.811" stroke-width=".484"/>
 <path d="m276.91 291.29c0 32.838 3.291 63.717 0 96.605-9.354-30.096-13.392-63.627-13.392-95.118 4.443 2.66 9.145 1.073 13.392-1.487" fill="none" stroke="#000" stroke-linecap="square" stroke-miterlimit="9.811" stroke-width=".484"/>
 <path d="m138.52 267.52c0 21.559-4.96 38.753-8.928 59.447 0-21.201 6.485-39.095 8.928-59.447" fill="none" stroke="#000" stroke-linecap="square" stroke-miterlimit="9.811" stroke-width=".484"/>
 <path d="m138.52 267.52c4.271-11.582 4.015-24.522 8.928-35.668" fill="none" stroke="#000" stroke-linecap="square" stroke-miterlimit="9.811" stroke-width=".484"/>
 <path d="m132.57 203.61c9.078 16.651 15.496 35.862 32.735 46.073" fill="none" stroke="#000" stroke-linecap="square" stroke-miterlimit="9.811" stroke-width=".484"/>
 <path d="m142.99 245.22c16.121 9.162 26.072 25.654 43.151 34.183" fill="none" stroke="#000" stroke-linecap="square" stroke-miterlimit="9.811" stroke-width=".484"/>
 <path d="m184.65 269c2.78 4.166 5.446 8.226 8.928 11.891" fill="none" stroke="#000" stroke-linecap="square" stroke-miterlimit="9.811" stroke-width=".484"/>
 <path d="m208.46 182.8c-4.326 9.815-3.95 23.471 4.463 31.208" fill="none" stroke="#000" stroke-linecap="square" stroke-miterlimit="9.811" stroke-width=".484"/>
 <path d="m209.95 212.53c-4.395 7.943 2.811 20.204 5.952 28.238" fill="none" stroke="#000" stroke-linecap="square" stroke-miterlimit="9.811" stroke-width=".484"/>
 <path d="m215.9 219.96c6.832 23.009-4.031 46.065 4.464 69.854" fill="none" stroke="#000" stroke-linecap="square" stroke-miterlimit="9.811" stroke-width=".484"/>
 <path d="m262.03 270.49c-3.361 7.927 0.273 14.285 1.488 22.292" fill="none" stroke="#000" stroke-linecap="square" stroke-miterlimit="9.811" stroke-width=".484"/>
 <path d="m276.91 291.29c4.011-1.474 7.795-4.039 10.415-7.429" fill="none" stroke="#000" stroke-linecap="square" stroke-miterlimit="9.811" stroke-width=".484"/>
 <path d="m300.71 380.47c3.61 7.429 0.472 11.228-5.952 14.86" fill="none" stroke="#000" stroke-linecap="square" stroke-miterlimit="9.811" stroke-width=".484"/>
 <path d="m302.2 396.82c2.866 2.672 3.611 6.584 2.977 10.404" fill="none" stroke="#000" stroke-linecap="square" stroke-miterlimit="9.811" stroke-width=".484"/>
 <path d="m321.544,407.22c1.488-4.781.359-9.831-4.464-13.376" fill="none" stroke="#000" stroke-linecap="square" stroke-miterlimit="9.811" stroke-width=".484"/>
 <path d="m285.83 405.73c-3.604-16.403-5.688-17.206-20.832-16.349" fill="none" stroke="#000" stroke-linecap="square" stroke-miterlimit="9.811" stroke-width=".484"/>
 <path d="m259.05 389.38c-2.922-1.993-6.006-1.993-8.928 0" fill="none" stroke="#000" stroke-linecap="square" stroke-miterlimit="9.811" stroke-width=".484"/>
 <path d="m245.66 389.38-2.976 2.972" fill="none" stroke="#000" stroke-linecap="square" stroke-miterlimit="9.811" stroke-width=".484"/>
 <path d="m250.12 395.33c-5.239 4.726-2.111 10.709 0 16.349" fill="none" stroke="#000" stroke-linecap="square" stroke-miterlimit="9.811" stroke-width=".484"/>
 <path d="m262.03 411.68c-5.031-3.894-3.505-13.795 0-16.349" fill="none" stroke="#000" stroke-linecap="square" stroke-miterlimit="9.811" stroke-width=".484"/>
 <path d="m272.44 395.33c-2.646 2.772-1.663 10.262 0 14.864" fill="none" stroke="#000" stroke-linecap="square" stroke-miterlimit="9.811" stroke-width=".484"/>
 <path d="m177.21 405.73c-0.011-5.506-0.208-13.221-5.952-14.86" fill="none" stroke="#000" stroke-linecap="square" stroke-miterlimit="9.811" stroke-width=".484"/>
 <path d="m160.84 392.36c5.445 1.271 6.182 8.269 5.952 13.376" fill="none" stroke="#000" stroke-linecap="square" stroke-miterlimit="9.811" stroke-width=".484"/>
 <path d="m165.31 386.41c-5.016-3.556-9.53 5.645-11.904-2.972" fill="none" stroke="#000" stroke-linecap="square" stroke-miterlimit="9.811" stroke-width=".484"/>
 <path d="m154.89 407.22c-0.139-13.486-10.736-13.376-20.832-13.376" fill="none" stroke="#000" stroke-linecap="square" stroke-miterlimit="9.811" stroke-width=".484"/>
 <path d="m129.6 392.36c-4.082 2.049-9.545 0.419-13.392 2.972" fill="none" stroke="#000" stroke-linecap="square" stroke-miterlimit="9.811" stroke-width=".484"/>
 <path d="m114.72 398.3-1.488 2.971" fill="none" stroke="#000" stroke-linecap="square" stroke-miterlimit="9.811" stroke-width=".484"/>
 <path d="m123.64 399.79c-2.945 2.275-1.215 8.085 1.488 11.889" fill="none" stroke="#000" stroke-linecap="square" stroke-miterlimit="9.811" stroke-width=".484"/>
 <path d="m141.5 411.68c-2.001-3.53-5.276-7.051-4.464-11.889" fill="none" stroke="#000" stroke-linecap="square" stroke-miterlimit="9.811" stroke-width=".484"/>
 <path d="m145.96 401.27c4.492 1.534 6.07 8.159 4.464 11.891" fill="none" stroke="#000" stroke-linecap="square" stroke-miterlimit="9.811" stroke-width=".484"/>
 <path d="m145.96 393.84c-10.69-21.36-16.368-42.996-16.368-66.88" fill="none" stroke="#000" stroke-linecap="square" stroke-miterlimit="9.811" stroke-width=".484"/>
 <path d="m108.76 352.23c0.712-6.126-1.254-13.531-2.976-19.322" fill="none" stroke="#000" stroke-linecap="square" stroke-miterlimit="9.811" stroke-width=".484"/>
 <path d="m23.951 300.21c-5.831-4.867-4.766-12.032-7.44-17.837" fill="none" stroke="#000" stroke-linecap="square" stroke-miterlimit="9.811" stroke-width=".484"/>
 <path d="m9.071 277.92-2.976-2.972" fill="none" stroke="#000" stroke-linecap="square" stroke-miterlimit="9.811" stroke-width=".484"/>
 <path d="m28.415 269c3.249 2.772 3.921 6.857 1.488 10.404" fill="none" stroke="#000" stroke-linecap="square" stroke-miterlimit="9.811" stroke-width=".484"/>
 <path d="m101.32 283.86-5.952-41.614" fill="none" stroke="#000" stroke-linecap="square" stroke-miterlimit="9.811" stroke-width=".484"/>
 <path d="m102.81 257.11c0-21.432-4.136-48.707-13.392-68.366" fill="none" stroke="#000" stroke-linecap="square" stroke-miterlimit="9.811" stroke-width=".484"/>
 <path d="m199.531,107.006v2.972c1.396-3.457 3.981-6.039 7.439-7.43-5.07,6.174-8.423,14.875-5.952,22.292 .952-3.105 2.738-5.727 5.952-7.43-10.509,11.373-1.475,26.864 1.488,38.641l1.488-4.46c-.49,10.517 4.631,23.679 11.903,31.213-.036-7.227-1.721-12.609 0-19.321-.357,6.197 2.056,13.021 5.952,17.833-.58-3.046.812-5.08 1.488-7.43" fill="none" stroke="#000" stroke-linecap="square" stroke-miterlimit="9.811" stroke-width=".484"/>
 <path d="m230.78 160.51c-1.87 13.075-2.994 27.592 5.951 38.643v-2.972c2.2 2.667 3.858 5.642 4.464 8.916 0-16.779-1.12-33.854-2.976-50.531" fill="none" stroke="#000" stroke-linecap="square" stroke-miterlimit="9.811" stroke-width=".484"/>
 <path d="m241.194,190.233c7.218,11.992 3.251,23.31 1.488,35.669 2.616-5.988 6.1-10.85 8.184-17.092 1.668-4.996.354-9.929 3.72-14.119-5.048,9.004 4.658,18.648 0,28.239l2.977-2.975c-2.753,4.191-.889,8.997 0,13.376-.359-5.751 1.394-20.127 7.439-22.292" fill="none" stroke="#000" stroke-linecap="square" stroke-miterlimit="9.811" stroke-width=".484"/>
 <path d="m262.03 185.78c-3.286 5.362 0.344 20.42 2.976 26.751 3.637 8.747 12.476 15.957 13.392 25.267l2.977-16.349c-3.691 7.792 1.946 14.423 1.487 22.292" fill="none" stroke="#000" stroke-linecap="square" stroke-miterlimit="9.811" stroke-width=".484"/>
 <path d="m281.37 251.17c-1.146-8.049 5.031-15.892 5.951-23.78 2.868 8.16 2.552 14.648 0 22.292 10.178-12.561 7.131-34.344 10.416-49.045" fill="none" stroke="#000" stroke-linecap="square" stroke-miterlimit="9.811" stroke-width=".484"/>
 <path d="m291.78 176.86c-1.579 9.782 4.436 17.763 7.905 26.428 4.763 11.892 3.713 20.763 1.023 33.02 5.95-8.908 8.588-22.77 16.367-29.723" fill="none" stroke="#000" stroke-linecap="square" stroke-miterlimit="9.811" stroke-width=".484"/>
 <path d="m311.128,216.984c-.526,6.253.989,16.837 3.72,22.295 2.929,5.851-2.975,15.825-.743,22.292 8.457-15.517 13.636-39.212 8.928-56.476" fill="none" stroke="#000" stroke-linecap="square" stroke-miterlimit="9.811" stroke-width=".484"/>
 <path d="m326.01 178.34c1.746 9.728 0.415 17.517 1.488 26.752" fill="none" stroke="#000" stroke-linecap="square" stroke-miterlimit="9.811" stroke-width=".484"/>
 <path d="m324.52,215.5c.825,3.008 1.988,5.957 2.977,8.916-1.899-6.054-.715-14.539 1.488-20.808 5.166,11.662 1.783,20.929 0,32.697 9.302-11.479 17.044-46.308 8.928-59.447" fill="none" stroke="#000" stroke-linecap="square" stroke-miterlimit="9.811" stroke-width=".484"/>
 <path d="m343.86 193.21c0 9.641-3.396 18.852 0 28.239" fill="none" stroke="#000" stroke-linecap="square" stroke-miterlimit="9.811" stroke-width=".484"/>
 <path d="m357.26 191.72-1.487-2.972" fill="none" stroke="#000" stroke-linecap="square" stroke-miterlimit="9.811" stroke-width=".484"/>
 <path d="m349.82 175.37c-0.658-9.644 4.402-20.662 0-29.725" fill="none" stroke="#000" stroke-linecap="square" stroke-miterlimit="9.811" stroke-width=".484"/>
 <path d="m361.72 156.05c-0.422-3.795-1.974-7.507-4.464-10.404" fill="none" stroke="#000" stroke-linecap="square" stroke-miterlimit="9.811" stroke-width=".484"/>
 <path d="m331.96 132.27c-5.522 16.052 0 36.837 0 53.505" fill="none" stroke="#000" stroke-linecap="square" stroke-miterlimit="9.811" stroke-width=".484"/>
 <path d="m343.86 178.34c4.738-11.133 1.609-30.792-5.951-40.126" fill="none" stroke="#000" stroke-linecap="square" stroke-miterlimit="9.811" stroke-width=".484"/>
 <path d="m308.15 196.18c7.807-19.461-10.635-45.465-15.266-63.962-4.053-16.185-0.086-45.36 16.754-53.45" fill="none" stroke="#000" stroke-linecap="square" stroke-miterlimit="9.811" stroke-width=".484"/>
 <path d="m315.59 81.74c-13.313 12.141-12.229 55.135 4.464 63.907-3.347-6.002-10.095-35.988 1.488-34.181-4.285-4.684-5.093-10.226-4.464-16.349 2.957 2.915 1.854 1.65 5.952 2.972-5.852-1.479-5.832-12.114-4.464-16.35" fill="none" stroke="#000" stroke-linecap="square" stroke-miterlimit="9.811" stroke-width=".484"/>
 <path d="m328.985,78.768c-6.903-.629-12.899,5.641-19.344,1.488 2.273-1.48 2.357-2.541 4.464-4.46-3.566,2.529-7.966,3.146-11.904,4.46 .836-2.861.542-6.095 1.488-8.918l-2.976,2.972c-.572-5.567-.422-11.336 4.464-14.862-1.857.796-4.061.771-5.952,1.488 1.966-3.21 3.035-4.64 5.952-5.946-6.881-.841-.567-9.156 1.487-11.89-2.418.295-5.056-.469-7.439,0 2.882-2.298 6.499-3.185 10.416-2.972-.81-.467-2.21-2.22-4.464-2.972 4.019-2.227 8.497-1.663 8.928-5.944 1.83,1.093 4.287,1.649 5.951,2.972l-1.487-1.486c9.146.479 8.859,11.087 17.855,10.402" fill="none" stroke="#000" stroke-linecap="square" stroke-miterlimit="9.811" stroke-width=".484"/>
 <path d="m327.5 37.155c-15.012-1.667-14.88 5.137-14.88 17.834 0 8.932-0.664 22.657 11.903 23.778" fill="none" stroke="#000" stroke-linecap="square" stroke-miterlimit="9.811" stroke-width=".484"/>
 <path d="m327.5 66.879c-4.472-0.821-7.44-3.695-7.44-8.174 0-5.011 11.936-5.881 7.44-0.742" fill="none" stroke="#000" stroke-linecap="square" stroke-miterlimit="9.811" stroke-width=".484"/>
 <path d="m373.62 138.22c-3.166 1.379-6.302 1.584-8.928 0 7.798-3.485 18.028 2.447 26.783-1.486 10.099-4.537 10.892-14.878 14.88-23.78" fill="none" stroke="#000" stroke-linecap="square" stroke-miterlimit="9.811" stroke-width=".484"/>
 <path d="m407.85 114.44c-2.832-2.829-5.407-6.2-8.928-7.432 5.828-2.618 9.346-0.685 14.879-2.972" fill="none" stroke="#000" stroke-linecap="square" stroke-miterlimit="9.811" stroke-width=".484"/>
 <path d="m401.9 132.27-1.488-2.972" fill="none" stroke="#000" stroke-linecap="square" stroke-miterlimit="9.811" stroke-width=".484"/>
 <path d="m400.41 127.81c2.317-0.054 4.457-1.14 5.952-2.974" fill="none" stroke="#000" stroke-linecap="square" stroke-miterlimit="9.811" stroke-width=".484"/>
 <path d="m387.015,114.438c-1.311-.321-1.809.172-1.488,1.484" fill="none" stroke="#000" stroke-linecap="square" stroke-miterlimit="9.811" stroke-width=".484"/>
 <path d="m388.5 118.9c-11.351 2.242-16.755 13.487-22.319 22.292" fill="none" stroke="#000" stroke-linecap="square" stroke-miterlimit="9.811" stroke-width=".484"/>
 <path d="m358.74 144.16c1.948-9.248 12.712-23.026 22.319-25.266" fill="none" stroke="#000" stroke-linecap="square" stroke-miterlimit="9.811" stroke-width=".484"/>
 <path d="m378.09 118.9c-12.919 4.3-25.819 13.053-32.735 25.266" fill="none" stroke="#000" stroke-linecap="square" stroke-miterlimit="9.811" stroke-width=".484"/>
 <path d="m336.42 138.22c11.226-9.343 24.515-20.635 40.175-19.32" fill="none" stroke="#000" stroke-linecap="square" stroke-miterlimit="9.811" stroke-width=".484"/>
 <path d="m360.23 109.98c-6.271-0.012-10.522-9.38-11.904-14.86l-1.487 4.457c-0.438-2.262-1.24-3.438-1.488-5.944-2.479 4.357 1.799 15.132 5.952 11.89 2.416 2.62 5.59 4.301 8.927 4.457" fill="none" stroke="#000" stroke-linecap="square" stroke-miterlimit="9.811" stroke-width=".484"/>
 <path d="m366.18 102.55c2.685-2.365 4.637-4.844 5.951-7.43" fill="none" stroke="#000" stroke-linecap="square" stroke-miterlimit="9.811" stroke-width=".484"/>
 <path d="m369.16 93.63c-1.599 3.656-3.593 7.185-5.952 10.404" fill="none" stroke="#000" stroke-linecap="square" stroke-miterlimit="9.811" stroke-width=".484"/>
 <path d="m360.23 101.06c1.367-2.916 3.378-5.418 5.952-7.432" fill="none" stroke="#000" stroke-linecap="square" stroke-miterlimit="9.811" stroke-width=".484"/>
 <path d="m363.21 92.146c-2.539 3.568-6.09 5.298-8.928 8.916" fill="none" stroke="#000" stroke-linecap="square" stroke-miterlimit="9.811" stroke-width=".484"/>
 <path d="m354.28 99.574c1.813-2.642 3.737-5.047 5.952-7.428" fill="none" stroke="#000" stroke-linecap="square" stroke-miterlimit="9.811" stroke-width=".484"/>
 <path d="m357.26 90.658c-0.956 2.368-2.45 4.353-4.464 5.944" fill="none" stroke="#000" stroke-linecap="square" stroke-miterlimit="9.811" stroke-width=".484"/>
 <path d="m349.82 92.146c1.827-0.181 3.38-1.279 4.464-2.974" fill="none" stroke="#000" stroke-linecap="square" stroke-miterlimit="9.811" stroke-width=".484"/>
 <path d="m376.6 90.658 4.464 4.46" fill="none" stroke="#000" stroke-linecap="square" stroke-miterlimit="9.811" stroke-width=".484"/>
 <path d="m381.06 93.63-2.976-2.972" fill="none" stroke="#000" stroke-linecap="square" stroke-miterlimit="9.811" stroke-width=".484"/>
 <path d="m382.551,92.146c4.065,4.734 8.34,9.395 14.88,5.944h-2.977c-.193.25 1.408-3.648 1.488-2.972-3.188,2.071-4.109,1.484-7.439,0 1.385-.267 3.051.028 4.464,0v-1.488c-3.633,1.635-5.985-.865-10.416-1.484" fill="none" stroke="#000" stroke-linecap="square" stroke-miterlimit="9.811" stroke-width=".484"/>
 <path d="m366.184,80.256c-.987.556-1.977-.518-1.488,1.484-3.167-1.208-5.973-2.142-8.928-2.972 3.405-.743 15.811-4.053 7.439,1.488" fill="none" stroke="#000" stroke-linecap="square" stroke-miterlimit="9.811" stroke-width=".484"/>
 <path d="m366.184,78.768c3.415,2.08 4.556,4.443 2.976,7.432 1.748,1.386 3.045,2.844 4.464,4.458-.139-2.77-.013-4.247 0-5.944-.694-2.047-1.902-.809 0-4.458-4.235,2.312-9.634-3.65-4.464-7.432l-4.464,1.486v-1.486c1.383-1.402.403-.819 1.488-2.972-1.23,1.529-2.487,1.591-4.465,2.972 1.183-1.947.777-2.467 1.488-4.458-2.26,3.606-4.096,2.995-7.439,1.486" fill="none" stroke="#000" stroke-linecap="square" stroke-miterlimit="9.811" stroke-width=".484"/>
 <path d="m355.768,71.337c1.031-.983 1.708-1.474 1.487-2.972v1.486c.439-4.136 1.492-2.357 0-5.944 .869.951 2.33,1.865 2.977,2.972-.751-2.8-.147-4.649-1.488-7.432 1.585,1.518 2.853,1.787 4.464,4.46-.556-2.204-.563-3.645-1.488-5.944 4.256,3.749 7.491,7.728 8.929,13.374" fill="none" stroke="#000" stroke-linecap="square" stroke-miterlimit="9.811" stroke-width=".484"/>
 <path d="m343.864,65.392c-1.984-2.707-4.043-3.81-4.464-7.428v4.456c-1.479-2.218-3.308-3.398-4.464-5.944 .611,4.275 1,8.373 2.977,11.89v-2.974c.965,3.567 4.167,6.878 5.951,8.918 1.683-1.064.521.362 1.488-1.486 2.008,1.588 3.518,3.576 4.464,5.944" fill="none" stroke="#000" stroke-linecap="square" stroke-miterlimit="9.811" stroke-width=".484"/>
 <path d="m349.82 28.239c-0.909 1.585-2.308 2.556-2.976 4.458v-4.458" fill="none" stroke="#000" stroke-linecap="square" stroke-miterlimit="9.811" stroke-width=".484"/>
 <path d="m340.888,25.267c.3-3.104-.197-6.076-1.488-8.918" fill="none" stroke="#000" stroke-linecap="square" stroke-miterlimit="9.811" stroke-width=".484"/>
 <path d="m320.06 10.402c5.363 2.567 13.038 17.229 8.929 22.294" fill="none" stroke="#000" stroke-linecap="square" stroke-miterlimit="9.811" stroke-width=".484"/>
 <path d="m323.03 25.267c-4.092-8.173-8.778-15.979-17.855-19.32" fill="none" stroke="#000" stroke-linecap="square" stroke-miterlimit="9.811" stroke-width=".484"/>
 <path d="m279.88 34.183c-2.793 6.708-12.61 10.783-19.344 11.889" fill="none" stroke="#000" stroke-linecap="square" stroke-miterlimit="9.811" stroke-width=".484"/>
 <path d="m272.44 41.615c-16.155 36.932-28.896 67.33-17.856 108.49" fill="none" stroke="#000" stroke-linecap="square" stroke-miterlimit="9.811" stroke-width=".484"/>
 <path d="m272.44 123.35c-1.105 9.638 2.961 22.909 4.464 32.696 1.902 12.388 7.439 22.837 7.439 35.669" fill="none" stroke="#000" stroke-linecap="square" stroke-miterlimit="9.811" stroke-width=".484"/>
 <path d="m250.12 118.9c-5.945-17.35 2.053-52.466 11.904-66.879" fill="none" stroke="#000" stroke-linecap="square" stroke-miterlimit="9.811" stroke-width=".484"/>
 <path d="m239.71 41.615-5.953 1.484" fill="none" stroke="#000" stroke-linecap="square" stroke-miterlimit="9.811" stroke-width=".484"/>
 <path d="m224.83 78.768c-3.981 5.966-11.385 11.131-13.392 17.834 3.294-1.852 6.785-3.413 10.415-4.456-7.489 5.976-10.298 11.535-13.391 20.804 1.412-2.89 3.416-5.383 5.952-7.43-4.24 8.998-10.249 19.818-5.952 29.723 1.099-3.291 2.608-4.6 4.463-7.428-4.331 6.131-3.918 15.433-1.487 22.292" fill="none" stroke="#000" stroke-linecap="square" stroke-miterlimit="9.811" stroke-width=".484"/>
 <path d="m40.318,301.697c-2.688-1.048-5.19-1.117-7.44-2.972 .368,3.116 2.876,5.558 5.952,7.433-4.131.067-7.728-1.424-10.416-4.461 1.396,3.457 3.981,6.04 7.44,7.433-14.929-10.854-29.396-23.921-34.224-43.101 4.261,2.112 8.664,1.487 13.392,1.487-2.648-1.03-4.873-3.229-7.44-4.46 8.896-4.259 20.385.597 24.551,8.918 4.417,8.82-.161,23.732 8.185,29.723m159.213-194.691c1.29-8.508 4.438-23.206 13.391-26.75-1.791,1.227-4.005,2-5.952,2.972 3.709-7.408 8.108-19.023 16.368-22.292-4.748.047-8.396,2.116-10.416,5.944 4.39-10.695 13.266-16.065 20.832-23.78 6.96-7.096 16.364-13.249 22.319-20.805-4.664.173-8.576,1.37-11.903,4.457 8.083-7.309 9.843-11.445 21.104-12.853 5.569-.696 12.16-3.744 17.582-3.496 5.876.268 11.98,3.568 17.856,4.46-3.639-2.911-6.301-7.135-11.904-5.944 7.413,0 14.988-.926 20.832,4.456-1.783-4.485-5.514-7.702-10.416-7.428 5.093,0 10.27-.746 14.88,1.484-2.019-2.571-4.523-4.58-7.44-5.944 9.336-1.429 19.843,4.983 23.808,13.375-.04-3.926-1.689-7.562-4.464-10.404 8.074,1.463 18.099,16.388 20.832,23.78 .515-5.723-.934-10.833-1.488-16.348 2.552,5.054 4.729,10.644 4.464,16.348 1.245-3.736 1.245-8.154 0-11.89 5.418,5.764 5.525,13.55 2.976,20.806 4.128-8.242 7.937-16.013 14.88-22.292-5.041,7.554-11.911,17-10.416,26.752 .717-2.654 1.973-4.922 2.977-7.432-.626,3.235-.149,6.463 1.487,8.917 2.977-5.944 5.952-11.888 8.929-17.833-4.854,5.64-4.947,13.784-5.952,20.805 1.549-2.261 2.723-2.492 4.464-4.457-1.306,2.393-1.807,5.014-2.976,7.428 3.36-2.667 6.031-6.353 7.439-10.402-.041,3.926-1.688,7.562-4.464,10.402 3.43.266 6.256-.709 8.928-2.972-1.875,3.21-4.988,4.038-8.928,4.46 2.868,1.929 6.709,1.883 10.416,1.486-1.585.798-2.88,2.172-4.464,2.972h4.464c-8.046,0-17.151,1.413-20.832-7.43 .69,1.861.665,3.9 1.488,5.944-6.43-1.162-10.401-7.404-11.904-13.376 .724,2.558.52,3.667 1.488,5.944-4.931-4.054-11.103-1.088-16.368-3.714-6.023-3.005-7.311-9.263-14.879-9.66l1.487,1.486c-1.664-1.323-4.121-1.878-5.951-2.972-.431,4.281-4.909,3.717-8.928,5.944 2.254.752 3.654,2.505 4.464,2.972-3.917-.212-7.534.674-10.416,2.972 2.384-.469 5.021.295 7.439,0-2.055,2.734-8.368,11.049-1.487,11.89-2.917,1.306-3.986,2.735-5.952,5.946 1.892-.717 4.095-.692 5.952-1.488-4.886,3.526-5.036,9.295-4.464,14.862l2.976-2.972c-.946,2.823-.652,6.058-1.488,8.918 3.938-1.315 8.338-1.931 11.904-4.46-2.106,1.92-2.19,2.98-4.464,4.46 6.676,4.302 16.479-5.84 21.575-.744 6.768,6.768-.476,18.912 6.696,24.522-2.186-1.886-2.913-2.435-4.464-4.46-.856,7.717 2.723,10.918 4.464,17.836-1.685-1.543-3.08-1.906-4.464-4.46-2.371,14.697 13.317,20.491 20.831,29.725 9.977,12.261 11.181,28.608 5.952,43.101-.955-2.496-2.46-4.744-2.977-7.432 0,12.521.068,23.517-2.976,35.668-.498-4.262-.91-10.075-4.464-11.888 0,11.082-5.685,23.759-1.488,34.181-3.641-8.484-8.231-17.354-7.439-26.751 .94-11.158 6.273-22.593-2.976-32.696 8.116,13.14.374,47.969-8.928,59.447 1.783-11.768 5.166-21.035 0-32.697-2.203,6.269-3.388,14.754-1.488,20.808-.825-3.018-2.148-5.899-2.977-8.916 1.271,13.618-3.619,34.171-10.415,46.071-2.231-6.467 3.672-16.441.743-22.292-2.73-5.458-4.246-16.042-3.72-22.295-3.018,6.028-5.034,14.973-10.415,19.32 3.307-13.221 4.067-23.344-2.977-35.669-3.285,14.701-.238,36.484-10.416,49.045 2.552-7.644 2.868-14.132 0-22.292 .456,5.751-2.256,11.157-4.464,16.348 .459-7.869-5.179-14.5-1.487-22.292l-2.977,16.349c-.913-3.267-10.227-26.355-13.392-26.753-5.587-.701-7.661,18.749-7.439,22.292-.889-4.379-2.753-9.185 0-13.376l-2.977,2.975c4.658-9.591-5.048-19.235 0-28.239-3.323,4.66-2.051,9.119-3.72,14.119-2.084,6.242-5.567,11.104-8.184,17.092 1.763-12.359 5.729-23.677-1.488-35.669v14.862c-.478-3.306-2.141-6.447-4.464-8.916v2.972c-4.146-8.286-8.406-15.626-7.439-25.267-.721,2.502-1.606,4.313-1.488,7.43-3.896-4.811-6.31-11.636-5.952-17.833-1.721,6.711-.036,12.094 0,19.321-7.272-7.534-12.394-20.696-11.903-31.213l-1.488,4.46c-2.963-11.776-11.997-27.268-1.488-38.641-3.543,1.656-6.497,4.721-5.952,8.917-3.725-7.866.873-17.594 5.952-23.779-3.458,1.392-6.044,3.974-7.439,7.43 .002-.988.002-1.978.002-2.969m174.093,31.211c-3.166,1.379-6.302,1.584-8.928,0 3.01-1.345 5.773-1.415 8.928,0m25.295-31.211c2.562-1.151 10.32-1.391 11.159-2.229 7.057-7.045-2.322,10.04-2.231,9.661-2.832-2.828-5.407-6.199-8.928-7.432m-37.2-31.211c9.386.793-1.071,9.014 0,0" fill="#b35620" fill-rule="evenodd"/>
 <path d="m40.318,301.697c-2.688-1.048-5.19-1.117-7.44-2.972 .368,3.116 2.876,5.558 5.952,7.433-4.131.067-7.728-1.424-10.416-4.461 1.396,3.457 3.981,6.04 7.44,7.433-14.929-10.854-29.396-23.921-34.224-43.101 4.261,2.112 8.664,1.487 13.392,1.487-2.648-1.03-4.873-3.229-7.44-4.46 8.896-4.259 20.385.597 24.551,8.918 4.417,8.82-.161,23.732 8.185,29.723" fill="none" stroke="#000" stroke-linecap="square" stroke-miterlimit="9.811" stroke-width=".484"/>
 <path d="m199.531,107.006c1.29-8.508 4.438-23.206 13.391-26.75-1.791,1.227-4.005,2-5.952,2.972 3.709-7.408 8.108-19.023 16.368-22.292-4.748.047-8.396,2.116-10.416,5.944 4.39-10.695 13.266-16.065 20.832-23.78 6.96-7.096 16.364-13.249 22.319-20.805-4.664.173-8.576,1.37-11.903,4.457 8.083-7.309 9.843-11.445 21.104-12.853 5.569-.696 12.16-3.744 17.582-3.496 5.876.268 11.98,3.568 17.856,4.46-3.639-2.911-6.301-7.135-11.904-5.944 7.413,0 14.988-.926 20.832,4.456-1.783-4.485-5.514-7.702-10.416-7.428 5.093,0 10.27-.746 14.88,1.484-2.019-2.571-4.523-4.58-7.44-5.944 9.336-1.429 19.843,4.983 23.808,13.375-.04-3.926-1.689-7.562-4.464-10.404 8.074,1.463 18.099,16.388 20.832,23.78 .515-5.723-.934-10.833-1.488-16.348 2.552,5.054 4.729,10.644 4.464,16.348 1.245-3.736 1.245-8.154 0-11.89 5.418,5.764 5.525,13.55 2.976,20.806 4.128-8.242 7.937-16.013 14.88-22.292-5.041,7.554-11.911,17-10.416,26.752 .717-2.654 1.973-4.922 2.977-7.432-.626,3.235-.149,6.463 1.487,8.917 2.977-5.944 5.952-11.888 8.929-17.833-4.854,5.64-4.947,13.784-5.952,20.805 1.549-2.261 2.723-2.492 4.464-4.457-1.306,2.393-1.807,5.014-2.976,7.428 3.36-2.667 6.031-6.353 7.439-10.402-.041,3.926-1.688,7.562-4.464,10.402 3.43.266 6.256-.709 8.928-2.972-1.875,3.21-4.988,4.038-8.928,4.46 2.868,1.929 6.709,1.883 10.416,1.486-1.585.798-2.88,2.172-4.464,2.972h4.464c-8.046,0-17.151,1.413-20.832-7.43 .69,1.861.665,3.9 1.488,5.944-6.43-1.162-10.401-7.404-11.904-13.376 .724,2.558.52,3.667 1.488,5.944-4.931-4.054-11.103-1.088-16.368-3.714-6.023-3.005-7.311-9.263-14.879-9.66l1.487,1.486c-1.664-1.323-4.121-1.878-5.951-2.972-.431,4.281-4.909,3.717-8.928,5.944 2.254.752 3.654,2.505 4.464,2.972-3.917-.212-7.534.674-10.416,2.972 2.384-.469 5.021.295 7.439,0-2.055,2.734-8.368,11.049-1.487,11.89-2.917,1.306-3.986,2.735-5.952,5.946 1.892-.717 4.095-.692 5.952-1.488-4.886,3.526-5.036,9.295-4.464,14.862l2.976-2.972c-.946,2.823-.652,6.058-1.488,8.918 3.938-1.315 8.338-1.931 11.904-4.46-2.106,1.92-2.19,2.98-4.464,4.46 6.676,4.302 16.479-5.84 21.575-.744 6.768,6.768-.476,18.912 6.696,24.522-2.186-1.886-2.913-2.435-4.464-4.46-.856,7.717 2.723,10.918 4.464,17.836-1.685-1.543-3.08-1.906-4.464-4.46-2.371,14.697 13.317,20.491 20.831,29.725 9.977,12.261 11.181,28.608 5.952,43.101-.955-2.496-2.46-4.744-2.977-7.432 0,12.521.068,23.517-2.976,35.668-.498-4.262-.91-10.075-4.464-11.888 0,11.082-5.685,23.759-1.488,34.181-3.641-8.484-8.231-17.354-7.439-26.751 .94-11.158 6.273-22.593-2.976-32.696 8.116,13.14.374,47.969-8.928,59.447 1.783-11.768 5.166-21.035 0-32.697-2.203,6.269-3.388,14.754-1.488,20.808-.825-3.018-2.148-5.899-2.977-8.916 1.271,13.618-3.619,34.171-10.415,46.071-2.231-6.467 3.672-16.441.743-22.292-2.73-5.458-4.246-16.042-3.72-22.295-3.018,6.028-5.034,14.973-10.415,19.32 3.307-13.221 4.067-23.344-2.977-35.669-3.285,14.701-.238,36.484-10.416,49.045 2.552-7.644 2.868-14.132 0-22.292 .456,5.751-2.256,11.157-4.464,16.348 .459-7.869-5.179-14.5-1.487-22.292l-2.977,16.349c-.913-3.267-10.227-26.355-13.392-26.753-5.587-.701-7.661,18.749-7.439,22.292-.889-4.379-2.753-9.185 0-13.376l-2.977,2.975c4.658-9.591-5.048-19.235 0-28.239-3.323,4.66-2.051,9.119-3.72,14.119-2.084,6.242-5.567,11.104-8.184,17.092 1.763-12.359 5.729-23.677-1.488-35.669v14.862c-.478-3.306-2.141-6.447-4.464-8.916v2.972c-4.146-8.286-8.406-15.626-7.439-25.267-.721,2.502-1.606,4.313-1.488,7.43-3.896-4.811-6.31-11.636-5.952-17.833-1.721,6.711-.036,12.094 0,19.321-7.272-7.534-12.394-20.696-11.903-31.213l-1.488,4.46c-2.963-11.776-11.997-27.268-1.488-38.641-3.543,1.656-6.497,4.721-5.952,8.917-3.725-7.866.873-17.594 5.952-23.779-3.458,1.392-6.044,3.974-7.439,7.43 .002-.988.002-1.978.002-2.969" fill="none" stroke="#000" stroke-linecap="square" stroke-miterlimit="9.811" stroke-width=".484"/>
 <path d="m373.62 138.22c-3.166 1.379-6.302 1.584-8.928 0 3.01-1.345 5.773-1.415 8.928 0" fill="none" stroke="#000" stroke-linecap="square" stroke-miterlimit="9.811" stroke-width=".484"/>
 <path d="m398.92 107.01c2.562-1.151 10.32-1.391 11.159-2.229 7.057-7.045-2.322 10.04-2.231 9.661-2.832-2.828-5.407-6.199-8.928-7.432" fill="none" stroke="#000" stroke-linecap="square" stroke-miterlimit="9.811" stroke-width=".484"/>
 <path d="m361.719,75.795c9.386.793-1.071,9.014 0,0" fill="none" stroke="#000" stroke-linecap="square" stroke-miterlimit="9.811" stroke-width=".484"/>
 <path d="m326.01 178.34c1.746 9.728 0.415 17.517 1.488 26.752" fill="none" stroke="#000" stroke-linecap="square" stroke-miterlimit="9.811" stroke-width=".484"/>
 <path d="m323.03 205.1c1.413 3.323 1.906 6.797 1.487 10.404" fill="none" stroke="#000" stroke-linecap="square" stroke-miterlimit="9.811" stroke-width=".484"/>
 <path d="m349.82 175.37c-0.658-9.644 4.402-20.662 0-29.725" fill="none" stroke="#000" stroke-linecap="square" stroke-miterlimit="9.811" stroke-width=".484"/>
 <path d="m339.4 132.27c-1.685 9.392-4.684 16.787-8.928 25.267" fill="none" stroke="#000" stroke-linecap="square" stroke-miterlimit="9.811" stroke-width=".484"/>
 <path d="m331.96 132.27c-5.522 16.052 0 36.837 0 53.505" fill="none" stroke="#000" stroke-linecap="square" stroke-miterlimit="9.811" stroke-width=".484"/>
 <path d="m343.86 178.34c4.738-11.133 1.609-30.792-5.951-40.126" fill="none" stroke="#000" stroke-linecap="square" stroke-miterlimit="9.811" stroke-width=".484"/>
 <path d="m308.15 196.18c7.807-19.461-10.635-45.465-15.266-63.962-4.053-16.185-0.086-45.36 16.754-53.45" fill="none" stroke="#000" stroke-linecap="square" stroke-miterlimit="9.811" stroke-width=".484"/>
 <path d="m315.59 81.74c-13.313 12.141-12.229 55.135 4.464 63.907-3.347-6.002-10.095-35.988 1.488-34.181-4.285-4.684-5.093-10.226-4.464-16.349 2.957 2.915 1.854 1.65 5.952 2.972-5.852-1.479-5.832-12.114-4.464-16.35" fill="none" stroke="#000" stroke-linecap="square" stroke-miterlimit="9.811" stroke-width=".484"/>
 <path d="m349.82 138.22c-2.014 1.592-3.508 3.577-4.464 5.946" fill="none" stroke="#000" stroke-linecap="square" stroke-miterlimit="9.811" stroke-width=".484"/>
 <path d="m336.42 138.22 7.44-5.946" fill="none" stroke="#000" stroke-linecap="square" stroke-miterlimit="9.811" stroke-width=".484"/>
 <path d="m349.82 28.239c-0.909 1.585-2.308 2.556-2.976 4.458v-4.458" fill="none" stroke="#000" stroke-linecap="square" stroke-miterlimit="9.811" stroke-width=".484"/>
 <path d="m340.888,25.267c.3-3.104-.197-6.076-1.488-8.918" fill="none" stroke="#000" stroke-linecap="square" stroke-miterlimit="9.811" stroke-width=".484"/>
 <path d="m320.06 10.402c5.363 2.567 13.038 17.229 8.929 22.294" fill="none" stroke="#000" stroke-linecap="square" stroke-miterlimit="9.811" stroke-width=".484"/>
 <path d="m323.03 25.267c-4.092-8.173-8.778-15.979-17.855-19.32" fill="none" stroke="#000" stroke-linecap="square" stroke-miterlimit="9.811" stroke-width=".484"/>
 <path d="m279.88 34.183c-2.793 6.708-12.61 10.783-19.344 11.889" fill="none" stroke="#000" stroke-linecap="square" stroke-miterlimit="9.811" stroke-width=".484"/>
 <path d="m272.44 41.615c-16.155 36.932-28.896 67.33-17.856 108.49" fill="none" stroke="#000" stroke-linecap="square" stroke-miterlimit="9.811" stroke-width=".484"/>
 <path d="m250.12 118.9c-5.945-17.35 2.053-52.466 11.904-66.879" fill="none" stroke="#000" stroke-linecap="square" stroke-miterlimit="9.811" stroke-width=".484"/>
 <path d="m239.71 41.615-5.953 1.484" fill="none" stroke="#000" stroke-linecap="square" stroke-miterlimit="9.811" stroke-width=".484"/>
 <path d="m224.83 78.768c-3.981 5.966-11.385 11.131-13.392 17.834 3.294-1.852 6.785-3.413 10.415-4.456-7.489 5.976-10.298 11.535-13.391 20.804 1.412-2.89 3.416-5.383 5.952-7.43-4.24 8.998-10.249 19.818-5.952 29.723 1.099-3.291 2.608-4.6 4.463-7.428-4.331 6.131-3.918 15.433-1.487 22.292" fill="none" stroke="#000" stroke-linecap="square" stroke-miterlimit="9.811" stroke-width=".484"/>
 <path d="m230.78 160.51c-1.237 4.307-1.793 8.902-1.488 13.376" fill="none" stroke="#000" stroke-linecap="square" stroke-miterlimit="9.811" stroke-width=".484"/>
 <path d="m238.22 154.56 2.976 35.668" fill="none" stroke="#000" stroke-linecap="square" stroke-miterlimit="9.811" stroke-width=".484"/>
 <path d="m262.03 185.78c-3.335 5.442 0.366 18.992 2.976 25.265" fill="none" stroke="#000" stroke-linecap="square" stroke-miterlimit="9.811" stroke-width=".484"/>
 <path d="m272.44 123.35c-1.105 9.638 2.961 22.909 4.464 32.696 1.902 12.388 7.439 22.837 7.439 35.669" fill="none" stroke="#000" stroke-linecap="square" stroke-miterlimit="9.811" stroke-width=".484"/>
 <path d="m291.78 176.86c-0.462 7.518 1.962 17.285 5.952 23.778" fill="none" stroke="#000" stroke-linecap="square" stroke-miterlimit="9.811" stroke-width=".484"/>
 <path d="m23.951 300.21c-5.831-4.867-4.766-12.032-7.44-17.837" fill="none" stroke="#000" stroke-linecap="square" stroke-miterlimit="9.811" stroke-width=".484"/>
 <path d="m9.071 277.92-2.976-2.972" fill="none" stroke="#000" stroke-linecap="square" stroke-miterlimit="9.811" stroke-width=".484"/>
 <path d="m28.415 269c3.249 2.772 3.921 6.857 1.488 10.404" fill="none" stroke="#000" stroke-linecap="square" stroke-miterlimit="9.811" stroke-width=".484"/>
</svg>
