<?xml version='1.0' encoding='utf-8'?>
<svg xmlns="http://www.w3.org/2000/svg" version="1.1" viewBox="0 0 328.8 416.25">
  <defs>
    <clipPath id="d">
      <path d="m0 425.2h297.64v-425.2h-297.64v425.2z"/>
    </clipPath>
    <clipPath id="c">
      <path d="m0 425.2h297.64v-425.2h-297.64v425.2z"/>
    </clipPath>
  </defs>
  <g transform="matrix(1.25 0 0 -1.25 -28.699 517.21)">
    <g transform="translate(250 354.2)">
      <path d="m0 0-62.041 59.573-139-38-26-91 6-112 88-92l117.04 14.43 41 60 11 103-36 96z" fill="#aa9789"/>
    </g>
    <g transform="translate(84.75 301.2)">
      <path d="m0 0-0.75 3.25 0.75 6 5.25 6 6.5 1.75 13.5 7.25 0.5 2 0.75 5.75 4 1.75 1 2.5 3 3.5 2 2.75 0.25 2.25 1 2.25-0.5 1 4.25 5.5 8 1 3.75 2.75 4.75 6.25-0.5 2 3.5-0.5 5 5.25 3.25-1 4.5 3.5 2.25 4.25 1.25-4.5 5.25 4 3.75 0.25 3.5 3.75 7.75 3-1-3 0.5-4.5-4.5-5.75-0.25-3.5 4-7 5-5.25 3.25-0.25 0.5-6 9.25-3.75 5.25-0.75 3.75-5 11.25-1 3.75-2.75 6.5-2.5l3.75-12.5-4.5-5.75-2.25-5.5 0.25-10-142 1.25z" fill="#8b7d71"/>
    </g>
      <g clip-path="url(#d)">
        <g transform="translate(182 383.95)">
          <path d="m0 0-7.5-2.25-3.5-3.75l-1.5-2.25-2.25-6-1.75-2.5 1.75-3.75-1.75-10-3.25-3-3.5-5-2.25-1.75-1.25-2.25-2-3.75 3-1.75 1.25-7 0.25-9 69.5-22-0.75 10.5 2.25 7 4.5 5.75-3.75 12.5-6.5 2.5-3.75 2.75s-10.5 0.25-11.25 1-3.75 5-3.75 5l-5.25 0.75-9.25 3.75-0.5 6-3.25 0.25-5 5.25-4 5.75 0.25 4.75 4 4.75 0.75 2-0.5 5.25 0.5 0.5z" fill="#4f4843"/>
        </g>
        <g transform="translate(84.75 301.2)">
          <path d="m0 0-0.75 2.25 0.25 8.25 7 6 2.5 0.25 2.75 0.25 13.5 7.25s1.25 8 1.25 7.75 4 1.75 4 1.75l1 2.5 4.5 4.75 2.75-0.75 4.75 1.25h2.5l2.75 2.25 0.25 2.75 3-3 5-0.5 4.75 0.5 3.25 1.25 3.25-1.75 1-1 2.5 0.5-1.75-4.25-1.5-1.75 3-1.75 1.25-7 0.25-9-73-18.75z" fill="#6b6259"/>
        </g>
        <g transform="translate(84.25 311.7)">
          <path d="m0 0-0.25-7.25 0.75-3.25-9.417-9 6.667-40 1.333-84-4.333-1.667-14.333 9-8.334 16-5 1-3.666-2-2.667 3-2-1-2.667 2.667 0.667 9 2 4.333-3.333-0.333-2.667 5 5 12.667v2.333l4.333 6.667 2.334 9.333 5 7-4-1v9.667l-6.417 6.083-2.75-0.25-2.75 9 0.75 2 7 10 1.75 9 3.75 1.25 3.25 8.75 0.5 4.75 2-0.25 0.5 7.75 2.5 3.25 7.75 19.25 1-1.5 3.75 10.25 1-2.5 15 12.75 15.25 17.75 6-6s17.5 5.5 22 9.5 6 6.5 6 6.5l4.5-2 10.5-1.5 9.5 4 20-2 0.25-1-0.75-1.25-7-1.75-3.5-3.75-3.75-0.25-5.25-4-1.25 4.5s-4-7.75-6.75-7.75h-2.75s-4.5-4-5.5-4.25-3.5 0.5-3.5 0.5l0.5-2-3.25-5.5-5.25-3.5-6.25-0.75-1.75-0.25-1.75-1.75-2.5-3.75 0.25-2-0.75-1.25-0.25-2.25-2-2.75-2-1.5-2-4.5-4-1.75-0.75-5.75-0.5-2-6.5-4-7-3.25-5.25-0.5-2.5-2.5-2.25-2.5-2.25-1" fill="#d5beab"/>
        </g>
        <g transform="translate(138.33 115.86)">
          <path d="m0 0-14.333 7-8.334 12.333-3.666 1.667-4 5.666-4.667 4 9.333-2.333l31.334-0.333 61-2.667 3-12.333-4-5-3.334 0.666-7.333-6.333-5.667-1.333-2-1-7 1.333-4.666-1-6.334 3.333-0.333 1.667-5 0.333-3-2.333-6.667 0.667-4.666-3.667-9.667-0.333z" fill="#d5beab"/>
        </g>
        <g transform="translate(207.33 158.53)">
          <path d="m0 0 3.333-0.333 1.667-1.667 1.666-4.333 3.334 1.666l3.666-2.666 5 1.666 5-2.666 3.334-15.667 6-0.667 3 5 2 3.667 3.666 10.333 5.667 5.667 1 4-0.333 3 4.333 1 5 9.333-2.333 3.334 3.666 9.666s-1.666 6.334-2.333 7.334-5 9.666-5 9.666l-8.667 17 3 6.334v18l-2.666 2-0.667 4.666-0.333 1.667 2.666 2.333 1 6.334-3 1-7 3-5.666 0.33-1.334-4-42-48 13.334-58z" fill="#d5beab"/>
        </g>
        <g transform="translate(70 309.53)">
          <path d="m0 0c2.097 1.34 10.354 6.987 11.768 2.731 0.723-2.177-2.391-4.492-2.447-6.892-0.034-1.486 0.744-2.447 0.063-3.915-0.504-1.085-2.023-2.048-2.806-2.978-1.706-2.028-3.048-3.649-5.495-4.914-0.626 1.602-2.44 1.593-3.674 0.676-1.556 2.871 1.19 5.819 1.678 8.531 0.287 1.593-0.682 2.664-0.418 4.092 0.206 1.119 1.808 2.732 1.998 3.336" fill="#ebe4dd"/>
        </g>
        <g transform="translate(67.667 290.2)">
          <path d="m0 0c3.271-0.029 3.625 0.33 2.761-2.785-0.44-1.584-0.291-4.44-1.164-5.729-1.098-1.62-2.87-0.856-4.746-1.872-1.503-0.814-2.656-1.814-3.85-2.996-0.588 0.929 0.671 7.831 1.73 8.997 0.874 0.961 6.592 4.392 6.602 4.385" fill="#ebe4dd"/>
        </g>
        <g transform="translate(64.334 275.2)">
          <path d="m0 0c1.354 0.702 4.023 0.719 4.788-1.06 0.635-1.478-1.097-4.338-1.121-6.089-0.039-2.932-0.97-8.929 0.523-11.524-1.169-0.576-2.62-0.362-3.807 0.056-0.236 4.004 0.375 8.376-0.985 12.202-0.414 1.164-2.242 3.127-2.132 4.435 0.17 2.022 2.371 1.329 4.401 1.313" fill="#ebe4dd"/>
        </g>
        <g transform="translate(59.667 246.86)">
          <path d="m0 0c1.28 1.82 3.958 1.851 5.95 2.3-0.066-1.845 0.918-3.591 1.048-5.476 0.13-1.879 0.045-3.883-0.065-5.742-0.219-3.673-0.597-7.565-0.601-11.464-1.685 3.456-1.886 9.064-2.671 13.333-0.21 1.141-0.118 2.029-0.885 3-0.875 1.107-1.923 0.76-2.78 1.364-2.299 1.619-1.51 2.645 1.004 3.685" fill="#ebe4dd"/>
        </g>
        <g transform="translate(68.667 222.86)">
          <path d="m0 0c7.146-3.49 6.728-14.942 5.275-21.975-1.864 1.291-3.261 5.042-4.44 7.155-1.082 1.94-2.275 5.637-4.452 6.545 0.208 2.046 2.623 9.136 4.234 10.063 0.21 0.172-0.083-0.274 0.05-0.455" fill="#ebe4dd"/>
        </g>
        <g transform="translate(69.334 201.86)">
          <path d="m0 0c0.124-1.86 2.712-5.69 3.776-7.703 1.527-2.887 3.367-5.61 4.26-8.742 0.933-3.271-1.323-4.608-1.411-7.406-0.082-2.631 0.565-6.721 1.25-9.123-0.618 1.036-1.642 1.767-2.825 1.691-0.181 3.041-0.415 6.554-0.044 9.585 0.39 3.189 1.207 4.724-0.244 7.788-1.943 4.102-7.424 10.803-5.353 15.543 0.705-0.634 1.796-2.32 1.924-2.633" fill="#ebe4dd"/>
        </g>
        <g transform="translate(162.33 123.86)">
          <path d="m0 0c-0.058-0.161-0.609-0.15-0.104-0.284 2.763 2.084 6.97 3.466 10.187 4.722 3.544 1.382 6.891 3.008 10.419 4.375 3.186 1.233 6.145 2.911 9.354 3.859 2.294 0.678 1.658-0.251 3.59-0.621 1.436-0.275 2.225 0.688 3.838-0.101 0.016-1.344 3.933-8.852 2.238-9.589-0.893-0.388-4.19 6.414-5.483 7.377-3.029 2.254-5.327-0.849-8.034-2.645-3.498-2.319-7.555-4.134-11.629-5.192-3.902-1.012-9.037-1.65-13.067-1.268-0.234-0.148-0.336-0.359-0.309-0.633" fill="#ebe4dd"/>
        </g>
        <g transform="translate(136.33 128.86)">
          <path d="m0 0c-1.199 1.106-7.973-3.14-8.291-4.942 1.629-0.121 3.428-0.27 4.941-0.397 2.12-0.18 1.441-0.812 3.128 0.897 0.991 1.004 1.334 2.567 2.976 3.006 1.233 0.331 3.351-0.092 4.87 0.161-0.473 1.833-8.21 4.017-8.624 1.941" fill="#ebe4dd"/>
        </g>
        <g transform="translate(112.33 143.53)">
          <path d="m0 0c-0.059-0.234-0.203-0.382-0.284-0.582 1.449-1.833 8.068-4.23 7.567-6.7-2.222-0.661-3.882 1.807-5.2 3.285-0.847 0.948-4.075 4.118-2.75 4.331" fill="#ebe4dd"/>
        </g>
        <g transform="translate(232.33 211.53)">
          <path d="m0 0c-0.039 0.162-0.622 0.147-0.105 0.292 2.424-2.567 3.658-3.488 4.437-6.859-0.311 1.939-2.261 2.624-3.954 3.192 0.398-0.497 1.825-1.228 1.804-2.292-0.029-1.465-1.182-0.758-2.374-1.295-1.557-0.7-4.497-2.182-5.533-3.583-2.427-3.285 0.427-9.425-1.867-13.095-0.366 3.018-1.414 5.952-1.832 8.893-0.421 2.962-0.273 6.136-0.525 9.03 2.113-0.049 10.435 4.626 10.616 4.384" fill="#ebe4dd"/>
        </g>
        <g transform="translate(223 184.2)">
          <path d="m0 0c0.78-1.112 3.593-2.351 2.276-4.951-0.893-0.084-1.355-0.368-2.233-0.1 0.77-2.68 0.77-2.887-0.799-5.542-1.089-1.844-1.725-3.753-2.648-5.724-0.859-1.832-2.378-2.93-2.459-4.697-0.015-0.327 0.84-1.68 0.865-2.476 0.036-1.136-0.238-2.123-0.92-3.06-1.568 1.333-3.815 1.737-5.708 2.292 2.023 4.224 2.437 8.807 5.367 12.498 1.495 1.883 2.65 3.677 3.511 5.846 0.614 1.547 0.633 5.476 2.081 5.581" fill="#ebe4dd"/>
        </g>
        <g transform="translate(236 234.53)">
          <path d="m0 0c-2.108-1.385-1.862-5.712-1.683-7.883 1.363 1.886 4.276 3.034 6.317 3.968-1.334 2.471-0.151 5.209-2.357 7.191-0.287 0.035-0.614 0.024-0.894 0.107 0.17 1.195 0.012 2.405-1.025 2.867 1.753 0.682 3.715 1.58 5.608 1.483-0.949 0.936-2.778 1.084-4.256 0.992 1.064 1.393-0.277 3.939-0.618 5.707-0.186 0.962-0.603 2.158-0.349 3.14 0.203 0.782 1.61 1.578 1.59 2.391-0.035 1.526-1.419 1.202-1.599 2.607-0.068 0.536 1.052 2.192 1.281 2.742 0.839 2.016 1.956 3.273 3.267 5.104-3.366 3.042-4.303-1.835-5.069-4.428-0.969-3.276-2.965-7.249-3.247-10.628-0.261-3.123 1.313-6.339 1.686-9.365 0.225-1.817-0.611-2.874-0.651-4.388-0.042-1.596 0.908-2.958 0.592-4.58-0.437 0.218-0.173 0.497-0.26 0.973" fill="#ebe4dd"/>
        </g>
        <g transform="translate(229.67 312.53)">
          <path d="m0 0c-0.638-1.521-1.304-2.288-1.321-3.668-0.015-1.132 0.961-2.521 1.022-3.654 0.136-2.537-0.155-5.393 1.225-7.651 0.398 4.125-1.107 7.712-0.925 11.493 0.15 3.125 2.341 7.606 4.281 10.097-3.036-1.934-4.501-5.984-5.287-9.177-0.11 0.443 0.119 0.356 0.338 0.56" fill="#6b6259"/>
        </g>
        <g transform="translate(232.67 302.53)">
          <path d="m0 0c-2.978-4.084-0.231-9.221 0.675-13.288 0.499-2.238-0.668-4.22-0.021-6.41 0.501-1.696 2.148-3.521 3.613-4.601 0.489 6.507-2.226 11.395 1.942 16.916-2.78-0.859-3.823-0.45-4.896 1.901-1.007 2.211-1.639 3.688-1.646 6.149" fill="#6b6259"/>
        </g>
        <g transform="translate(238.67 281.86)">
          <path d="m0 0c1.431-2.033 1.364-5.709 4.624-5.058-0.615-1.348-1.593-2.472-1.601-4.168-2.017 1.997-1.284-2.191-1.422-3.073-1.524 1.441-1.866 3.65-2.76 5.623-0.671 1.478-1.162 1.197-0.757 3.274 0.182 0.936 0.637 2.201 1.324 3.026 0.494-0.144 0.702-0.494 0.925-0.957" fill="#6b6259"/>
        </g>
        <g transform="translate(243 273.53)">
          <path d="m0 0c-0.895-0.966-1.728-2.253-1.606-3.608 1.533-0.784 2.997-1.03 4.356-1.785 1.357-0.753 2.503-1.84 3.895-2.488 3.496-1.626 4.949 0.929 7.988 2.748-2.77-2.343-6.337-2.251-9.435-0.843-1.858 0.846-5.944 4.394-4.582 6.89-0.118 0.122-0.235 0.244-0.349 0.369-0.799-0.246-1.547-0.847-1.933-1.616" fill="#6b6259"/>
        </g>
        <g transform="translate(253 256.53)">
          <path d="m0 0c-3.181-1.824-1.198-4.313-1.948-7.617 1.488 0.042 2.131-1.192 3.199-1.999 2.063 1.39 0.839 2.56-0.323 4.196-1.387 1.952-1.396 3.232-1.928 5.42" fill="#6b6259"/>
        </g>
        <g transform="translate(253.67 240.2)">
          <path d="m0 0c3e-3 -3.005-0.029-6.094 0.164-9.026 0.183-2.757-0.84-4.617-1.247-7.335-0.414-2.768 1.191-4.969 2.541-7.666 1.136-2.27 1.443-5.417 2.96-7.256 1.114 0.561 2.312 0.361 3.53-0.019-0.375 1.782-0.597 4.479 0.686 5.901-5.85-0.483-6.387 7.569-6.692 11.677-1.08 0.413-1.425 1.519-1.332 2.667-0.81-0.025-0.333 0.374-0.61 0.724" fill="#6b6259"/>
        </g>
        <g transform="translate(267.33 210.86)">
          <path d="m0 0c-0.807-1.957-6.298-7.591-6.999-3.433-0.859-2.211 2.214-8.15 3.325-10.431 3.148 2.63 5.576 9.549 2.674 12.864" fill="#6b6259"/>
        </g>
        <g transform="translate(213 136.86)">
          <path d="m0 0c-0.504-1.204 0.204-3.095 1.619-3.652 0.81-0.319 1.811 0.457 2.379 0.334 0.896-0.195 1.175-1.005 2.27-1.3 0.17 0.111 0.534 0.465 0.647 0.567 0.121-0.124 0.244-0.247 0.368-0.368-1.907-1.931-0.836-6.595-0.999-9.199-2.536-1.323-2.495 0.999-4.824 1.294 5.162 1.511-5.098 8.916-2.126 10.99" fill="#6b6259"/>
        </g>
        <g transform="translate(209.33 157.53)">
          <path d="m0 0c-1.98-0.892-1.335-2.44-0.438-3.767 0.478-0.706 1.235-1.099 1.772-1.75 0.431-0.522 0.691-1.246 1.059-1.693 1.035-1.259 2.417-2.154 2.945-3.609 0.584-1.608 0.394-3.732 0.678-5.398-1.884 2.443-4.461 4.559-6.515 6.893-1.129 1.281-1.629 2.535-2.519 3.788-0.986 1.388-1.361 2.713-2.265 4.118 1.062 0.791 5.227 1.791 5.283 1.085" fill="#6b6259"/>
        </g>
        <g transform="translate(181.67 375.2)">
          <path d="m0 0c-3.551-3.547-5.326-6.202-2.029-10.652 2.163-2.92 5.035-7.9 8.945-8.299 2.384 1.083 0.402 2.379 0.733 4.117 0.289 1.523 1.894 2.448 3.216 3.126-1.162-1.975-2.26-4.172-2.215-6.132 0.033-1.393 0.089-2.288 0.023-3.655-0.071-1.483 0.094-2.76 0.385-4.113 4.161-1.118 8.282-3.569 12.492-4.351-0.808 1.001-1.234 2.41-0.582 3.542-2.732 1.959-6.976 3.313-9.241 5.682-2.425 2.534-2.211 7.903-0.176 10.601-3.935-1.512-5.726-4.067-9.041-0.054-1.718 2.079-5.153 7.24-3.177 9.521" fill="#6b6259"/>
        </g>
        <g transform="translate(205.67 345.86)">
          <path d="m0 0c2.523-3.836 3.661-5.996 8.427-5.732 1.969 0.109 4.228 0.178 6.173 0.075 2.681-0.143 2.933-0.428 3.033 2.256-2.37 0.239-17.632 4.819-17.967 3.734" fill="#6b6259"/>
        </g>
        <g transform="translate(222.67 338.53)">
          <path d="m0 0c0.312-1.147 3.126-2.757 4.474-2.168 1.267 0.552 3.614 4.148 4.417 5.11-1.659-0.225-3.437-0.953-5.229-1.277-1.425-0.258-3.098-0.49-3.662-1.665" fill="#6b6259"/>
        </g>
        <g transform="translate(230.33 335.2)">
          <path d="m0 0c-0.494-1.5 1.449-3.976 1.995-5.562 0.805-2.34 0.785-4.813 1.062-7.187 0.876 1.39 1.896 3.957 2.453 5.774 5e-3 -0.014 7e-3 -0.028 6e-3 -0.042-2.346 2.089-4.232 5.797-5.849 7.35" fill="#6b6259"/>
        </g>
        <g transform="translate(46 295.2)">
          <path d="m0 0c-0.187 0.409-0.767 0.803-1.998 0.938-3.325-3.834-4.048-8.134-6.503-12.324-2.125-3.628-9.215-6.551-8.733-11.267 0.244-2.391 6.554-9.059 9.057-7.172 1.457 1.098-0.297 5.068-0.386 6.443-0.196 3.051 0.427 4.643 2.127 7.142 3.804 5.59 4.624 8.982 4.936 15.74" fill="#6b6259"/>
        </g>
        <g transform="translate(170.61 378.07)">
          <path d="m0 0c3.199 0.865 8.389 3.475 10.836 5.003-4.743 3.56-10.211-0.576-16.244-0.378-4.318 0.141-4.696 0.526-8.644-1.856-2.491-1.504-5.507-2.159-7.624-3.629 0.759-1.244 0.944-1.866 1.073-3.349-2.555 7.06-9.881 0.726-13.26-1.743-2.343-1.71-15.447-9.09-10.19-12.207-2.54 1.881-6.888-0.352-9.46-1.163-0.345 2.396 0.824 4.166 0.822 6.376-3.614-0.257-5.442 2.181-8.063 0.233-2.59-1.924-3.381-4.531-6.764-6.129-3.081-1.454-4.947-1.302-6.016-4.89-0.901-3.023 0.685-6.561-0.53-9.539 3.712-0.295 10.727 1.825 13.45-0.428 0.703 1.316 1.686 2.491 2.888 3.264 1.199-2.029 0.2-4.112-0.975-5.85-2.53-0.183-5.242 0.178-7.528 0.327-1.842 0.12-5.306 0.768-6.823 0 0.964-1.587 1.845-3.663 1.362-5.838-1.466 0.16-2.98-0.556-3.924-1.624-2.034 1.605-8.232 4.54-6.963 6.885-1.723-4.719-6.869-7.381-8.633-12.213-0.906-2.479-1.812-5.156-2.434-7.858-0.235-1.02-0.678-4.255-1.463-5.266h0.493c2.386 0.362 8.516 4.406 10.125-1.312 1.357 1.807 3.695 4.397 5.861 5.068 2.282 0.706 4.916-0.191 7.537 0.981 4.93 2.204 9.967 5.818 9.55 11.689 11.605 1.604 9.065 20.203 19.167 22.087 3.046 0.568 4.866-0.636 7.37 1.349 1.795 1.423 2.519 3.546 3.534 5.517 0.348 0.677 0.874 2.372 1.381 2.829 1.602 1.445 1.674 0.235 3.192 0.817 2.615 1.003 3.131 2.599 5.434 3.868 2.637 1.455 4.24 0.587 6.712 2.26 2.402 1.626 4.591 4.635 5.662 7.17-0.418-1.216-0.349-2.504-0.438-3.759 1.233 0.562 3.147 3.006 4.53 3.341 1.677 0.406 3.041-0.562 4.997-0.033m-95.107-61.872h-1.007c0.386-0.451 0.719-0.371 1.007 0m115.81-191.05c-2.664-0.552-5.925-2-8.596-2.962-5.215-1.878-11.175 0.722-16.135-1.574-0.305-6.398 12.34-4.888 16.313-4.907 7.253-0.036 10.074 4.016 14.742 8.639-2.412 0.48-3.52 1.384-6.324 0.804m6.324-0.804c0.272-0.053 0.547-0.107 0.856-0.147l-0.5 0.5c-0.121-0.118-0.237-0.235-0.356-0.353m34.406 34.329c0.707-2.901-3.616-3.48-4.691-5.857-0.816-1.806-0.648-5.352-0.241-7.103 0.557-2.394 2.583-4.656 3.404-7.004 0.776-2.219 1.136-4.623 1.563-6.927 3.284-1.353 7.05-1.08 10.34-2.535 0.321 2.831 0.887 5.344 1.1 8.193 0.208 2.77 1.015 5.605 1.819 8.22 1.445 4.689 5.469 8.955 6.156 13.537l-0.5 2c-1.96-6.343-14.413-3.864-18.95-2.524m13.388 18.01c1.398-0.849 2.091-2.343 3.562-2.986h-1c2.049-2.72 5.23-5.216 7.002-8.299 3.206 1.941 11.212 5.957 6.259 10.757-2.735 2.651-13.532 3.776-15.823 0.528m16.284 15.528c-2.795 3.918-2.815 12.158-6.621 14.936 0.509-3.444 0.709-7.467 2.304-10.738 0.019-5.538 2.822-12.782 4.08-18.035 0.698 2.134 2.013 4.6 2.52 6.895 0.819 3.708-0.197 4.018-2.283 6.942m-210.92 55.934c-1.975-2.41-4.15-4.981-3.723-8.168 0.012 0.032 0.027 0.071 0.037 0.102 1.014 2.818 1.877 5.7 3.686 8.066m-2.136-38.302c-1.784 1.853-5.236 5.639-5.488 8.242-0.276 2.855 1.773 9.691 4.237 11.197 0.469 1.479 1.797 3.012 1.966 4.562 0.309 2.828-1.527 2.998-2.148 5.338-0.072 0.27-0.119 0.534-0.154 0.795-0.682-1.879-2.854-7.33-2.578-7.28l2.5 2c-1.131-1.44-3.568-3.45-4.383-5.131-1.173-2.415-0.3-5.338-1.204-7.824-1.882-5.179-5.701-8.425-3.84-13.971 1.514-0.164 2.932 0.21 4.363 0.337-0.347-3.13-1.867-5.775-1.935-9.381-0.084-4.545 1.953-4.609 3.523-8.381-0.058 2.849 0.168 5.461 0.476 8.2-1e-3 -2.12-0.4-4.812 0.502-6.592 0.758-1.496 3.005-2.961 3.9-4.219 0.308 1.891 1.785 3.155 3.399 3.938-1.821 4.453 3.89 10.481 6.051 14.136 2.283 3.861 4.081 8.458 5.683 12.701-4.794-3.94-8.104-15.691-14.87-8.667" fill="#a79586"/>
        </g>
      </g>
      <g clip-path="url(#c)">
        <g transform="translate(148.83 245.36)">
          <path d="m0 0s-2.33 0.877-2.167-2.833c0.34-7.724 1.815-24.627 3.167-27.667 2-4.5 4.833-3.833 4.833-3.833l4 12.333-0.5 6.5 0.167 5.833-3 8.834-6.5 0.833z" fill="#d9c48d"/>
        </g>
        <g transform="translate(226 262.45)">
          <path d="m0 0v3l-1.25 5s-0.5 10.5-1 12.75-5 8.25-5 8.25l-1.5 4.75-4 3-4 6.25-5.25 2.75-1.75 2-4-1-2.25 1.5-2.5-0.75-2.25 0.25-4-2.75-3.5-1.25-3.25-6.5h-2.75l-3.5 0.75-1.25-3-2.25 0.75-1.75-2.25-3 2-1.5-2.5-2.75 0.5v-2.75l-2.25-0.25-0.5-2-4.75 1.75-1-2.75-2.5 0.25-4-5-2 2.5-3.75 0.25-2.75 3.25-2.75-0.5-0.75 1.75-2.75 0.25c-0.5 1-4 3.25-4 3.25l-2.25-2.25-1.75 0.5-0.75 3.5-4 1.5-3.25 1-5.5 0.5-3 2.5-2.5-1h-3.75l-2-2.75-3 0.25-2.25-3h-4l-0.75-2-1.75-1.25-1-5-3-1.25v-2.75l-2.25-3.5-0.25-4.5-3.25-4.5 1.5-5.75-0.5-2.25 1.75-9.75 0.75-7.5 2-5.25-0.46-3.99-0.29-2.51s0.25-3 0.75-3.75 0.5-4 0.5-4l2.25-2.25 0.5-2.25 1.75-1.75 4.25-5 6.5-2.5-3.5-1 5.25-2 8-3.25 5.25 1.25-2-2.25s6-1.25 7-1.75 16 3 16 3l3 3 2.75-1 4.75-4 6 1.25 3.22 2.15 2.03 1.35 4.5-1.25 3-2 2.75 2.75 2.5-0.25 3.25 1.25 5.5 2.25 4-1.25 3.5 3 6.5 2.25 4.5-3-0.25 2.75 5.25 2.25 4.5 1 5.75 4.5 2.5-0.5 1.5 3 2.75 0.25 0.5 3.75 4.25 4.5 2 2.25-1 3.25 1 1.75v8.5l0.5 11.25zm16.05 5.4-0.05-0.15-5.75-0.25-1.25-2.5s-0.75-6.5-1-7.75-4.5-7.25-4.25-8 1-1.75 1-1.75 0.75 0.25 1.25-0.5 1.25-4.25 1.25-4.25l1.5-2s-2.25-1-1.75-1.75 1-1.75 1.5-3-1.75-2.25-1.75-2.25-0.75-4-0.75-5-1-2.75-0.75-3.5 2-2.25 2-2.25l0.06-0.09-1.56-1.16-1-9.25s-7.75-5-8.5-5.25-3 0.5-2.5-0.5 1-6 1-6-2.25-5.75-1.25-7.75 2.25-7.5 1.5-8.5-2.5-4.75-3-5.75-2.75-7.5-2.75-7.5l-3.75-4.75-1.5-5-2-2.5-2.25-2s-1.25 0-1.25-1.25 0.25-1.75 0.75-2.75l2.25-4.5 5.25-5 1.5-2.25-2.25 0.75-1-5.75 1.5-5.5 3-2.75-0.75-3.75-5 1.75-3.75-1-2.75-1.75 1.25 5.75-3.75 7.5-3.5 0.25-3.25 2-6.25-3-8-3.75-10-3.25-9.25-4-2.5-3.5s-1.25 2.25-2 1.75-1.5-2-2.25-1.75-4.25 2.75-5 3.5-6 3.25-6 3.25-4.75 4-5.5 3.75-5.25-1.5-5.25-1.5l-5-5-5.25 5.5-0.5 4.5s0.5 2.75-1 3.5-7.25 4.5-8 5-6 1-6 1l-3.78 1.19-9.47 8.31-2.25 3.5-6.25 3.5s-0.75 3.75-2.25 4c-1.12 0.19-2.94 0.37-4.31 0.76l0.06 0.24v6l-0.5 5.75s2 3 2.25 3.75-5.25 13-5.25 13l-2.75 3.25 2-1s1.5 5.75 1.75 7.5 0.5 9 0 11.25-7 10-7 10l-3.48-4.22c0.19 0.34 1.76 3.02 2.23 3.72 0.5 0.75 2 14.25 2 14.25s-1.5 6-2.25 8.25l2.25 1.5-2.5 3 5-4.5 3.25-0.25 0.5 2.25-0.75 3.5s-1 2.25-0.75 3-0.25 5.75-0.25 5.75l0.75 7-0.5 5-2 2.75 1.75 6.25 1 5.5-0.75 2.75s16.67 15.14 21 17.5c2.75 1.5 32.5 12.25 62 10.75 0 0 7.5 1.5 11 1.25 0 0 4.75 2.75 9 0 0 0 4-0.5 5.25-1.25 0 0 4 0.5 6.5-0.5 0 0 7.25 0.5 9.5-0.25 2.19-0.73 22.32-13.5 27.81-19.95 0.1-1.39 0.3-2.66 0.69-3.05 1-1 4-1 4-1l0.27 0.03c0.07-1.06 0.15-1.96 0.23-2.28 0.25-1 1.5-3.5 1.5-3.5l0.25-7.5 2.72-4.2-0.47-1.55s1.75-1.5 2.25-2.75 0.5-3.75 0.5-3.75l4.05-1.35z" fill="#9b8675"/>
        </g>
        <g transform="translate(177 145.86)">
          <path d="m0 0-2.333-7 0.333-5.334-4 1.334l0.334-5.334 10.333 5-1.333 6.667-3.334 4.667zm-49.333 4.333c0 1 3-7 3-7l-8.667 9 10-15-3.333-1.333s-3.334 6.333-4 7.333c-0.667 1-0.667-3.333-0.667-3.333l-4.333 6 2.333-6.334 1.333-7.333 4.667-5 5.667 5 4.666 0.667v3.666l-12.666 21s2-8.333 2-7.333m14.666-10c-0.333 0.667-7.333 12.334-7 10.667 0.108-0.537 0.493-1.56 0.964-2.697l-4.63 10.363-0.667-3-2.333 1.334 2.333-6.667 1 3.333s0.667-5.666 3.333-8.333c2.667-2.667 5.001-9.333 5.334-10.333s6.666-4.334 6.666-5.667 0.667 3.333 0.667 3.333l4.334-5.333 1.416-6 3.584 3 0.666-3 3.334 4.667 0.333 8-3-2v-4.667l-2.333 6-1.334 10.667-1.666-6.334-3 8.667 0.333-10.333s-4.333 6.666-4 5.666 0-4 0-4-4.397 7.035-5.782 10.75c0.607-3.037 1.692-8.569 1.448-8.083m-1.448 8.083c-0.225 1.13-0.385 1.917-0.385 1.917-0.094-0.376 0.065-1.058 0.385-1.917m20.782-10.083 2 3.333-1 7.667 2.667 1.333s0.768 1.215 1.482 2.273c-2.396-1.786-7.482-3.273-7.482-3.273v-5.333l-1 3-3.334-3.333 3.334-7 3.333 1.333zm6.333 16c0.143 0.497-0.496-0.376-1.184-1.394 0.607 0.453 1.049 0.923 1.184 1.394m20.334-13.333c0.143 0.215-0.032 0.65-0.377 1.192 0.052-0.931 0.162-1.514 0.377-1.192m2.333 19.333h-5.333l-4-4.333h-7s2.334-5.666 3-6 5.666-2.334 5.666-2.334 3.692-3.489 4.957-5.474c-0.109 1.958 0.043 5.474 0.043 5.474l2 4.334 3.667-1.334-0.333 5-2.667 4.667zm21.667 14.667s-3.333 2.999-3 1.666 0-5.666 0-5.666-4.334 1.999-4.334 0.666-1.333-6.333-1.333-6.333l-3.667 1s3.334-10.333 3.334-11 2.416 1.75 2.416 1.75l3.584 2.917 1.666 2.666 1.667 5 2.583 3.667s-2.583 4-2.583 7c0 1.054-0.333-3.333-0.333-3.333m-121.33-5-2.333 3.666-3.334-4.666h2.667l-1.667-6.667s5.667-2.667 6-3.667c0.334-1 3.667 9.667 3.667 9.667l-5.667-3.333 0.667 5zm23.667-4.334-4.667 0.667-0.667 6.333-4-6.333-3 4 0.667-10.667 3.333-1l2.667-6.666 2.333 6.666 2.667-6s3.667 8.666 3.667 12v1.334l-1.667 5-1.333-5.334zm91.333 10.917l3.5 3.5 2.5 2.5-1.5 3.75 1.25 2.75h-1.25l-3-4s-3.25 6.25-4 7.5-1.25-8.25-1.25-8.25l-3.25 1-0.25-4.25-3 1.75-1-2-6.25 7.5 3.5-10-3.25 2-4-5-1.75 4.25-0.75-3.5s-1.5 6-3 5.5-5-0.75-5-0.75l1.25-7-2 2.75 2.25-7.75-2.5-1.25s-2.75 6.25-3 7.25-1-5.5-1-5.5l-2.75 9-4.25-1.25 0.25-10.5s-4.25-4-5-4.25-3 10.75-3 10.75c0-1 0.75-13 0.75-13l-3 6.75 0.5-8.75-3 0.75c-0.5 2.25-1.25 11.75-1.25 11.75l-0.75-7.75-2.5 21-1.25-11.5-3.75 7.25 0.5-7.5-2.5-0.5v7.25l-0.8-8.201-0.2-2.049c-0.75 6.5-0.25 19.75-0.25 19.75-0.75-1.75-3.75-19-3.75-19-0.25 4.75-1.5 8.5-1.5 8.5l-1.25-6.25-2.25 1.25 1.5 6.75-5 1 0.75 6.5-2.25-4.75-4 0.5c0.5 1.5 5.75 13.75 5.75 13.75-1.75-1.25-8.75-15.75-8.75-15.75l0.25 4-2.75-1.25 5.25 12c-2.25-2-7-11.75-7-11.75l-3.25 0.75 4.75 11c-1.5-1.25-7.5-12.5-7.75-12s2.25 5.5 2.25 5.5l-3.25-3.25 0.5 2.5-3-3 1.5-2.25 2.25-6.75 4.75 1.75 2.5 4.25s-0.75-4.75-1-5.5 4.75-0.75 4.75-0.75l2.75 3.5 3.5-3s-0.75-3.5-1-6 4.5-1.75 4.5-1.75l2.25 1.25 5.25-11.25 0.75-2.5 2.5-1.75 3-4.25-2.25 20.25h2.5l1.25-15.25 2 4.5 2.5-0.75 2.75-9.75 5.25-2 3.5 12.25 2-0.5 6.25 7.75 4.75-2 7.25-0.75 2.5 2 2.25 5.25h4.25l1.75-2.5 3-2 7 3.5 1.5 6.25h5.5zm-107.75 16.75-2.75-3.25-2 1.75 2 4.25h-3l-0.882-2.521-0.868-2.479 6.75-5.5 3 5.5-2.75-2.5 0.5 4.75zm57 12.25 2.25-4 0.5 2.5h7.5l2.25-1.75 0.25 3.5 3.25 0.5 0.5 3.5 2.25-2.5-0.5 4-3.25-1.25-2.5 0.25-2.75-2.75-3 2-4.5 1.25-4.25-3-7-1.75-4.75 4-2.75 1-3-3-0.75-2.25 3 1.5s-1.25-3.75-1.75-6.75c0 0 3.5 5 4.25 6l-0.25-5.25 6.25-0.75 0.75 3.5 0.75-3.25 4.5 1-0.25 3.75s2.5-3 2.5-4l0.5 4zm73.75 31.75 2.25-3.25c0 4.228-1.765 8.233-2.601 8.703 0.659-0.073 2.351-0.203 2.351-0.203l-4.5 4.75-0.25-4-1-1.75 1-3.25-6.25-6.75-0.5-3.75-2.75-0.25-1.5-3-2.5 0.5-5.75-4.5-4.5-1-5.25-2.25 0.25-2.75-4.5 3-6.5-2.25-3.5-3-4 1.25-3-1.5c1 0 7.25-6.5 7-5.5s-2 4.75-2 4.75l11.25-7.25-2.5 7c2.75-1.5 8-8.5 7.5-7.75s-1.75 8.5-1.75 8.5c2.75-1.25 9.5-11.75 9.5-11.75-0.5 3.5-2.75 13.75-2.75 13.75 2.5-2 8.25-17.25 8-14.5-0.023 0.261-0.062 0.594-0.114 0.983-0.497 3.711-2.136 12.517-2.136 12.517l4.25-5.75c0 3.75-4.25 10.75-4.25 10.75l4.75 1.25 3-2.5 0.5 3.25 2.25-3 4.5 2.5c1 1.75 0.75 6.75 0.75 6.75l2.25-5 2.75 2.75c0.938 4.317-0.659 6.52-1.515 7.35l3.765-3.1-2 9.25zm-135.67-24.333s-5.666-8-6.333-12.667l4.667 3.333s6 5 8.666 5c0 0-2.333-5.333-3.333-8l6.333 5.333 3.334-1.666-1-4.334 7.666 4.667-1.666-4.333 12 5.333-2.667-0.333-8.25 1.5 2 2.25-4.083-1.084-23.667 36.834-5.333 3.833-5.917-0.583 2.917-1.417h-7.334s-1.333-4.333-0.333-4.333 8-1.667 8-1.667l-4-4.666 1.333-3-3.666-3.334 2-4.666 4.666 2.666-2.33-3.67 4.333 1-3.333-6 3.333-6 4.334 1.666-1.334-3 9 1.334zm124.67 83.83l1.5-4.75 5-8.25 1-12.75 1.25-5-0.083-9.083 2 5.333 1 4.667 1 2.333v4.667l-1.667 1.666 1 3.667-2.666 3.333 2 1.334 0.333 2.666-6 4-2 3 3-0.666s0.333 1.666-0.667 3.333-5.666 4.667-6.666 4c-1-0.666 2.333 2 2.333 2s-5.667 1.333-6.667 1l1-3.5 4-3zm-76.5 1.75c-0.5-7.25 4-5.75 4-5.75 0.25 5.75-4 5.75-4 5.75m14.75-3.5s1-1 1.5-1.75 3.5 3.25 3.5 3.25 0.75 2.5-1.75 2.5-3.25-4-3.25-4m-6.5 5c-2.5 0.25-2.75-5 0.25-5.75s3.021 5.423-0.25 5.75m10 11c-1.5 0.25-5.5-5-2.75-6s5.324 5.571 2.75 6m-17.25-5.75c-2.5-1-2-5 2.5-5.5s-0.298 6.381-2.5 5.5m59 12.5c-1.5 1.5-3.75-0.25-3.75-0.25s4.28-0.28 3.75 0.25m-12 1.75c-3 2.75-8.75-4-7.75-3.5s9.04 2.317 7.75 3.5m-3.25-5.75c0.75-0.75 7.942 2.168 6.5 3.25-1 0.75-7.25-2.5-6.5-3.25m-9.5-0.25c-0.75 0.25-7.5-3-6-5s6.978 4.674 6 5m-1-6.75c3 0.25 7.017 4.595 6.25 6-1.5 2.75-9.25-6.25-6.25-6m-2.5 5.5c1.25 0.25 5.75 4.75 4.25 5s-5.25-3.5-5.25-3.5-0.25-1.75 1-1.5m-8.75-11 4.25 4.25-1.5 0.5-2.5-2.5s3.5 5.75 2.75 5.75-4-0.75-4-0.75-2.75-5-2.75-5.75 2-2.5 3.75-1.5m-10.75 1.25c3.5-0.25-0.564 6.812-3 6.25-3.25-0.75-0.5-6 3-6.25m-10.75 11.75c1.25-0.75 4-1 5.75 0.25s0.946 4.241-3.5 3.5c-1.5-0.25-3.5-3-2.25-3.75m13-3c2.25-0.25 3.742 3.917 0.75 4.25-2.25 0.25-5.25-1.25-6-3s3-1 5.25-1.25m-10-4.25c3 0.5-3.506 6.612-6.5 5-3.25-1.75 3.5-5.5 6.5-5m18.75 7.25c2.5-1 7.5 3.75 4.75 4.75s-7.25-3.75-4.75-4.75m9-8.5c-1.25 0.75-4.75-5.25-4.75-5.25s1 0 2.25-0.5 3.75 5 2.5 5.75m-14.75 10.75c1.25-0.5 3.175 3.593 1.5 3.5-4.5-0.25-2.75-3-1.5-3.5m-31-7.75c1.5 0.5-5.597 4.195-7.25 3.25-1.75-1 5.75-3.75 7.25-3.25m-48-42-1.5 5.75 3.25 4.5 0.25 4.5s2.167 2.917 2.25 3.5 0 2.75 0 2.75l3 1.25 0.083 3.583-4.666 0.334-1.334-2 2.334 0.333-5-3.333-0.334-2 4 1.666-4.666-5.666 2-1.334-3.334-1.666-1.583-4.417 3.917 0.75-2.334-4.667-1.666-6 0.333-6 1-6.333 2.333 0.667-2.083-2.667 5.417-1.667-2.167 15.917 0.5 2.25zm41.25 42c-1.5-1 4-3.5 6.5-2.5s-5.287 3.309-6.5 2.5m-5.25 0.5c4.25 2-4.701 4.275-7.25 3-1.5-0.75 3-5 7.25-3m22.25-9.5c2 1.25-4.75 5.5-6.5 3.5s4.885-4.509 6.5-3.5m-8.75 12.75c1.5 1-2.622 3.814-4.25 3-2.5-1.25 2.75-4 4.25-3m8.25-7.75c2.75 0.5-3.585 6.387-5 4.5-1.5-2 2.25-5 5-4.5m-1.5 7.25c1.75 0.5 1.678 4.224-1.75 3-3.5-1.25 0-3.5 1.75-3" fill="#cdcbd3"/>
        </g>
        <g transform="translate(206.5 277.45)">
          <path d="m0 0c0.51 0.5 1.11 0.86 1.72 1.11l-1.72-1.11zm-17.17-20.58c-0.28-6.66-7.43-8.46-9.08-8.67-9.75-1.25-13.25 2.67-13.25 2.67s-1.67 13.33 10 16.66c0.76 0.22 1.49 0.39 2.19 0.52l0.06-0.35s10.5-1 10.08-10.83m-8.14-30.33c0.06 0.54 0.06 0.91 0.06 0.91 0.03-0.31 0.01-0.62-0.06-0.91m-22.94 2.91-0.29 0.02c-0.52-9.33-3.11-17.21-4.08-17.74-0.05-0.03-0.09-0.04-0.13-0.03-1 0.25-3 5.75-4.25 10.75s-1.25 11-1.25 11v4.5l1.5 2.5-2.25 2.25 2.75-0.75s0.75 2 1 1.25 1.5-1.75 1.5-1.75l1-2.25 2.75 0.5 0.5-4s0.629 0.546 1-0.5c0.288-0.814 0.359-2.724 0.25-5.75m-15.5 0.5-2.25 0.25s-0.25 3.5-1 2.75-1.25-5-1.25-5l-2.5-1.25c-2 4.75 1.75 9.75 1.75 9.75-5.5-4.5-3.25-11.25-3.25-11.25l-1.75-1.25s-1-2-2-0.75-2 3-2 3c-1-3.5 4-6.5 4-6.5h-4.5c-1.75 0.5-6.25 2-6.25 2 0.25-1.5 4.5-2.75 4.5-2.75l-2.25-1.25c-2.5 0.5-6.25 4.75-6.25 4.75 0.25-1.5 5-5.75 5-5.75l-2.75-0.75-4 0.25s-3.25 2-4 2.25-4.75-0.5-4.75-0.5l2.25 5.75s-2.5-3.25-3.25-3.25-3.75 2-3.75 2l2 4-3.25-3-4.75 2.5-0.5 2-1-1.5-3.75 2-3.75 2.25c0.48 2.66 5.19 6.97 5.49 7.24-3.25-1.75-6.49-5.74-6.49-5.74l-0.75 2.5v3l6 6.5-5.5-4.25v1.75l4.75 4.5-4.75-2.75-0.25 1.75-0.5 9-1.5 1.5 1.75 8 2.25 0.5-1.25 1.5 0.75 2.25 1.75 0.25v2.5l2 1.25 1.75 2.75 2.25 0.5v2.75l2.75 1.25 1 2 1.5 0.25 0.75 1 1.25-0.25 0.5 1.25c1.25-0.5 5.25 1.75 5.25 1.75l1.5-1 1 1.5 2.25-0.5 1.5 0.75 2.5-2.25 1.5 0.25 7.25-9.5s-3.5 0.75-2.5 0.25 3-3 3-3l-1.5-0.75 1.25-3-0.01-0.03c0.54-0.19 1.05-0.43 1.51-0.72 1.21-0.77 4.45-4.14 7.7-7.69l-0.7-0.64c0.32-0.27 0.5-0.42 0.5-0.42l1.25-3.5 1-4.5c-0.46-0.46-0.93-0.89-1.4-1.29l2.4-0.96v-7.75s3.52-5.63 6.01-9.91l-1.51-0.59zm82.75 41s-0.5 10.5-1 12.75-5 8.25-5 8.25l-1.5 4.75-4 3-4 6.25-5.25 2.75-1.75 2-4-1-2.25 1.5-2.5-0.75-2.25 0.25-4-2.75-3.5-1.25-3.25-6.5h-2.75l-3.5 0.75-1.25-3-2.25 0.75-1.75-2.25-3 2-1.5-2.5-2.75 0.5v-2.75l-2.25-0.25-0.5-2-4.75 1.75-1-2.75-2.5 0.25-4-5-2 2.5-3.75 0.25-2.75 3.25-2.75-0.5-0.75 1.75-2.75 0.25c-0.5 1-4 3.25-4 3.25l-2.25-2.25-1.75 0.5-0.75 3.5-4 1.5-3.25 1-5.5 0.5-3 2.5-2.5-1h-3.75l-2-2.75-3 0.25-2.25-3h-4l-0.75-2-1.75-1.25-1-5-3-1.25v-2.75l-2.25-3.5-0.25-4.5-3.25-4.5 1.5-5.75-0.5-2.25 1.75-9.75 0.75-7.5 2-5.25-0.46-3.99-0.29-2.51s0.25-3 0.75-3.75 0.5-4 0.5-4l2.25-2.25 0.5-2.25 1.75-1.75 4.25-5 6.5-2.5-3.5-1 5.25-2 8-3.25 5.25 1.25-2-2.25s6-1.25 7-1.75 16 3 16 3l3 3 2.75-1 4.75-4 6 1.25 3.22 2.15 2.03 1.35 4.5-1.25 3-2 2.75 2.75 2.5-0.25 3.25 1.25 5.5 2.25 4-1.25 3.5 3 6.5 2.25 4.5-3-0.25 2.75 5.25 2.25 4.5 1 5.75 4.5 2.5-0.5 1.5 3 2.75 0.25 0.5 3.75 4.25 4.5 2 2.25-1 3.25 1 1.75v8.5l0.5 11.25v3l-1.25 5z" fill="#64564e"/>
        </g>
        <g transform="translate(166.75 214.95)">
          <path d="m0 0c-0.161-1.128 3.102-1.32 5.444-1.315-2.455 0.609-5.258 2.614-5.444 1.315m7.75-1.25s-1.016-0.062-2.306-0.065c0.852-0.211 1.662-0.257 2.306 0.065m16.25 5.5s-0.604-0.136-1.542-0.314c0.591-4e-3 1.116 0.085 1.542 0.314m-12.75 0.75c-0.394-2.952 7.731-1.721 11.208-1.064-3.921 0.032-10.773 4.323-11.208 1.064m-4.75-3s9-2 13.5-0.75-15 2.5-13.5 0.75m-42.25-5.5s-8.5-4.75-11.25-5 9.75-1.5 11.25 5m9 3.25c-2-3-7.25-6.25-7.25-6.25 9.25 1.75 9.25 9.25 7.25 6.25m-3.25 2.5c-3-1.25-6-4.75-3.5-3.75s6.354 4.939 3.5 3.75m-4.75 0.75c-1.75-4.25-8.75-7-4.5-5.75s5.452 8.062 4.5 5.75m-46 13.25s-2.5-2.25-0.5-4.25-0.75 2 0.5 4.25m-6 35.5c-2-3.25 1.5-4 1.5-4-1.25 1.25 0.5 7.25-1.5 4m0.75 8.25c-2-3 0.75-3 0.75-3-1.5 1.5 1.25 6-0.75 3m1.25 6.5c-0.75-5.25 3-6.25 3-6.25-1.25 1.75-2.317 11.03-3 6.25m15.75-1s-6.75-3.25-9.5 0c0 0-0.75-7 9.5 0m-6.75 2.75c-3.5 0.75-3.75 5.75-3.75 5.75-7-5.75 3.75-5.75 3.75-5.75m1.25 4c1.25-8 10.75-3.75 10.75-3.75-5-2-10.75 3.75-10.75 3.75m12.508-1.915c0.465-0.066 0.742-0.085 0.742-0.085-0.26 0.026-0.492 0.057-0.742 0.085-2.531 0.364-10.642 2.177-10.008 10.415 0 0-11.21-8.055 10.008-10.415m3.492 9.415c-0.833-0.556-0.277-1.651 0.382-2.516-0.279 1.383 0.693 3.233-0.382 2.516m1.5-3.75s-0.592 0.543-1.118 1.234c0.11-0.546 0.41-1.022 1.118-1.234m-2 11.5c-4.5-0.75-1-5.5-1-6.25 0 0 5.5 7 1 6.25m-1.5-11.25c-3.5 2.25-3 10.5-4.25 8.5-3.378-5.405 4.25-8.5 4.25-8.5m-6.75 6.75s-8.5-10.75 15-12c0 0-13.5 1.25-15 12m120.75-15.5c-1.25 0.5 1.75-5.5 4.25 1.25 0 0-3-1.75-4.25-1.25m-4 4s3.25-4.75 4.5 1.5c0 0-1.25-1.75-4.5-1.5m2.25 5s-1.5 0.25-5.25-2.75c0 0 3.25-2.5 5.25 2.75m-4.5 8.25c0-5-4-6-4-6 9.5 0.25 4 6 4 6m-3 3.5 0.25-5c3.75 2.25-0.25 5-0.25 5m-12-10.25s2-2.25 6-0.75 3.75 5 3.75 5-7-5.25-9.75-4.25m-0.043 2.042c-1.419-0.383-2.207-0.542-2.207-0.542s0.922 0.135 2.207 0.542m6.043 3.708c-1.747-2.038-4.251-3.14-6.043-3.708 1.69 0.457 4.28 1.234 7.543 2.458 6 2.25 0.5 8.25 0.5 8.25s1-3.5-2-7m-12-3.25c19.25 5.75 9.75 13 9.75 13 0.5-8.5-9.75-13-9.75-13m0 6.25c8 9.5-1 9-1 9 3.75-2.5 0.491-9.604 1-9m6 6.75s-1.25-1.5-3.25-5.75-5.5-6.5-5.5-6.5c9.5 0.5 8.75 12.25 8.75 12.25m-13.5-1.25c-3-0.75-1.75-5-1.75-5 0.75-0.5 4.75 5.75 1.75 5m-40-36c-4-4.75 3.5-3.25 3.5-3.25 1.5 1.5 0.5 8-3.5 3.25m12 4.75c-4.75 2-2.5-5-2.5-5 2.75-1.5 7.25 3 2.5 5m-9 2.25c-4-3 2.75-5.75 2.75-5.75 2.25 1.75 1.25 8.75-2.75 5.75m14.25 1.5c-4 1.5-3-4.25-3-4.25s7 2.75 3 4.25m-8.5-1.5s4.75 6.25-0.5 5 0.5-5 0.5-5m6.5 2.75s7.25 5.75 2.25 6.75-2.25-6.75-2.25-6.75m9.5-0.75c-3.25 1.5-3.75-5.25-3.75-5.25 0.5 0.25 7 3.75 3.75 5.25m-3.25 1.5s6 4.5 2.5 5.75-2.5-5.75-2.5-5.75m9 11.5c-3.25 1.75-3.5-5.75-3.5-5.75s6.75 4 3.5 5.75m-7.5 1.5c-4 0.25-0.5-5.75-0.5-5.75s4.5 5.5 0.5 5.75m-3.5-3.25c0.25 0 1.75 5.75-1.5 4.75s1.5-4.75 1.5-4.75m7.5 1.5s3.644 6.782-1 5.75c-4.5-1 1-5.75 1-5.75m8.5 6c-4 1.5-2-4.5-2-4.5s4.828 3.439 2 4.5m-8.25-17.75s14.694 12.513 12.75 13.75c-2.75 1.75-12.75-13.75-12.75-13.75m-14.25 9.25c-5 0-1-5.75-1-5.75s5.258 5.75 1 5.75m-14.75-17.25s5.25 7.5-0.25 5.25 0.25-5.25 0.25-5.25m-6.75 1.25s-2.5 6.75-4.75 2.75 4.75-2.75 4.75-2.75m2 2.5s4 7.25-0.5 5.75 0.5-5.75 0.5-5.75m-6 10c-3-1.25 2.25-3.25 2.25-3.25s0.75 4.5-2.25 3.25m5.5 3.75c-4-0.25 0-5.5 0-5.5s4 5.75 0 5.5m-8.75-12.5s-0.25 7-3.5 4.25 3.5-4.25 3.5-4.25m-2.5 11c-2.75-0.75 2.75-5 2.75-5s0 5.75-2.75 5m2.75 0.25s2 8-2.25 6 2.25-6 2.25-6m-4.25-4.25s-0.469 10.158-4 8c-4.5-2.75 4-8 4-8m-1-5.5s-3.622 9.032-5.25 6.5c-2.25-3.5 5.25-6.5 5.25-6.5m20.75-16.5 1.25 2.5-22.25 12.75 21-15.25zm11.75 4.25 2-0.25 15.25 11.5-17.25-11.25zm-9.75-5.25 5-0.5-4.25 3.5-0.75-3zm4.5 0.75 3-1.25 13 7-16-5.75zm-2-3.75-11.25 6.25 11.5-8-0.25 1.75zm9.75 2-6.75-3-1.469-2.755-0.531-0.995-5 3.75 5.25-6.25 8.5 9.25zm-7-12.5-3.75 1.75 2-3.5 1.75-0.5 3.5 6-3.5-3.75zm-7.25 33c0.5-2.25 1.5-2.25 3.75-0.5s-1.5 3.5-1.5 3.5-2.75-0.75-2.25-3m6 9c-2.75-0.5 0-6 0-6 3 2.75 2.75 6.5 0 6m-6-2.5c-3.5 1.75-2.25-4.5-2.25-4.5s5.75 2.75 2.25 4.5m-10.25 0.5c1.25 2.25 0.25 4.75-2.5 4.5s2.5-4.5 2.5-4.5m-2.5-8.5s0.25 5-2.25 2.75 2.25-2.75 2.25-2.75m-6.5-8.5 12-6-12.5 8.75-7.25 9.5-1.5-0.25-2.5 2.25-1.5-0.75-2.25 0.5-1-1.5-1.5 1s-4-2.25-5.25-1.75l-0.5-1.25-1.25 0.25-0.75-1-1.5-0.25-1-2-2.75-1.25v-2.75l-2.25-0.5-1.75-2.75-2-1.25v-2.5l-1.75-0.25-0.75-2.25 1.25-1.5-2.25-0.5-1.75-8 1.5-1.5 0.5-9 0.25-1.75 4.75 2.75-4.75-4.5v-1.75l5.5 4.25-6-6.5v-3l0.75-2.5s3.24 3.99 6.49 5.74c-0.3-0.27-5.01-4.58-5.49-7.24l3.75-2.25 3.75-2 1 1.5 0.5-2 4.75-2.5 3.25 3-2-4s3-2 3.75-2 3.25 3.25 3.25 3.25l-2.25-5.75s4 0.75 4.75 0.5 4-2.25 4-2.25l4-0.25 2.75 0.75s-4.75 4.25-5 5.75c0 0 3.75-4.25 6.25-4.75l2.25 1.25s-4.25 1.25-4.5 2.75c0 0 4.5-1.5 6.25-2h4.5s-5 3-4 6.5c0 0 1-1.75 2-3s2 0.75 2 0.75l14.75-9.25-11.5 9 12.25-7.25-7.75 7.5 7.5-3.75-6.5 5.75s6.75-2.75 5.75-2.25-4.25 3.5-4.25 3.5l3.5-0.5-3.5 3.25 2.11-0.768 0.89-1.482-0.523 1.35 0.273-0.1-0.571 0.867-3.929 10.133 5.75-8.5-5.25 10 5-6.25-4.75 8 5.25-5.75-7.25 9.75 8.25-7.5-7.75 9 6-5-4 7.5 5.25-5-7.25 9.5 7.75-6.25-12.75 12.5 12.5-9.75-12.117 10.679-2.633 2.321 15.5-11.75-22.25 18.25zm93.917-11.167-2.167 0.334-0.333 1.666 2-0.333v3.5l-2.167 3.333-3.166 4.5-1.667-1.333-3.333-4-1.334-0.667c1.166 2.5 5.667 7.834 5.667 7.834l-0.167 1.333-4.166-2.5 3 3.5-1 1.5-4-1 2.024 1.315 1.309 0.852-0.167 2.5-1.166 0.166-2.167 0.834-1.667 3.166-3.333 0.834 0.167 2h-2.167l-1.667 2-1.833 0.333-2.667 1.667-4.333 1-2.833-1-8.834-8.667s-0.5-3.167-1.833-4-2.833-2.833-2.833-2.833l3 1.333-3.334-4.5 5.667 4.167-8.667-9.834 11 8-4.333-5.166s3.5 2.833-3-2.5l0.333 1.083-13-11.5 7.25 5.25-10.25-11.25 8 7.25-9.25-12.5 6.75 7.25-9.25-12.75 8.75 9.75-6.5-11.5 6.5 9-4.5-11.75 4.25 7.5-3-9 2.5 1.5-0.25-1.5-3.25-6 2.75 3-1-3.75 2.5 3.25-5-7.25 4.546 4h0.668l-4.547-6.583s3.822 4.496 5.65 6.583h0.307c-1.348-2.176-4.427-7.201-5.864-9.432 1.636 2.088 5.498 6.616 7.588 9.052l0.152-0.037h0.12c-2.433-3.589-7.986-11.776-8.361-12.322 0.431 0.615 7.868 7.96 11.617 11.651l0.206-0.115-9.832-11.297 12.831 9.526-0.414-0.776 0.118-0.055-10.535-9.445 13.873 7.85-0.123-0.35 3.167-0.333c1.333 0.833 2.083 3.583 2.083 3.583-0.084-3.083-0.916-4.583-0.916-4.583l2.833-0.834 3 0.834 0.833 1.666 1.167-1.833 2.333 1 1.167 2.333 2-1.166 2 1.5 3.167 1.166 1-0.333-0.167 4.167 1.5-3 2 1-0.333 2 2-1.834 3.166 1 2.334 2-4.5 4.5 5.166-2.5h2.667v2.167l-2.333 1.5 4.666-1.333 0.667 2.333-0.667 2.167-2.5 2.5 4.834-2.5 2.666 4.166 0.5 3.667 0.834 2.5-2.334 4 0.167 4.833zm-61.407-40.015c-0.44-0.561-0.72-0.948-0.76-1.068-0.056-0.167 0.249 0.275 0.76 1.068m-0.501-3.307c-2e-3 -3e-3 -7e-3 -9e-3 -9e-3 -0.011-0.025-0.038-0.018-0.026 9e-3 0.011" fill="#b6aaa1"/>
        </g>
        <g transform="translate(138 256.45)">
          <path d="m0 0s-7 8.25-9.25 9.75-2.75 1.75-2.75 1.75l-1.25 3 1.5 0.75-3 3 2.5-0.25-5.25 6-4.75 3.5 6.25-6.25-4.75 2.25 4-3.5-5.75 2 5.75-4.5-7.25 0.75 7.25-2.5-6-0.75 7-1.25-5.25-0.75-5.25-2.5-1.75-3.75 3.25 2.5 3.25 2.5 5.25 0.25 2-1.75-2.25-0.5 1.25-1-6-1.25-3-3-1.75-3.75 4.5 3.5-1.75-3s1.75 0.5 1.5-0.25-0.75-4.5-0.25-5.5 2.5-4.75 2.5-4.75 2.5-4 7.25-3 6.5 1.25 6.5 1.25l-4.5-3.25 4 1-1-3 4.25 2.5v-2.25h3.25v7.75l1 1-0.75 2.75 1-0.75-1.5 5.25zm56 4.25-2.5 1.5v3.75s-4.5 3.5-6.75 3.25-6.25-0.25-6.25-0.25-0.25 2.25 3.75 2.5 9.5-1.75 10-2.5l-3 3.5-6 0.75 3.25 1.75-5.25-0.75 6.75 3.25h-4.75s3 4 5.25 5l-5.75-2s5.743 5.742 7.529 6.997c-1.494-0.801-6.15-3.288-6.779-3.497-0.615-0.205-1.557-1.407-1.879-1.836l5.629 7.586-7.25-5.75 6 8.5s-8-6.5-8-7.25-1.833-4-1.833-4l-2.833-2.833 3 1.333-4.084-5.75 6.417 5.417-8.667-9.834 11 8-4.333-5.166-9.167-8.917-2.25-5.25-2.75-3.75 2.25 1.5-0.75-2.25 1-0.75 0.5-5.75-1-2 2.25-3.75 7.25-5.75-4.75 6h3.25l-1.75 2 1.75 1.25 6.25-1s-1.75 1.25-1 1 6.25-0.5 6.25-0.5-6.734 1.87-9.033 2.374c1.653-0.202 5.497-0.558 6.783-0.374 1.75 0.25 5.25 2.25 7 4.75s3.75 6 3.75 6l1.5 1.25-1.25 0.75 1.25 1.5zm-3.721 26.747c0.288 0.154 0.471 0.253 0.471 0.253-0.082 0-0.252-0.099-0.471-0.253" fill="#50423c"/>
        </g>
        <g transform="translate(177.33 252.53)">
          <path d="m0 0c-2.39 0-4.33 1.94-4.33 4.34 0 2.39 1.94 4.33 4.33 4.33 2.4 0 4.34-1.94 4.34-4.33 0-2.4-1.94-4.34-4.34-4.34m1.92 15.17-0.06 0.35c-0.7-0.13-1.43-0.3-2.19-0.52-11.67-3.33-10-16.66-10-16.66s3.5-3.92 13.25-2.67c1.65 0.21 8.8 2.01 9.08 8.67 0.42 9.83-10.08 10.83-10.08 10.83m-51.92-18.5c-2.39 0-4.33 1.94-4.33 4.33 0 2.4 1.94 4.34 4.33 4.34 2.4 0 4.34-1.94 4.34-4.34 0-2.39-1.94-4.33-4.34-4.33m7.67 9.25s-0.18 0.15-0.5 0.42c-1.17 0.93-4.24 3.25-7.66 4.69l-0.59-0.86c-1.51 0-9.45-0.4-9-9 0.47-9 10.14-11.72 18.6-4.54 0.47 0.4 0.94 0.83 1.4 1.29l-1 4.5-1.25 3.5z" fill="#e3d300"/>
        </g>
        <g transform="translate(177.33 261.2)">
          <path d="m0 0c-2.39 0-4.33-1.94-4.33-4.33 0-2.4 1.94-4.34 4.33-4.34 2.4 0 4.34 1.94 4.34 4.34 0 2.39-1.94 4.33-4.34 4.33m-50-3.33c-2.39 0-4.33-1.94-4.33-4.34 0-2.39 1.94-4.33 4.33-4.33 2.4 0 4.34 1.94 4.34 4.33 0 2.4-1.94 4.34-4.34 4.34" fill="#272a29"/>
        </g>
        <g transform="translate(132 185.86)">
          <path d="m0 0c-0.667-1 2 7 2 7l-1.667 3-5-13.666 6.667 2.333v-9.333s2.667 18.666 2.667 19.666-4-8-4.667-9m-22.333 0.667 2-1.333 6 13-1 2.333-7-14zm120.67 29.333-3.334 3.667l0.334-4.333-3-0.667-0.334-2.333-3.666 3.666-5.334-4c0.667-1 5-16.666 5-16.666l1.334 7-1.584 4.5 4.584 1.5 6.416 4.25 2.56 10.41-2.643-0.327-0.333-6.667zm-20-8.666-0.084-8s-5.25 7.333-5.916 8.333 1-9.333 1-9.333-6.334 7-7 8.333 3-8 3-8l-5 0.667s4-6.667 4.666-7.667 3 2.333 3 2.333 4-5.666 4-6.666 1 6.666 1 7.666 3.334-3.666 3.334-3.666-0.334 5-0.667 6 4.333-8.667 4.333-8.667c0.333 4-3.75 18.417-3.75 18.417l-1.916 0.25zm-50.667-29 2.333-9.667 0.25 8.417-1.917 4.583-2 4.667l-0.666 1.333-5-4.667-2.667 6.334-2.333-3.667-4.667 0.333s0.667-4 0.667-5 3.333 2.667 3.333 2.667l3-5.667 3.333-1s0-4.333-0.333-5.333 1.5 1.417 1.5 1.417l4.167-3.084 1 8.334zm79.333 92.333l-3.75 5.167s0.75 1.833 0.75 2.833-2.667 5.333-2.667 5.333l-0.583 5.084-1.73 5.78-4.27 0.97-0.75 4.5-2.504 1.962-9.829 7.704 1-4 8-5.666 1.333-4 6-3v-4l3-9.334-1.333-4.666 2-6.667-2.334-3.333 1.667-6-4.333-6 1.083-4 3.583-8 2 0.666-4 9.667 2.667 5.667 2.333 6.666-0.083 3.584 1.75 1.75 1 1.333zm-68-105.83-4.75 2s-6.584-9.666-8.25-7.25l2-5.584 2 4.334h3.667l3.667 3.666 2.333-2.333 2.333 2.667-0.333 2.333-2.667 0.167zm-67.25 18.25c-2.083 1.25-5.083-0.417-4.75 0.583s0.333 2.667 0.333 2.667l-1.833-0.75-3.167 1.083-1-5s2.667 2.667 2.667 1.667 1-8.334 1-8.334l3 3.667 0.667-3s2.666 2.333 2.666 1.333 2.667-0.666 2.667-0.666-0.167 5.5-2.25 6.75m-12.083 20.58-4.667-3.333l3.333 6s-5.666-4.334-5.333-3.334 2.667 6.667 2.667 6.667-9.334-9.666-9.667-17.333l6.333 7-4.583-17.5 5.917 9.166-1.334-11.333 6.417 11.417 2 7 1.75 3.25-2.833 2.333z" fill="#775c52"/>
        </g>
        <g transform="translate(137.25 250.45)">
          <path d="m0 0-2-3.25 2 0.5-2.25-2.5 3 0.5 1.25 3.5-2 5v-3.75zm28.5 5.25v-7l0.75-3.75 2.75-1.5-1.5 4 3.25-1 2.25 1-6 2.5-1.5 5.75zm-64.083 28.333-2-0.166v-1.834l-4.334-0.833 2.417-0.75-3.083-2.417-1.167-2.166-1.833-0.834-2.334-3.5 1.917 0.417 2.417 3.083 1.583 0.167 0.583 3.333 2.167 0.667 1 2 1.5 0.25 0.75 1 1.25-0.25 0.5 1.25 2.667 0.417 1.113 1.65-6.113-0.817 1-0.667zm14.666 2.167-2.666 1.667 0.833-1.917-1.5-0.75-5.5 1.667 1.333-1h-3.666l1.613-0.35 1.47-0.317 1.5-1 0.583 0.833h5l1.667-1.333 1.5 0.25-1.5 2.583-0.667-0.333zm94.167-1.5-3 1.167 1.167 1.166-4.834 1.834 2 1.833-5.333 0.333 1 0.667-4.333 2 1.79 1.292l-5.957 0.458-2.75 0.75-3.416-2.333 2.833 1 3.666-0.834 3.334-1.833 1.833-0.333 1.667-2h2.167l-0.167-2 3.333-0.834 1.667-3.166 2.167-0.834 1.166-0.166-0.5 0.833 0.5 1z" fill="#393231"/>
        </g>
        <g transform="translate(194.75 267.7)">
          <path d="m0 0c3.25 0.5 14.25 9.25 14.25 9.25-6.5-2.75-14.25-9.25-14.25-9.25m2-2.25c3.5 0 10.75 4.25 10.75 4.25-4.25-0.75-10.75-4.25-10.75-4.25m0.25-2.25c0.154 0.029 0.315 0.053 0.482 0.073-0.31-0.043-0.482-0.073-0.482-0.073m0.525 0.079c5.54 0.639 17.725-3.579 17.725-3.579-6.102 4.794-15.431 3.89-17.725 3.579m-0.775-10.079s11.75-5.75 12.75-8.25c0 0-1.75 7.5-12.75 8.25m-3.5-1.75s10.5-5.5 12.5-9c0 0-2.25 7-12.5 9m-2.25-4.5s9-8 9.25-11.25c0 0 2 7.5-9.25 11.25m0.949-15.574c0.467 1.927 1.166 7.708-4.949 13.824 0 0 5.433-10.215 4.949-13.824-0.105-0.436-0.199-0.676-0.199-0.676 0.102 0.186 0.164 0.415 0.199 0.676m-5.199-1.926s2.75 3.5-2.75 15c0 0 3.75-9.75 2.75-15m-9.5 0.5s4 3.25 3.5 11.25c0 0-1.25-8-3.5-11.25m-3.5 1.75s5 0 3 9.5c0 0 0.25-5.5-3-9.5m22.75 25.75c9.75-0.5 21.25-7.5 21.25-7.5-11 10-21.25 7.5-21.25 7.5m-86.5 10.5c-5 1.25-17.25-1.25-17.25-1.25 9.25-0.75 17.25 1.25 17.25 1.25m-0.75-6.5s-12.75 3.5-19.5 1.25c0 0 10.5 1 19.5-1.25m-1.25-4.25s-8.25 5.5-18.5 0.75c0 0 11 1.75 18.5-0.75m1.5-2.5s-17.75 4.25-20.5-5.5c0 0 6.75 6.75 20.5 5.5m-17-8.5c0.097 0.075 0.206 0.151 0.324 0.229-0.208-0.144-0.324-0.229-0.324-0.229m0.341 0.241c3.838 2.522 17.909 6.509 17.909 6.509-7.147 0.67-16.083-5.24-17.909-6.509m26.23-21.129c-1.697 4.188 1.179 13.638 1.179 13.638-3.915-6.525-2.269-11.52-1.179-13.638 0.175-0.432 0.399-0.808 0.679-1.112 0 0-0.307 0.39-0.679 1.112m5.179 15.138c-3.75-7.25 0.25-14.75 0.25-14.75-2.25 4.75-0.25 14.75-0.25 14.75m2.5-0.25c-2-7.5 4.25-11.75 4.25-11.75-3.5 2.5-4.25 11.75-4.25 11.75m-17.25-13s6 10.5 6.5 11.25-5-5-6.5-11.25m2.75-3.75c0.25 7 8 18.5 8 18.5-7.75-6.25-8-18.5-8-18.5m5.75 19s-7.5-0.75-11.5-15.75c0 0 4.75 10.75 11.5 15.75m-3 2.25s-9.5-4-14.75-14.5c0 0 10.5 12.25 14.75 14.5m-3.5 1.5c6 2.5-1 0-1 0l-10.25-5.75s10 9.25 13 10.25l-4.25-0.75s-11.75-3.25-20.75-15.25c0 0 7.75 6 11.5 8l-8-10.75s13.75 11.75 19.75 14.25m-20 24.75-0.25-3 20.25 3.75-20-0.75zm3.75 4.25-3-2 19.25 0.25-16.25 1.75zm7.5 4.75 10.75-2.75-7.75 4.25h-5.25l-2-3.5s10.277-1.652 14.161-2.754c-3.068 1.4-9.911 4.754-9.911 4.754m11.25-5.25c-0.214 0.143-0.69 0.312-1.339 0.496 1.118-0.51 1.74-0.763 1.339-0.496m78.25 4.5 10.75 6.25-8-6 10.25 4.5-7.75-5 10.5 3l-16.25-8.75 18.25 8-2.5 1.75-2.25 3.25-3.25 0.25v2.5l-4.25-0.5-8.75-9.25 11.25 8.75-8-8.75z" fill="#cdcbd3"/>
        </g>
        <g transform="translate(179.25 267.7)">
          <path d="m0 0s10.5-1 10.083-10.833c-0.282-6.662-7.43-8.455-9.083-8.667-9.75-1.25-13.25 2.667-13.25 2.667s-1.667 13.333 10 16.666c11.667 3.334 15.333-5 15.333-5" fill="none" stroke="#222" stroke-width=".5"/>
        </g>
        <g transform="translate(181.67 256.86)">
          <path d="m0 0c0-2.394-1.94-4.334-4.334-4.334s-4.334 1.94-4.334 4.334 1.94 4.334 4.334 4.334 4.334-1.94 4.334-4.334z" fill="none" stroke="#222" stroke-width=".5"/>
        </g>
        <g transform="translate(131.67 253.53)">
          <path d="m0 0c0-2.393-1.94-4.333-4.333-4.333s-4.333 1.94-4.333 4.333 1.94 4.333 4.333 4.333 4.333-1.94 4.333-4.333z" fill="none" stroke="#222" stroke-width=".5"/>
        </g>
        <g transform="translate(124.75 294.7)">
          <path d="m0 0 1.75-0.5 2.25 2.25s3.5-2.25 4-3.25l2.75-0.25 0.75-1.75 2.75 0.5 2.75-3.25 3.75-0.25 2-2.5 4 5 2.5-0.25 1 2.75 4.75-1.75 0.5 2 2.25 0.25v2.75l2.75-0.5 1.5 2.5 3-2 1.75 2.25 2.25-0.75 1.25 3 3.5-0.75h2.75l3.25 6.5 3.5 1.25 4 2.75 2.25-0.25 2.5 0.75 2.25-1.5 4 1 1.75-2 5.25-2.75 4-6.25 4-3 1.5-4.75s4.5-6 5-8.25 1-12.75 1-12.75l1.25-5v-3l-0.5-11.25v-8.5l-1-1.75 1-3.25-2-2.25-4.25-4.5-0.5-3.75-2.75-0.25-1.5-3-2.5 0.5-5.75-4.5-4.5-1-5.25-2.25 0.25-2.75-4.5 3-6.5-2.25-3.5-3-4 1.25-5.5-2.25-3.25-1.25-2.5 0.25-2.75-2.75-3 2-4.5 1.25-5.25-3.5-6-1.25-4.75 4-2.75 1-3-3s-15-3.5-16-3-7 1.75-7 1.75l2 2.25-5.25-1.25-8 3.25-5.25 2 3.5 1-6.5 2.5-4.25 5-1.75 1.75-0.5 2.25-2.25 2.25s0 3.25-0.5 4-0.75 3.75-0.75 3.75l0.75 6.5-2 5.25-0.75 7.5-1.75 9.75 0.5 2.25-1.5 5.75 3.25 4.5 0.25 4.5 2.25 3.5v2.75l3 1.25 1 5 1.75 1.25 0.75 2h4l2.25 3 3-0.25 2 2.75h3.75l2.5 1 3-2.5 5.5-0.5 3.25-1 4-1.5 0.75-3.5z" fill="none" stroke="#222" stroke-width=".5"/>
        </g>
        <g transform="translate(74.75 291.7)">
          <path d="m0 0s16.671 15.139 21 17.5c2.75 1.5 32.5 12.25 62 10.75 0 0 7.5 1.5 11 1.25 0 0 4.75 2.75 9 0 0 0 4-0.5 5.25-1.25 0 0 4 0.5 6.5-0.5 0 0 7.25 0.5 9.5-0.25s23.5-14.25 28.25-20.5" fill="none" stroke="#222" stroke-width=".5"/>
        </g>
        <g transform="translate(232.5 339.95)">
          <path d="m0 0s-3.75-2-3.5-4 1-4.25 1-4.25 0.75-4.75 1-5.5 2.25-6 2.25-6" fill="none" stroke="#222" stroke-width=".5"/>
        </g>
        <g transform="translate(240.25 326.95)">
          <path d="m0 0-4.75 0.25-1-3.5-2-4.5s-3.75-3.75-4.25-4.5-0.75-2.5-0.75-2.5l-1.25-3.5 0.5-4.75s-0.25-6.75 0.75-7.75 4-1 4-1" fill="none" stroke="#222" stroke-width=".5"/>
        </g>
        <g transform="translate(231.5 300.45)">
          <path d="m0 0s0.25-6.5 0.5-7.5 1.5-3.5 1.5-3.5l0.25-7.5 2.75-4.25 1 3.5-1.5-5s1.75-1.5 2.25-2.75 0.5-3.75 0.5-3.75l6.75-2.25s4.25-2.5 3.75-3.25" fill="none" stroke="#222" stroke-width=".5"/>
        </g>
        <g transform="translate(242.75 268.2)">
          <path d="m0 0-5.75-0.25-1.25-2.5s-0.75-6.5-1-7.75-4.5-7.25-4.25-8 1-1.75 1-1.75 0.75 0.25 1.25-0.5 1.25-4.25 1.25-4.25l1.5-2s-2.25-1-1.75-1.75 1-1.75 1.5-3-1.75-2.25-1.75-2.25-0.75-4-0.75-5-1-2.75-0.75-3.5 2-2.25 2-2.25" fill="none" stroke="#222" stroke-width=".5"/>
        </g>
        <g transform="translate(242.25 229.45)">
          <path d="m0 0-9.75-7.25-1-9.25s-7.75-5-8.5-5.25-3 0.5-2.5-0.5 1-6 1-6-2.25-5.75-1.25-7.75 2.25-7.5 1.5-8.5-2.5-4.75-3-5.75-2.75-7.5-2.75-7.5l-3.75-4.75-1.5-5-2-2.5-2.25-2 3.25 1s2.5-1.5 2.75-2.5 1-3 1-3" fill="none" stroke="#222" stroke-width=".5"/>
        </g>
        <g transform="translate(206.5 157.45)">
          <path d="m0 0s-1.25 0-1.25-1.25 0.25-1.75 0.75-2.75l2.25-4.5 5.25-5 1.5-2.25-2.25 0.75-1-5.75 1.5-5.5 3-2.75-0.75-3.75-5 1.75-3.75-1-2.75-1.75s-3.25 0.75-4.25 0-7.25-6-7.25-6l-4.75-1-2-1s-4.25 1-5 1-7.5 0.25-7.5 0.25l-6 2.5v1.75" fill="none" stroke="#222" stroke-width=".5"/>
        </g>
        <g transform="translate(204 123.7)">
          <path d="m0 0 1.25 5.75-3.75 7.5-3.5 0.25-3.25 2-6.25-3-8-3.75-10-3.25-9.25-4-2.5-3.5s-1.25 2.25-2 1.75-1.5-2-2.25-1.75-4.25 2.75-5 3.5-6 3.25-6 3.25-4.75 4-5.5 3.75-5.25-1.5-5.25-1.5l-5-5-5.25 5.5-0.5 4.5s0.5 2.75-1 3.5-7.25 4.5-8 5-6 1-6 1l-4.75 1.5" fill="none" stroke="#222" stroke-width=".5"/>
        </g>
        <g transform="translate(138 115.95)">
          <path d="m0 0s-6.75 3.75-7.5 3.75-6.25 3.25-6.25 3.25l-8.75 12.25-3.5 1.5-4 5.5-14.25 12.5-2.25 3.5-6.25 3.5s-0.75 3.75-2.25 4-4.25 0.5-5.5 1.25-7 4.75-7 4.75l-6 4.25-4-1s-2.75-0.5-2.75-2" fill="none" stroke="#222" stroke-width=".5"/>
        </g>
        <g transform="translate(57 251.45)">
          <path d="m0 0 6.25-1s3.75 0 4.5-2.25 2.25-8.25 2.25-8.25-1.5-13.5-2-14.25-2.25-3.75-2.25-3.75l3.5 4.25s6.5-7.75 7-10 0.25-9.5 0-11.25-1.75-7.5-1.75-7.5l-2 1 2.75-3.25s5.5-12.25 5.25-13-2.25-3.75-2.25-3.75l0.5-5.75v-6" fill="none" stroke="#222" stroke-width=".5"/>
        </g>
        <g transform="translate(67.75 248.2)">
          <path d="m0 0 2.25 1.5-2.5 3l5-4.5 3.25-0.25 0.5 2.25-0.75 3.5s-1 2.25-0.75 3-0.25 5.75-0.25 5.75l0.75 7-0.5 5-2 2.75-5.75 2" fill="none" stroke="#222" stroke-width=".5"/>
        </g>
        <g transform="translate(72.75 277.2)">
          <path d="m0 0 1.75 6.25 1 5.5l-0.75 2.75-4.75-0.5" fill="none" stroke="#222" stroke-width=".5"/>
        </g>
        <g transform="translate(70.5 309.45)">
          <path d="m0 0 10.5 5.25 2-2 2-1.5 4 4-4.5-5-0.75-5 0.25-2.25" fill="none" stroke="#222" stroke-width=".5"/>
        </g>
        <g transform="translate(90.25 316.45)">
          <path d="m0 0 3.25 1.5h3" fill="none" stroke="#222" stroke-width=".5"/>
        </g>
        <g transform="translate(192.5 393.7)">
          <path d="m0 0c-0.75 0-6-0.5-6-0.5s-3.25-1-3.75-1.5-1-4.75-1-4.75l0.5-2.25s-1.5-2.75-1-3.5 1-3.5 0.25-4.5-2.75-3.5-2.75-3.5l-1.75-2.25 0.25-4.25 3.5-5.25 3.25-3 2.5-3 2.75-0.25 0.25-5.75s7-2.75 8.25-3.25 6-0.75 6.5-1.5 3.25-5 4.5-5.25 9.75-0.25 10.5-0.5 3.75-3 4.75-3.25 5.25-1.75 5.25-1.75" fill="none" stroke="#222" stroke-width=".5"/>
        </g>
        <g transform="translate(181.75 383.7)">
          <path d="m0 0s-7.25-2-7.75-2.75-3.25-3.25-3.25-3.25h-3l-4-3s-2.5-1.75-2.5-1-0.75 5.25-0.5 4.5-3-5-3.75-5.5-2.25-2-3.25-2.25-3.25 1-3.75 0.25-3.25-4-4-4.5-3.5 0.25-3.5 0.25 0.75-1-0.5-2.75-2-4-3.25-5-4.25-3.25-4.25-3.25-5.25-0.75-6-0.75-3 0.5-3.5-0.75-3-4.25-2.75-5.25-1.25-2.5-1-3.75-1.5-4-2.25-4.25-2.75-2.75-2.75-3.5-1.5-3.25-2.25-3.25-3.75-0.5-3.5-1.25 0-4.75 0-5.75-1.25-1.75-1.5-3" fill="none" stroke="#222" stroke-width=".5"/>
        </g>
        <g transform="translate(169.5 375.95)">
          <path d="m0 0c0-1-2.75-7-2.75-7s-2.5-2.25-1.75-2.75 2.5-2.5 2.25-3.75-1.75-9.25-1.75-9.25l-3.75-3.5s-1.75-3.25-2.5-4-2.25-2-3-2-3.25-0.75-3.25 0-4 2-4 2l-3-1.75" fill="none" stroke="#222" stroke-width=".5"/>
        </g>
        <g transform="translate(155.75 342.45)">
          <path d="m0 0c-0.25-1-0.75-2.5-1-3.25s-2.75-2-1.5-2.25 3-1 3.25-2.75 0.75-5.75 1-7 0.25-7.25 0.25-7.25" fill="none" stroke="#222" stroke-width=".5"/>
        </g>
        <g transform="translate(133.5 347.95)">
          <path d="m0 0 0.25-3.25-2.75-2s-2.75 0-3.5-0.25-3-2.5-6.75-0.75" fill="none" stroke="#222" stroke-width=".5"/>
        </g>
        <g transform="translate(46.5 302.7)">
          <path d="m0 0-1.5-6-4.5-4s-1.25-4.25-2-5.5-3-4.5-4-5.75-4-4.25-4-5-0.75-3.5-0.25-4.75 2-3.75 3-4.5 4.25-2.5 4.25-2.5l6.25 1.5-4-0.5-1 5.75-0.75 3.5 0.75 2.75s3.75 4.75 4.25 5.5 2.75 3.75 2.75 4.5 1 4.75 1 4.75l0.25 3.25 3.5 0.5 2.25 5.25s1.25 3.5 1.25 4.5 0.25 3.75 0.25 3.75 2-0.5 2.25 0.25 0.5 5.75 0.5 5.75l0.5 2.25 2.5 2.75 7.75 19.75-1.5 2 2-3.5 3.75 9.75s0.75-2.25 1.5-1.5 14.5 12.5 14.5 12.5" fill="none" stroke="#222" stroke-width=".5"/>
        </g>
        <g transform="translate(46 234.86)">
          <path d="m0 0c-0.667-1.333-4-6.333-4-6.333l0.333-3.334-3-6s-3-7-2.333-8 1.667-4 1.667-4l4.333 1-2.333-5-1-8.333 3.333-3.333 1.333 2 1 6.333" fill="none" stroke="#222" stroke-width=".5"/>
        </g>
        <g transform="translate(44.334 193.53)">
          <path d="m0 0 2.667-4.333 4.333 3" fill="none" stroke="#222" stroke-width=".5"/>
        </g>
        <g transform="translate(258 268.7)">
          <path d="m0 0-4.5-4.5-1.5-6.5s-3.5-1.5-2.5-3 0-6 0-6l3.5-1.5v-9.5l0.5-8.5" fill="none" stroke="#222" stroke-width=".5"/>
        </g>
        <g transform="translate(268 204.2)">
          <path d="m0 0c-1-1.5-4.5-9-4.5-9-1 1-5 11-5 11" fill="none" stroke="#222" stroke-width=".5"/>
        </g>
        <g transform="translate(268.5 206.7)">
          <path d="m0 0s0.5 4 0.5 5.5 0.5 5.5 0.5 5.5l-2.5 3.5" fill="none" stroke="#222" stroke-width=".5"/>
        </g>
        <g transform="translate(263.5 195.2)">
          <path d="m0 0 3-6.5s0-1.5-0.5-3.5-3.5-6-3.5-6l2-4-3-5-2.5-4-4-1s1.5-5 0-7-5.5-4.5-6.5-6.5-2.5-5.5-3-9.5-1-13-1-13" fill="none" stroke="#222" stroke-width=".5"/>
        </g>
        <g transform="translate(111.25 263.95)">
          <path d="m0 0s3.5 4.25 6.25 4.5 7.25 0.5 10-1.25 16-17 16-17" fill="none" stroke="#222" stroke-width=".5"/>
        </g>
        <g transform="translate(192.5 268.45)">
          <path d="m0 0-4.25 2.75-6 0.75-5.75 0.25s-6.75-5.25-9-8.75-2.5-5.25-2.5-5.25l-2.75-4.25" fill="none" stroke="#222" stroke-width=".5"/>
        </g>
        <g transform="translate(165 252.7)">
          <path d="m0 0 0.25-6.25-1.25-1.5 2.5-3.5v-2.25l0.5-5.5" fill="none" stroke="#222" stroke-width=".5"/>
        </g>
        <g transform="translate(126 267.95)">
          <path d="m0 0-1.25 3 1.5 0.75s-2 2.5-3 3 2.5-0.25 2.5-0.25l-7.25 9.5-1.5-0.25-2.5 2.25-1.5-0.75-2.25 0.5-1-1.5-1.5 1s-4-2.25-5.25-1.75l-0.5-1.25-1.25 0.25-0.75-1-1.5-0.25-1-2-2.75-1.25v-2.75l-2.25-0.5-1.75-2.75-2-1.25v-2.5l-1.75-0.25-0.75-2.25 1.25-1.5-2.25-0.5-1.75-8 1.5-1.5 0.5-9 0.25-1.75 4.75 2.75-4.75-4.5v-1.75l5.5 4.25-6-6.5v-3l0.75-2.5s3.25 4 6.5 5.75c0 0-5-4.5-5.5-7.25l3.75-2.25 3.75-2 1 1.5 0.5-2 4.75-2.5 3.25 3-2-4s3-2 3.75-2 3.25 3.25 3.25 3.25l-2.25-5.75s4 0.75 4.75 0.5 4-2.25 4-2.25l4-0.25 2.75 0.75s-4.75 4.25-5 5.75c0 0 3.75-4.25 6.25-4.75l2.25 1.25s-4.25 1.25-4.5 2.75c0 0 4.5-1.5 6.25-2h4.5s-5 3-4 6.5c0 0 1-1.75 2-3s2 0.75 2 0.75l1.75 1.25s-2.25 6.75 3.25 11.25c0 0-3.75-5-1.75-9.75l2.5 1.25s0.5 4.25 1.25 5 1-2.75 1-2.75l2.25-0.25" fill="none" stroke="#222" stroke-width=".5"/>
        </g>
        <g transform="translate(135.5 219.7)">
          <path d="m0 0 11.75-5.5" fill="none" stroke="#222" stroke-width=".5"/>
        </g>
        <g transform="translate(163.5 215.45)">
          <path d="m0 0 13.75 5.25" fill="none" stroke="#222" stroke-width=".5"/>
        </g>
        <g transform="translate(138.25 248.2)">
          <path d="m0 0v-7.75s6.25-10 8-13.5c0 0-0.25 3.5-1.5 7.25l2.5-3.75-0.75 4 1.75-1v4.5l1.5 2.5-2.25 2.25 2.75-0.75s0.75 2 1 1.25 1.5-1.75 1.5-1.75l1-2.25 2.75 0.5 0.5-4 3.25 0.25 2.75 1.5s-4-4-4.75-8l2.415 3.42 0.585 0.83-1-4.5 1.75 0.75 0.5-1 1.75 0.75 1.75-0.5 2.5 0.25 1.25-1 3 0.75 1.25-0.75-1.5-2 2.25-1.5 2.25 2-1.25-3 3-0.5s2.75 1.75 2.5 4c0 0 0-3-1.25-4.25l3-1 3.25 0.25 0.5 2 1.5-2 2.25 1.25 1 2 2-1.25 1.75 1.5 3.5 1.25 1.25-0.25-0.75 4.75 1.75-3.5 2.25 0.75-0.75 2.75 2.25-2.5 3.5 1.5 2.25 1.75-4.75 4.5 5.25-2.5h2.75v2.5l-3.25 1.75 5.5-2.25 0.75 2.5-0.75 2.25-2.75 3 5-3.25 1 1.75 1.75 2.5 0.25 3.75 1.25 2.75-2.5 4 0.25 5h-2.5l-0.25 1.75 2.25-0.5v3.75l-2.5 3.5-1.25 2.25-1.5 2.25s-1.25-0.5-3.25-3-3.75-4-3.75-4 4 6.25 6.25 8v2.25s-4-2.75-6.5-4.25c0 0 3.5 2.25 5 4.5l-1 2s-3 0-4.75-1.75l4.25 2.75s0 3-0.75 2.75-2.75 0.75-2.75 0.75l-2 3.5-3.25 0.5 0.25 2h-2.5l-1.25 2.25h-2l-1.5 1.25s-4.5 2.25-6.25 1.5l-1.75-0.75s-7.75-7.25-9-9.25-1.75-3.25-1.75-3.25-2-1.5-3.25-3.5l3.75 2s-1.25-0.75-3.5-4.25-0.75-1.25-0.75-1.25l6.5 5.5-9.5-10.75 12 9-5-6" fill="none" stroke="#222" stroke-width=".5"/>
        </g>
        <g transform="translate(148.25 233.45)">
          <path d="m0 0s0-6 1.25-11 3.25-10.5 4.25-10.75 4.75 11.25 4.25 23.25" fill="none" stroke="#222" stroke-width=".5"/>
        </g>
        <g transform="translate(126.5 262.7)">
          <path d="m0 0s-9.75 0.5-9.25-9 11.25-12 20-3.25l-1 4.5-1.25 3.5s-8.269 7.14-14.5 6.25c-3.5-0.5-6.75-5.5-6.75-5.5" fill="none" stroke="#222" stroke-width=".5"/>
        </g>
        <g transform="translate(90 206.2)">
          <path d="m0 0s-3.333-4.001-3-6.667l4.333 3.667s-0.333-2.334-0.666-4.667l2.333-0.666-2.333-7.334s5.333-4.332 6.666-5.666c1.334-1.334 3.334 7 3.334 7l-2-8.334s4 2.001 5-0.666 2-7 2-7 5 0.666 5 1.666 3.333 6.334 3.333 6.334l-1.667-7.667 4.334-0.667 3 3.667 4-2.667s-2.667-3.999-1.334-6.666c1.334-2.667 4.667-1.667 4.667-1.667l1.667 1.667s5-9.668 5.666-12.334c0.667-2.666 3.334-3.666 3.334-3.666s3-4.667 2.666-3.667c-0.072 0.217-0.238 1.313-0.455 2.897-0.781 5.713-2.211 17.77-2.211 17.77s3 1 2.666 0c-0.333-1 1.334-17 1.334-17l2 6 2.666-1s1.334-4 1.667-5 1.333-5 1.333-5 5.333-2.333 5.667-1 2.667 11.666 2.667 11.666l2-0.666s5.666 5.332 6.333 7.666l4.667-2.333 7.667-0.333 2.666 2 1.667 5.333h4.333l2-3.333 3.334-1.334 7 3.334s0.333 6.666 1.333 6.333 5.667-0.333 5.667-0.333l3.333 4" fill="none" stroke="#222" stroke-width=".5"/>
        </g>
      </g>
  </g>
</svg>