<?xml version="1.0" encoding="UTF-8"?>
<svg width="765" height="990" fill-rule="evenodd" image-rendering="optimizeQuality" shape-rendering="geometricPrecision" text-rendering="geometricPrecision" viewBox="0 0 8500 11000" xmlns="http://www.w3.org/2000/svg">
 <path d="m4299 7960h-5c-1-84-15-176-49-253-32-72-89-142-174-142-51 0-91 24-122 59-31-35-71-59-122-59-49 0-88 23-119 56-31-33-70-56-119-56-77 0-130 57-164 120-20-13-40-27-60-41 263-152 463-512 521-955 28 13 58 21 90 21 98 0 174-68 222-147 15-26 9-58-15-76-23-18-56-15-76 7-35 37-79 65-131 65-27 0-53-8-76-21 2-38 3-75 3-113 0-461-152-866-380-1096-4-5-8-9-12-14 2 3 4 6 6 8-12-12-25-23-38-35 38 39 74 82 107 130 147 228 238 552 238 911 0 690-338 1249-755 1249-418 0-756-559-756-1249 0-652 302-1187 687-1244 45-40 94-77 145-112-497-255-821-670-821-1139 0-144 30-282 86-412-188-191-306-470-306-781 0-202 149-228 289-179 242 84 551 144 895 165 296-125 642-197 1011-197 370 0 716 72 1012 198 348-21 661-81 906-166 140-49 289-23 289 179 0 316-122 599-314 790 53 127 82 263 82 403 0 469-324 884-821 1139 53 35 102 73 149 114 379 67 674 598 674 1242 0 690-339 1249-756 1249s-756-559-756-1249c0-335 80-640 210-864 42-67 87-126 137-177-16 15-32 30-48 46 17-21 34-41 52-60-38 35-73 76-106 120-196 237-321 611-321 1031 0 40 1 79 3 117-21 11-43 17-68 17-51 0-96-28-130-65-20-22-53-25-77-7-23 18-29 50-14 76 48 79 124 147 221 147 30 0 57-6 82-17 59 444 260 804 525 953-20 14-39 28-59 41-33-64-87-122-164-122-51 0-91 24-122 59-31-35-72-59-122-59-49 0-88 23-119 56-31-33-70-56-119-56-85 0-143 70-174 142-34 77-48 169-49 253h-3z" fill="#5f2f1d"/>
 <path d="m3476 2869c398 0 732 275 821 645 90-370 423-645 821-645 467 0 845 378 845 845s-378 845-845 845c-157 0-305-43-431-118 45-118 75-234 73-328-7-256-282-351-461-351s-454 95-461 351c-2 93 28 208 72 326-127 76-275 120-434 120-466 0-845-378-845-845s379-845 845-845z" fill="#fefefe"/>
 <path d="m3875 3714a399 399 0 1 0 -798 0 399 399 0 1 0 798 0"/>
 <path d="m5517 3714a399 399 0 1 0 -798 0 399 399 0 1 0 798 0"/>
 <path d="m3591 7645c49 0 93 57 119 144 25-87 69-144 119-144 51 0 97 62 122 154 25-92 70-154 122-154 79 0 142 144 142 322 0 177-63 321-142 321-52 0-97-62-122-154-25 92-71 154-122 154-50 0-94-57-119-144-26 87-70 144-119 144-79 0-143-144-143-321 0-178 64-322 143-322z" fill="#f5811e"/>
 <path d="m4525 7645c49 0 93 57 119 144 25-87 69-144 119-144 51 0 97 62 122 154 25-92 70-154 122-154 79 0 143 144 143 322 0 177-64 321-143 321-52 0-97-62-122-154-25 92-71 154-122 154-50 0-94-57-119-144-26 87-70 144-119 144-79 0-143-144-143-321 0-178 64-322 143-322z" fill="#f5811e"/>
 <path d="m4299 4832c178-292 300-581 296-713-2-88-144-164-296-164s-294 76-296 164c-4 132 118 421 296 713z" fill="#f5811e"/>
 <path d="m4514 6907c-48 79-124 147-221 147s-173-68-221-147c-15-25-9-58 14-76 24-18 57-15 77 7 34 37 78 65 130 65s96-28 130-65c20-22 53-25 77-7 23 18 29 51 14 76z" fill="#fefefe"/>
 <path d="m4199 7276c-48 79-124 147-221 147-98 0-173-68-221-147-16-26-9-58 14-76s57-15 77 7c34 37 78 65 130 65 51 0 96-28 130-65 20-22 53-25 77-7 23 18 29 50 14 76z" fill="#fefefe"/>
 <path d="m4842 7276c-48 79-124 147-222 147-97 0-173-68-221-147-15-26-9-58 15-76 23-18 56-15 76 7 34 37 79 65 130 65 52 0 96-28 131-65 20-22 53-25 76-7 24 18 30 50 15 76z" fill="#fefefe"/>
 <path d="m653 7801h2690c-12 55-17 112-17 166 0 49 4 101 14 151h-2687v-317zm4600 0h2681v317h-2678c9-50 14-102 14-151 0-54-6-111-17-166z"/>
</svg>
